<svg width="214" height="115" viewBox="0 0 214 115" fill="none" xmlns="http://www.w3.org/2000/svg">
<path d="M123.435 39.6009L126.998 14.0533C127.904 7.59095 130.32 4.51074 134.427 4.51074C137.87 4.51074 141.735 6.80579 141.735 11.3959C141.735 12.9662 141.252 14.8385 140.104 17.0127L127.361 40.688C126.334 42.5603 125.609 44.191 125.609 45.3989C125.609 46.9692 126.938 47.996 127.965 47.996C129.233 47.996 130.984 46.6673 134.065 44.3118L139.621 40.0237C141.916 38.2722 144.03 37.5474 145.842 37.5474C149.828 37.5474 152.486 40.99 152.486 44.4326C152.486 47.8752 149.888 51.3178 143.547 51.3178H131.528C124.945 51.3178 123.193 49.0831 123.193 42.8623C123.193 41.896 123.254 40.8088 123.435 39.6009Z" fill="black"/>
<path d="M94.1956 48.3586L91.5985 51.6804H91.4173V12.4229C91.4173 11.4163 91.1355 10.4902 90.5718 9.64463C90.0484 8.79909 89.2028 8.15486 88.0352 7.71195V7.53077C89.7665 7.36971 91.4375 6.94694 93.048 6.26245C94.6586 5.57796 95.9873 4.63175 97.0342 3.42383H97.2154V23.2942C97.2154 23.7371 97.1952 24.1598 97.155 24.5625C97.155 24.9651 97.1348 25.4886 97.0946 26.1328H97.155C97.8797 25.2872 98.8662 24.4014 100.114 23.4753C101.403 22.509 102.852 21.6836 104.463 20.9991C106.073 20.3146 107.785 19.9724 109.597 19.9724C111.811 19.9724 113.804 20.5763 115.576 21.7843C117.388 22.9922 118.797 24.643 119.804 26.7367C120.85 28.7902 121.374 31.1255 121.374 33.7427C121.374 36.3196 120.911 38.7153 119.985 40.9298C119.059 43.1041 117.77 45.0368 116.119 46.7279C114.469 48.3787 112.576 49.6671 110.442 50.5932C108.308 51.5193 106.033 51.9823 103.617 51.9823C101.483 51.9823 99.6111 51.6401 98.0005 50.9556C96.4302 50.2308 95.1619 49.3652 94.1956 48.3586ZM115.093 35.6754C115.012 31.9711 114.126 29.0721 112.435 26.9783C110.784 24.8443 108.63 23.7773 105.973 23.7773C104.403 23.7773 102.872 24.0994 101.383 24.7437C99.8929 25.3476 98.5038 26.0925 97.2154 26.9783V45.4595C97.2154 47.2714 97.8395 48.6404 99.0876 49.5665C100.336 50.4926 101.826 50.9556 103.557 50.9556C105.771 50.9556 107.744 50.2912 109.476 48.9625C111.247 47.6338 112.637 45.8219 113.643 43.5269C114.65 41.2318 115.133 38.6147 115.093 35.6754Z" fill="black"/>
<path d="M83.0784 51.6199C79.7566 51.6199 78.7902 49.6268 78.7298 47.3317H78.6694C76.616 49.9892 73.2338 51.9218 68.8249 51.9218C62.6041 51.9218 59.1011 47.8149 59.1011 43.104C59.1011 35.1317 65.2011 33.501 71.4219 33.1386C79.9981 32.6555 82.0516 32.1119 82.0516 28.0654C82.0516 24.2 79.0318 23.2941 75.6496 23.2337C70.5763 23.1733 67.6773 24.9248 66.8318 29.5149H61.9397C63.0268 23.2941 67.9189 19.4287 76.012 19.4287C82.0516 19.4287 87.7289 22.2673 86.219 30.0584L83.3803 44.4931C82.9576 46.7882 83.1991 48.2377 86.0982 47.6941H86.2793L85.5546 51.1971C84.9506 51.3783 84.2259 51.6199 83.0784 51.6199ZM63.9932 42.7416C63.9932 46.003 66.107 48.1773 69.8516 48.1773C75.8912 48.1773 79.0922 44.0099 79.9981 39.4198L80.8437 35.1317C78.911 36.2188 76.4348 36.4 71.2407 36.8228C68.8249 37.004 63.9932 37.3664 63.9932 42.7416Z" fill="black"/>
<path d="M28.5542 44.5833V24.3798H31.9215V21.0126H35.2887V17.6453H45.3905V21.0126H38.656V24.3798H35.2887V44.5833H38.656V47.9506H45.3905V51.3179H35.2887V47.9506H31.9215V44.5833H28.5542ZM48.7577 47.9506H45.3905V44.5833H48.7577V24.3798H45.3905V21.0126H48.7577V4.17627H55.4923V51.3179H48.7577V47.9506Z" fill="black"/>
<path d="M26.9381 14.2781H23.5708V21.0126H20.2035V27.7471H16.8363V34.4817H13.469V41.2162H10.1018V47.9507H6.73451V54.6852H0V47.9507H3.36726V41.2162H6.73451V34.4817H10.1018V27.7471H13.469V21.0126H16.8363V14.2781H20.2035V7.54359H23.5708V0.809082H30.3053V7.54359H26.9381V14.2781Z" fill="black"/>
<path d="M72.8745 99.7176C71.6202 99.7176 70.575 99.2845 69.7388 98.4185C68.9175 97.5524 68.5143 96.4923 68.5293 95.238C68.5442 93.9986 69.0071 92.9608 69.918 92.1247C70.8437 91.2735 71.9188 90.848 73.1433 90.848C74.3677 90.848 75.4129 91.281 76.279 92.1471C77.145 93.0131 77.5482 94.0434 77.4885 95.238C77.4437 96.0742 77.2047 96.8357 76.7717 97.5226C76.3536 98.1945 75.8011 98.732 75.1143 99.1352C74.4274 99.5234 73.6808 99.7176 72.8745 99.7176ZM100.166 99.9863C96.8216 99.9863 94.0816 99.2323 91.9463 97.7241C89.811 96.2011 88.3253 94.1031 87.4891 91.4303C86.6529 88.7575 86.5186 85.6964 87.086 82.2472C87.6534 78.7531 88.8106 75.6696 90.5576 72.9968C92.3196 70.3091 94.5221 68.2111 97.165 66.703C99.8229 65.1949 102.772 64.4408 106.012 64.4408C108.625 64.4408 110.873 64.9261 112.754 65.8967C114.635 66.8523 116.061 68.1962 117.032 69.9283C118.003 71.6604 118.421 73.6837 118.286 75.9981H111.768C111.664 74.3855 111.067 72.9968 109.977 71.8321C108.887 70.6674 107.281 70.0851 105.161 70.0851C103.295 70.0851 101.577 70.5778 100.01 71.5634C98.4417 72.5339 97.1202 73.9226 96.0451 75.7294C94.97 77.5212 94.2384 79.6415 93.8501 82.0904C93.432 84.5989 93.4544 86.7641 93.9173 88.5858C94.3802 90.4075 95.2313 91.8185 96.4707 92.819C97.7101 93.8194 99.2704 94.3197 101.152 94.3197C102.436 94.3197 103.631 94.0882 104.736 93.6253C105.855 93.1475 106.841 92.4681 107.692 91.5871C108.558 90.7061 109.23 89.6459 109.708 88.4066H116.248C115.606 90.6315 114.531 92.6174 113.023 94.3644C111.53 96.1115 109.693 97.4852 107.513 98.4857C105.333 99.4861 102.884 99.9863 100.166 99.9863ZM135.863 53.421L128.248 99.292H121.551L129.166 53.421H135.863ZM161.425 85.0245L164.784 64.8888H171.504L165.77 99.292H159.185L160.193 93.3341H159.834C158.759 95.1708 157.236 96.7013 155.265 97.9257C153.309 99.1352 151.04 99.74 148.456 99.74C146.246 99.74 144.372 99.2547 142.834 98.2841C141.311 97.2986 140.229 95.8427 139.587 93.9165C138.945 91.9903 138.855 89.6086 139.318 86.7715L142.991 64.8888H149.688L146.172 85.9652C145.798 88.3095 146.149 90.176 147.224 91.5647C148.3 92.9534 149.867 93.6477 151.928 93.6477C153.182 93.6477 154.481 93.3341 155.825 92.707C157.169 92.0799 158.356 91.1317 159.386 89.8625C160.432 88.5932 161.111 86.9806 161.425 85.0245ZM175.306 99.292L182.921 53.421H189.618L186.818 70.4659H187.222C187.729 69.7491 188.424 68.9204 189.305 67.9797C190.2 67.039 191.358 66.2177 192.776 65.5159C194.195 64.7992 195.972 64.4408 198.107 64.4408C200.884 64.4408 203.244 65.1426 205.185 66.5462C207.126 67.9498 208.5 69.9731 209.306 72.6161C210.112 75.259 210.209 78.4395 209.597 82.1576C208.985 85.8756 207.835 89.0636 206.148 91.7215C204.475 94.3644 202.437 96.4027 200.033 97.8361C197.629 99.2547 195.038 99.9639 192.261 99.9639C190.171 99.9639 188.521 99.613 187.311 98.9112C186.117 98.2094 185.221 97.3882 184.623 96.4475C184.041 95.5067 183.601 94.6706 183.302 93.9389H182.742L181.846 99.292H175.306ZM184.735 82.0904C184.347 84.5094 184.347 86.6297 184.735 88.4514C185.139 90.2731 185.922 91.6991 187.087 92.7294C188.267 93.7448 189.812 94.2525 191.723 94.2525C193.724 94.2525 195.486 93.7224 197.009 92.6622C198.532 91.5871 199.787 90.1312 200.772 88.2946C201.758 86.458 202.445 84.3899 202.833 82.0904C203.191 79.8207 203.184 77.7825 202.81 75.9757C202.437 74.169 201.661 72.743 200.481 71.6977C199.316 70.6525 197.726 70.1299 195.71 70.1299C193.769 70.1299 192.045 70.6301 190.536 71.6305C189.028 72.631 187.781 74.0271 186.796 75.819C185.81 77.6108 185.124 79.7013 184.735 82.0904Z" fill="black"/>
</svg>
