<svg width="335" height="129" viewBox="0 0 335 129" fill="none" xmlns="http://www.w3.org/2000/svg">
<path d="M128.804 67V16.972H158.801V22.3461H134.862V39.2501H156.554V44.6242H134.862V67H128.804ZM174.16 16.972V67H168.395V16.972H174.16ZM208.365 51.6594V29.479H214.13V67H208.365V60.6488H207.975C207.095 62.5541 205.727 64.1745 203.871 65.5099C202.014 66.829 199.669 67.4886 196.835 67.4886C194.49 67.4886 192.406 66.9756 190.582 65.9496C188.758 64.9074 187.325 63.344 186.283 61.2595C185.24 59.1587 184.719 56.5123 184.719 53.3205V29.479H190.484V52.9296C190.484 55.6655 191.25 57.8477 192.78 59.4763C194.328 61.1048 196.298 61.919 198.692 61.919C200.125 61.919 201.583 61.5526 203.065 60.8198C204.563 60.0869 205.817 58.9633 206.826 57.4487C207.852 55.9342 208.365 54.0044 208.365 51.6594ZM241.007 29.479V34.3645H221.562V29.479H241.007ZM227.23 20.4895H232.995V56.2518C232.995 57.8803 233.231 59.1017 233.703 59.9159C234.192 60.7139 234.81 61.2513 235.56 61.5282C236.325 61.7887 237.131 61.919 237.978 61.919C238.613 61.919 239.134 61.8865 239.541 61.8213C239.948 61.7399 240.274 61.6747 240.518 61.6259L241.691 66.8046C241.3 66.9511 240.755 67.0977 240.054 67.2443C239.354 67.4071 238.466 67.4886 237.392 67.4886C235.763 67.4886 234.167 67.1384 232.604 66.4382C231.057 65.7379 229.77 64.6712 228.744 63.2381C227.735 61.805 227.23 59.9974 227.23 57.8152V20.4895ZM265.997 29.479V34.3645H246.552V29.479H265.997ZM252.219 20.4895H257.984V56.2518C257.984 57.8803 258.22 59.1017 258.693 59.9159C259.181 60.7139 259.8 61.2513 260.549 61.5282C261.315 61.7887 262.121 61.919 262.968 61.919C263.603 61.919 264.124 61.8865 264.531 61.8213C264.938 61.7399 265.264 61.6747 265.508 61.6259L266.681 66.8046C266.29 66.9511 265.744 67.0977 265.044 67.2443C264.344 67.4071 263.456 67.4886 262.381 67.4886C260.753 67.4886 259.157 67.1384 257.593 66.4382C256.046 65.7379 254.76 64.6712 253.734 63.2381C252.724 61.805 252.219 59.9974 252.219 57.8152V20.4895ZM289.997 67.7817C286.382 67.7817 283.263 66.9837 280.641 65.3878C278.035 63.7755 276.024 61.5282 274.607 58.6457C273.207 55.7469 272.507 52.3759 272.507 48.5326C272.507 44.6893 273.207 41.302 274.607 38.3707C276.024 35.4231 277.995 33.1268 280.519 31.482C283.059 29.821 286.023 28.9904 289.411 28.9904C291.365 28.9904 293.295 29.3161 295.2 29.9675C297.105 30.6189 298.84 31.6775 300.403 33.1431C301.966 34.5925 303.212 36.5142 304.141 38.9081C305.069 41.302 305.533 44.2496 305.533 47.7509V50.1937H276.61V45.2104H299.67C299.67 43.0934 299.247 41.2043 298.4 39.5432C297.569 37.8821 296.381 36.5712 294.834 35.6103C293.303 34.6495 291.495 34.1691 289.411 34.1691C287.114 34.1691 285.128 34.7391 283.45 35.879C281.789 37.0027 280.511 38.4684 279.615 40.276C278.719 42.0837 278.272 44.0216 278.272 46.0898V49.412C278.272 52.2456 278.76 54.6477 279.737 56.6182C280.731 58.5724 282.107 60.0625 283.865 61.0885C285.624 62.0982 287.668 62.603 289.997 62.603C291.511 62.603 292.879 62.3913 294.101 61.9679C295.338 61.5282 296.405 60.8768 297.301 60.0137C298.196 59.1343 298.889 58.0432 299.377 56.7403L304.947 58.3037C304.36 60.1928 303.375 61.8539 301.991 63.287C300.607 64.7038 298.897 65.8112 296.861 66.6092C294.825 67.3908 292.537 67.7817 289.997 67.7817ZM314.302 67V29.479H319.872V35.1462H320.263C320.947 33.2897 322.184 31.7833 323.976 30.6271C325.767 29.4708 327.787 28.8927 330.034 28.8927C330.457 28.8927 330.987 28.9008 331.622 28.9171C332.257 28.9334 332.737 28.9578 333.063 28.9904V34.8531C332.868 34.8042 332.42 34.7309 331.719 34.6332C331.035 34.5192 330.311 34.4622 329.545 34.4622C327.721 34.4622 326.093 34.8449 324.66 35.6103C323.243 36.3594 322.119 37.4017 321.289 38.7371C320.475 40.0562 320.067 41.5626 320.067 43.2562V67H314.302Z" fill="black"/>
<path d="M136.997 86.5561C136.912 86.6128 136.749 86.6411 136.509 86.6411C136.296 86.6411 136.076 86.6128 135.85 86.5561C134.73 84.3596 134.078 83.1408 133.894 82.8999C133.582 82.4748 132.739 82.0709 131.364 81.6883C130.939 81.5749 130.606 81.2986 130.365 80.8593C130.252 80.4625 130.068 79.8815 129.813 79.1162C129.614 78.6769 129.395 78.2589 129.154 77.8621V77.3732H130.025C131.201 77.7275 132.094 78.0463 132.704 78.3297C133.752 78.8116 134.489 79.4067 134.914 80.1153C135.141 80.4979 135.467 81.3978 135.892 82.8149C136.076 83.4668 136.409 84.4092 136.891 85.642C136.962 86.0672 136.997 86.3719 136.997 86.5561ZM139.995 91.3388H127.198V88.788H139.995V91.3388ZM137.082 120.035C137.082 121.438 136.154 122.643 134.298 123.649C133.433 124.117 132.498 124.351 131.492 124.351C130.33 124.351 129.154 123.954 127.963 123.16C126.773 122.367 125.951 121.438 125.498 120.376L128.792 117.825C129.062 121.424 130.068 123.224 131.811 123.224C132.817 123.224 133.32 122.629 133.32 121.438V93.9534H137.082V120.035ZM159.763 91.3388H145.606V94.7399C145.663 94.7399 145.72 94.7683 145.776 94.8249C145.833 94.8816 145.883 94.91 145.925 94.91C145.812 94.91 145.748 94.9029 145.734 94.8887C145.734 94.8179 146.79 94.5911 148.901 94.2085C149.681 94.0668 150.453 93.9959 151.218 93.9959C154.407 93.9959 156.454 94.8887 157.361 96.6743C157.971 97.8647 158.275 100.267 158.275 103.88V112.064C157.978 111.951 156.851 111.49 154.896 110.682C154.896 110.229 154.803 109.938 154.619 109.811C153.868 110.25 153.252 110.583 152.77 110.81C151.239 111.533 149.461 111.894 147.434 111.894C144.643 111.894 142.489 111.015 140.972 109.258C140.236 108.408 139.867 107.459 139.867 106.41C139.867 105.234 140.448 104.065 141.61 102.902C143.863 100.649 146.662 99.5227 150.007 99.5227C152.033 99.5227 153.663 99.9903 154.896 100.926V98.97C154.272 98.1764 153.663 97.645 153.067 97.3757C152.486 97.1065 151.686 96.986 150.665 97.0144C148.384 97.0569 146.294 97.4749 144.395 98.2685C143.544 98.6228 142.715 98.9417 141.908 99.2251V97.6521C142.092 97.4962 142.361 97.2624 142.715 96.9506C142.772 96.8798 142.808 96.8372 142.822 96.8231V91.3388H138.464V88.788H159.763V91.3388ZM154.896 104.794C154.896 104.171 154.152 103.611 152.664 103.115C151.431 102.704 150.403 102.499 149.581 102.499C146.591 102.499 144.196 103.576 142.397 105.73C141.674 106.594 141.313 107.303 141.313 107.855C141.61 108.89 142.779 109.407 144.82 109.407C147.456 109.407 149.865 108.748 152.047 107.43C153.946 106.282 154.896 105.404 154.896 104.794ZM166.884 86.5561C166.828 86.6128 166.665 86.6411 166.395 86.6411C166.169 86.6411 165.97 86.6128 165.8 86.5561L164.419 83.7289C163.852 82.8362 163.079 82.2339 162.102 81.9221C161.138 81.5962 160.543 81.2419 160.316 80.8593C160.103 80.2074 159.692 79.2084 159.083 77.8621V77.3732H159.912C161.003 77.7133 161.889 78.0321 162.569 78.3297C163.689 78.8257 164.44 79.3997 164.822 80.0515C165.035 80.4058 165.361 81.3128 165.8 82.7724C166.211 84.147 166.558 85.1035 166.842 85.642C166.87 85.8971 166.884 86.2018 166.884 86.5561ZM168.138 91.3388H159.487V88.788H168.138V91.3388ZM165.715 112.34L162.144 110.364V93.9534H165.715V112.34ZM192.116 91.3388H167.735V88.788H192.116V91.3388ZM190.415 103.094C190.415 104.653 189.948 106.126 189.013 107.515C188.148 108.805 187.007 109.861 185.59 110.682C184.173 111.49 182.862 111.894 181.658 111.894C180.482 111.894 179.015 111.235 177.258 109.917C176.407 109.28 175.16 108.181 173.516 106.622V124.648L170.115 122.863V94.7399H173.431V99.9266L174.728 98.5661C177.718 95.4343 180.141 93.8684 181.998 93.8684C184.01 93.8684 185.93 94.91 187.758 96.9931C189.53 99.0196 190.415 101.053 190.415 103.094ZM188.311 100.628C188.311 99.551 187.751 98.5165 186.632 97.5245C186.079 97.0286 185.378 96.7806 184.527 96.7806C182.855 96.7806 180.779 97.7938 178.299 99.8203C175.748 101.903 174.473 103.753 174.473 105.368C174.473 106.318 175.359 107.154 177.13 107.877C177.924 108.202 178.696 108.365 179.447 108.365C181.913 108.365 184.053 107.416 185.867 105.517C187.496 103.817 188.311 102.187 188.311 100.628ZM215.52 91.3388H197.728V104.964C197.728 105.871 197.919 106.807 198.302 107.77C199.081 109.74 200.371 110.725 202.17 110.725C204.594 110.725 206.436 109.712 207.697 107.685C208.675 106.126 209.164 104.66 209.164 103.285V94.8249H213.479V112.936C213.139 112.737 212.501 112.433 211.566 112.022L209.121 110.938V109.237C207.449 110.456 206.018 111.228 204.828 111.554C204.105 111.752 203.247 111.852 202.255 111.852C199.109 111.852 196.651 110.47 194.879 107.707C194.072 106.445 193.668 105.071 193.668 103.583V91.3388H191.096V88.788H215.52V91.3388ZM236.628 91.3388H215.137V88.788H236.628V91.3388ZM234.863 98.97C234.863 99.8061 234.36 100.748 233.354 101.797C232.504 102.69 231.611 103.356 230.676 103.795L227.487 100.182C228.451 100.097 229.365 99.7423 230.229 99.1188C231.221 98.4102 231.717 97.6025 231.717 96.6955C231.717 96.2137 231.406 95.8028 230.782 95.4626C230.243 95.1509 229.712 94.995 229.188 94.995C228.097 94.995 226.927 95.5193 225.68 96.568C223.144 98.6937 221.875 101.046 221.875 103.625V112.638L217.794 110.512V94.7824H221.918V96.3979C222.527 95.7886 223.789 95.1509 225.702 94.4848C226.637 94.1589 227.601 93.9959 228.593 93.9959C230.647 93.9959 232.39 94.7824 233.822 96.3554C234.516 97.1207 234.863 97.9922 234.863 98.97Z" fill="black"/>
<path d="M277.405 107.509C276.172 104.907 276.857 102.475 278.152 100.153C278.542 99.4542 279.374 99.3458 280.188 99.2194C287.64 98.0632 288.357 96.3056 289.954 93.5359C291.673 90.5575 291.728 89.1431 293.625 88.7147C294.532 88.5087 295.367 87.8702 296.408 88.3234C296.589 88.4016 297.312 88.2835 297.35 87.6642C297.386 87.0916 297.295 86.5575 296.692 86.3213C295.831 85.9848 294.954 85.6731 294.012 85.6869C291.04 85.7267 290.604 83.6766 289.537 85.4026C286.928 89.6224 289.622 87.1218 285.701 92.712C284.791 94.0124 283.345 93.7515 282.069 93.6293C279.99 93.4288 278.267 92.3357 276.674 91.0532C276.19 90.6619 275.664 90.2375 276.096 89.448C276.287 89.1033 276.111 88.7751 275.731 88.62C274.55 88.1393 273.976 87.1108 273.523 86.0315C272.747 84.186 271.499 87.9622 269.189 84.9838C267.966 83.4074 265.976 83.0943 264.365 84.2862C262.8 85.4452 261.298 86.6879 259.426 87.3594C258.76 87.5969 258.448 88.1311 258.504 88.8644C258.697 91.38 256.501 90.5836 255.621 92.5074C255.118 93.6059 253.734 94.2142 253.687 95.4927C253.63 97.0718 252.951 98.5246 252.935 100.079C252.921 101.521 252.338 102.695 251.51 103.798C251.489 104.15 251.374 104.479 251.162 104.752C249.709 106.636 249.6 108.899 249.392 111.126C249.237 112.778 248.055 113.767 249.451 114.548C249.635 114.651 249.671 114.88 249.562 115.071C249.178 115.75 249.74 115.883 250.138 116.152C250.686 116.521 251.289 116.409 251.817 116.263C252.18 116.163 252.07 115.663 251.906 115.364C250.235 112.306 251.055 109.422 252.582 106.64C253.068 105.756 253.392 104.768 254.082 103.998C254.358 102.65 255.696 102.165 256.349 100.954C256.975 102.144 256.713 103.214 256.675 104.263C257.203 107.368 254.638 107.309 256.674 109.713C257.366 110.53 257.966 111.426 258.662 112.24C260.174 114.011 259.058 115.402 261.024 115.93C261.91 116.167 263.043 117.311 263.679 115.983C263.912 115.494 263.459 115.31 263.095 115.165C261.845 114.669 261.698 113.765 259.633 111.099C258.345 109.437 258.334 106.288 259.514 104.587C259.547 104.469 259.578 104.352 259.61 104.234L259.549 104.144L259.62 104.06C259.879 102.882 260.534 101.822 260.597 100.575C260.616 100.199 260.761 99.7344 261.465 100.041C264.665 101.434 268.144 101.863 270.24 101.621C270.723 101.566 270.9 101.826 271.066 102.245C271.655 103.725 271.276 104.974 270.262 106.104C269.293 107.399 269.365 109.049 268.78 110.478C268.248 111.778 267.923 113.147 267.176 114.378C265.645 116.902 270.146 117.813 269.263 116.166C268.585 114.9 269.001 113.734 269.379 112.523C269.95 110.698 270.697 108.965 271.809 107.405C272.03 107.095 272.191 106.703 272.651 106.659C272.942 105.08 274.083 103.988 274.919 102.714C274.919 104.118 274.919 105.521 274.919 106.926C275.105 107.527 275.349 108.1 275.053 108.767C274.849 109.224 274.941 109.721 275.327 110.124C276.13 110.963 276.365 115.637 276.622 117.796C276.758 118.939 277.714 118.252 277.929 118.205C280.479 117.658 277.895 117.283 277.667 115.467C276.766 108.282 277.081 109.562 277.405 107.509Z" fill="black"/>
<path d="M304.469 104.617C304.725 103.604 305.015 102.693 305.843 101.975C306.272 101.603 306.58 101.073 305.864 100.535C305.273 100.093 305.467 99.5763 306.044 99.2838C307.831 98.3748 310.186 99.4348 309.835 100.02C309.364 100.805 309.806 102.067 308.657 102.461C308.128 102.643 308.112 102.967 308.232 103.35C308.868 105.381 308.74 107.494 308.937 109.572C308.186 114.044 308.151 114.887 307.452 115.721C306.959 116.31 306.736 117.157 307.656 117.758C307.851 117.886 308.04 118.069 308.007 118.357C305.739 118.617 305.584 118.514 305.571 116.277C305.566 115.532 305.379 115.155 304.594 115.215C303.458 115.303 302.642 114.89 302.097 115.873C301.685 116.619 302.241 116.944 302.501 117.397C301.769 118.163 301.11 117.636 300.54 117.27C299.919 116.87 300.371 116.31 300.541 115.83C303.547 107.37 303.987 106.534 304.469 104.617Z" fill="black"/>
<mask id="mask0_167_630" style="mask-type:luminance" maskUnits="userSpaceOnUse" x="289" y="83" width="22" height="34">
<path d="M289.375 83.0859H310.188V116.534H289.375V83.0859Z" fill="white"/>
</mask>
<g mask="url(#mask0_167_630)">
<path d="M305.496 110.238C302.479 108.652 301.018 111.004 298.812 108.84C296.977 107.04 295.245 101.006 297.079 95.0342C297.481 93.7228 298.04 92.4211 298.016 91.0493C297.993 89.6775 297.162 88.1876 295.81 87.9844" stroke="black" stroke-width="0.441925" stroke-miterlimit="10"/>
</g>
<path d="M47.5977 114.524L66.6289 95.4297L99.9191 128.342H61.4162L47.5977 114.524Z" fill="#00579A" stroke="#00579A" stroke-width="0.401376"/>
<path d="M100.155 4.92188H62.1243L0.118107 66.9286L19.1333 85.9441L100.155 4.92188Z" fill="#00C7FA"/>
<path d="M47.478 76.0234L28.5809 94.9207L28.2266 95.2751L47.478 114.527L66.7294 95.2751L47.478 76.0234Z" fill="#00B8F8"/>
<path d="M100.747 61.375H62.1257L47.5395 75.9614L66.6298 95.0281L100.747 61.375Z" fill="#00C7FA"/>
<path d="M47.4805 76.0204L47.5395 75.9614M47.5395 75.9614L62.1257 61.375H100.747L66.6298 95.0281L47.5395 75.9614Z" stroke="#00C7FA" stroke-width="0.401376"/>
</svg>
