<svg width="6037" height="1784" viewBox="0 0 6037 1784" fill="none" xmlns="http://www.w3.org/2000/svg">
<mask id="mask0_201_4" style="mask-type:luminance" maskUnits="userSpaceOnUse" x="-3378" y="-2657" width="11980" height="7390">
<path d="M8601.44 -2656.97H-3378V4732H8601.44V-2656.97Z" fill="white"/>
</mask>
<g mask="url(#mask0_201_4)">
<path d="M2216.77 633.175L2461.35 478.554C2518.76 442.293 2538.72 361.562 2505.65 297.934C2472.59 234.991 2398.96 213.098 2340.94 249.359L1917.91 516.867L2216.77 633.175Z" fill="#EA4335"/>
</g>
<mask id="mask1_201_4" style="mask-type:luminance" maskUnits="userSpaceOnUse" x="-3378" y="-2657" width="11980" height="7390">
<path d="M8601.44 -2656.97H-3378V4732H8601.44V-2656.97Z" fill="white"/>
</mask>
<g mask="url(#mask1_201_4)">
<path d="M2401.46 1031.36C2443.26 1031.36 2483.82 1007.41 2505.65 964.993C2538.72 902.05 2519.38 821.319 2461.35 784.374L2038.33 516.866C1980.93 480.605 1907.31 501.814 1873.61 565.441C1840.55 628.385 1859.89 709.116 1917.91 746.061L2340.94 1013.57C2360.28 1025.88 2380.87 1031.36 2401.46 1031.36Z" fill="#4285F4"/>
</g>
<mask id="mask2_201_4" style="mask-type:luminance" maskUnits="userSpaceOnUse" x="-3378" y="-2657" width="11980" height="7390">
<path d="M8601.44 -2656.97H-3378V4732H8601.44V-2656.97Z" fill="white"/>
</mask>
<g mask="url(#mask2_201_4)">
<path d="M2821.99 1031.36C2842.57 1031.36 2863.16 1025.88 2881.88 1013.57L3304.91 746.061L3010.41 627.701L2762.09 785.059C2704.69 821.32 2684.72 902.051 2717.79 965.678C2740.25 1007.41 2780.18 1031.36 2821.99 1031.36Z" fill="#FBBC04"/>
</g>
<mask id="mask3_201_4" style="mask-type:luminance" maskUnits="userSpaceOnUse" x="-3298" y="-2658" width="11981" height="7390">
<path d="M8682 -2657.21H-3297.44V4731.77H8682V-2657.21Z" fill="white"/>
</mask>
<g mask="url(#mask3_201_4)">
<path d="M3244.39 763.848C3286.19 763.848 3326.74 739.903 3348.58 697.484C3381.65 634.541 3362.31 553.81 3304.28 516.865L2881.26 249.357C2823.86 213.096 2750.23 234.305 2716.54 297.933C2683.47 360.876 2702.81 441.607 2760.84 478.552L3183.86 746.06C3203.83 757.691 3224.42 763.848 3244.39 763.848Z" fill="#0F9D58"/>
</g>
</svg>
