<svg width="88" height="90" viewBox="0 0 88 90" fill="none" xmlns="http://www.w3.org/2000/svg">
<g filter="url(#filter0_ddd_67_7)">
<g filter="url(#filter1_dd_67_7)">
<path d="M4.06837 0C30.3316 0 56.5949 0 83.654 0C83.7078 9.37473 83.7616 18.7495 83.817 28.4083C83.8408 31.3703 83.8646 34.3323 83.889 37.384C83.9008 40.9961 83.9008 40.9961 83.903 42.6862C83.9054 43.8687 83.915 45.051 83.9294 46.2334C83.9461 47.5972 83.9536 48.9608 83.95 50.3247C83.9484 51.0225 83.9509 51.7197 83.965 52.4174C84.0427 56.4407 84.0427 56.4407 83.4043 57.3946C82.8157 57.963 82.1665 58.2679 81.3887 58.5297C80.7944 58.7574 80.2872 59.1149 79.7644 59.4658C79.6443 59.5412 79.5242 59.6167 79.4005 59.6944C78.0775 60.5261 76.756 61.3601 75.4345 62.1938C73.8936 63.166 72.3524 64.1377 70.8095 65.1068C69.9886 65.6226 69.1684 66.1394 68.3484 66.6565C68.2237 66.7352 68.099 66.8139 67.9704 66.8949C67.3283 67.2999 66.6863 67.7051 66.0443 68.1103C64.9517 68.7997 63.859 69.489 62.7627 70.1731C61.7512 70.8045 60.7443 71.4427 59.7375 72.0812C58.3329 72.9718 56.9265 73.8597 55.5174 74.7437C54.9887 75.0754 54.4602 75.4075 53.9317 75.7396C53.825 75.8067 53.7182 75.8737 53.6083 75.9428C52.7724 76.4683 51.9372 76.9948 51.1021 77.5215C49.7333 78.3851 48.3631 79.2467 46.9924 80.1077C46.5113 80.4099 46.0302 80.7122 45.5491 81.0144C45.438 81.0842 45.3269 81.154 45.2124 81.2259C45.1094 81.2906 45.0064 81.3553 44.9003 81.422C44.8097 81.4789 44.719 81.5359 44.6256 81.5945C44.4135 81.7285 44.2024 81.8641 43.9916 82C43.3869 81.9719 42.9631 81.6633 42.4831 81.3377C42.3077 81.2217 42.1322 81.1059 41.9566 80.9903C41.8634 80.9286 41.7702 80.867 41.6742 80.8034C41.1686 80.4724 40.6555 80.1525 40.1428 79.8317C39.9194 79.6916 39.696 79.5515 39.4726 79.4114C39.3584 79.3397 39.2441 79.2681 39.1264 79.1942C38.516 78.811 37.9065 78.4265 37.297 78.0419C37.1718 77.9629 37.0466 77.884 36.9176 77.8026C36.6629 77.6419 36.4082 77.4813 36.1535 77.3206C35.6511 77.0036 35.1486 76.6868 34.6461 76.3699C34.2707 76.1332 33.8954 75.8965 33.52 75.6598C33.025 75.3476 32.53 75.0355 32.0349 74.7235C30.0042 73.4433 27.9751 72.1606 25.9464 70.8775C24.0832 69.6992 22.2193 68.5219 20.3543 67.3463C19.7312 66.9535 19.1081 66.5606 18.4851 66.1677C18.235 66.01 17.985 65.8523 17.7349 65.6946C16.2345 64.7485 14.7341 63.8023 13.2338 62.8562C13.11 62.7781 12.9863 62.7001 12.8588 62.6197C12.6084 62.4618 12.358 62.3039 12.1076 62.146C11.4874 61.7548 10.8671 61.3637 10.2468 60.9727C9.62671 60.5819 9.0068 60.1909 8.38694 59.7998C8.101 59.6194 7.81501 59.4391 7.52896 59.2589C7.13894 59.0132 6.74903 58.7673 6.3592 58.5214C6.2087 58.4264 6.05816 58.3316 5.90758 58.2368C5.69753 58.1045 5.48764 57.9721 5.27775 57.8396C5.09733 57.7258 5.09733 57.7258 4.91326 57.6098C4.80666 57.5406 4.70007 57.4713 4.59024 57.4C4.4988 57.3526 4.40735 57.3051 4.31313 57.2562C4.01008 56.9657 4.00573 56.762 4 56.3587C4.00206 56.2229 4.00206 56.2229 4.00415 56.0844C4.00325 55.9393 4.00325 55.9393 4.00233 55.7913C4.00094 55.4646 4.0033 55.138 4.00561 54.8113C4.00538 54.5763 4.00493 54.3413 4.00426 54.1064C4.00308 53.4574 4.00519 52.8084 4.00779 52.1594C4.01007 51.45 4.00931 50.7406 4.00893 50.0313C4.00866 48.6529 4.01107 47.2746 4.01441 45.8963C4.01816 44.3027 4.01859 42.7091 4.019 41.1155C4.02174 36.906 4.02903 32.6966 4.03575 28.4871C4.04652 19.0864 4.05728 9.68562 4.06837 0Z" fill="#17263A"/>
</g>
<g filter="url(#filter2_d_67_7)">
<path d="M4.06837 0C30.3316 0 56.5949 0 83.654 0C83.7078 9.37473 83.7616 18.7495 83.817 28.4083C83.8408 31.3703 83.8646 34.3323 83.889 37.384C83.9008 40.9961 83.9008 40.9961 83.903 42.6862C83.9054 43.8687 83.915 45.051 83.9294 46.2334C83.9461 47.5972 83.9536 48.9608 83.95 50.3247C83.9484 51.0225 83.9509 51.7197 83.965 52.4174C84.0427 56.4407 84.0427 56.4407 83.4043 57.3946C82.8157 57.963 82.1665 58.2679 81.3887 58.5297C80.7944 58.7574 80.2872 59.1149 79.7644 59.4658C79.6443 59.5412 79.5242 59.6167 79.4005 59.6944C78.0775 60.5261 76.756 61.3601 75.4345 62.1938C73.8936 63.166 72.3524 64.1377 70.8095 65.1068C69.9886 65.6226 69.1684 66.1394 68.3484 66.6565C68.2237 66.7352 68.099 66.8139 67.9704 66.8949C67.3283 67.2999 66.6863 67.7051 66.0443 68.1103C64.9517 68.7997 63.859 69.489 62.7627 70.1731C61.7512 70.8045 60.7443 71.4427 59.7375 72.0812C58.3329 72.9718 56.9265 73.8597 55.5174 74.7437C54.9887 75.0754 54.4602 75.4075 53.9317 75.7396C53.825 75.8067 53.7182 75.8737 53.6083 75.9428C52.7724 76.4683 51.9372 76.9948 51.1021 77.5215C49.7333 78.3851 48.3631 79.2467 46.9924 80.1077C46.5113 80.4099 46.0302 80.7122 45.5491 81.0144C45.438 81.0842 45.3269 81.154 45.2124 81.2259C45.1094 81.2906 45.0064 81.3553 44.9003 81.422C44.8097 81.4789 44.719 81.5359 44.6256 81.5945C44.4135 81.7285 44.2024 81.8641 43.9916 82C43.3869 81.9719 42.9631 81.6633 42.4831 81.3377C42.3077 81.2217 42.1322 81.1059 41.9566 80.9903C41.8634 80.9286 41.7702 80.867 41.6742 80.8034C41.1686 80.4724 40.6555 80.1525 40.1428 79.8317C39.9194 79.6916 39.696 79.5515 39.4726 79.4114C39.3584 79.3397 39.2441 79.2681 39.1264 79.1942C38.516 78.811 37.9065 78.4265 37.297 78.0419C37.1718 77.9629 37.0466 77.884 36.9176 77.8026C36.6629 77.6419 36.4082 77.4813 36.1535 77.3206C35.6511 77.0036 35.1486 76.6868 34.6461 76.3699C34.2707 76.1332 33.8954 75.8965 33.52 75.6598C33.025 75.3476 32.53 75.0355 32.0349 74.7235C30.0042 73.4433 27.9751 72.1606 25.9464 70.8775C24.0832 69.6992 22.2193 68.5219 20.3543 67.3463C19.7312 66.9535 19.1081 66.5606 18.4851 66.1677C18.235 66.01 17.985 65.8523 17.7349 65.6946C16.2345 64.7485 14.7341 63.8023 13.2338 62.8562C13.11 62.7781 12.9863 62.7001 12.8588 62.6197C12.6084 62.4618 12.358 62.3039 12.1076 62.146C11.4874 61.7548 10.8671 61.3637 10.2468 60.9727C9.62671 60.5819 9.0068 60.1909 8.38694 59.7998C8.101 59.6194 7.81501 59.4391 7.52896 59.2589C7.13894 59.0132 6.74903 58.7673 6.3592 58.5214C6.2087 58.4264 6.05816 58.3316 5.90758 58.2368C5.69753 58.1045 5.48764 57.9721 5.27775 57.8396C5.09733 57.7258 5.09733 57.7258 4.91326 57.6098C4.80666 57.5406 4.70007 57.4713 4.59024 57.4C4.4988 57.3526 4.40735 57.3051 4.31313 57.2562C4.01008 56.9657 4.00573 56.762 4 56.3587C4.00206 56.2229 4.00206 56.2229 4.00415 56.0844C4.00325 55.9393 4.00325 55.9393 4.00233 55.7913C4.00094 55.4646 4.0033 55.138 4.00561 54.8113C4.00538 54.5763 4.00493 54.3413 4.00426 54.1064C4.00308 53.4574 4.00519 52.8084 4.00779 52.1594C4.01007 51.45 4.00931 50.7406 4.00893 50.0313C4.00866 48.6529 4.01107 47.2746 4.01441 45.8963C4.01816 44.3027 4.01859 42.7091 4.019 41.1155C4.02174 36.906 4.02903 32.6966 4.03575 28.4871C4.04652 19.0864 4.05728 9.68562 4.06837 0ZM6.54727 3.02769C6.47999 11.6661 6.41272 20.3045 6.34341 29.2046C6.31371 31.9326 6.28402 34.6607 6.25343 37.4714C6.24252 39.9158 6.24252 39.9158 6.23596 42.3603C6.23292 43.4497 6.22096 44.5385 6.20291 45.6277C6.18211 46.8847 6.17271 48.1411 6.17724 49.3982C6.1792 50.0412 6.17615 50.6831 6.15842 51.326C5.96735 53.8139 5.96735 53.8139 6.86873 56.0318C7.60118 56.7082 8.49833 57.1206 9.42682 57.4917C9.93988 57.7073 10.3772 57.9906 10.8283 58.3067C10.9796 58.4058 11.1313 58.5044 11.2834 58.6024C11.3602 58.6522 11.437 58.7019 11.5161 58.7532C12.3463 59.2868 13.1855 59.8074 14.0219 60.3319C14.6323 60.7151 15.2418 61.0997 15.8513 61.4842C15.9765 61.5632 16.1017 61.6422 16.2307 61.7236C16.4854 61.8842 16.7401 62.0449 16.9947 62.2055C17.6219 62.6012 18.2492 62.9968 18.8765 63.3923C19.1266 63.55 19.3766 63.7077 19.6267 63.8654C19.7505 63.9434 19.8743 64.0215 20.0018 64.1019C20.3769 64.3385 20.752 64.575 21.1271 64.8115C21.2508 64.8896 21.3746 64.9676 21.5021 65.048C21.7525 65.2059 22.0029 65.3638 22.2532 65.5217C22.8735 65.9129 23.4938 66.304 24.1141 66.695C25.5786 67.6181 27.0422 68.5425 28.5052 69.4678C29.8036 70.2888 31.103 71.1083 32.4026 71.9275C33.0257 72.3203 33.6487 72.7132 34.2718 73.1061C34.5218 73.2638 34.7719 73.4215 35.0219 73.5792C35.5221 73.8946 36.0222 74.21 36.5223 74.5254C36.6462 74.6035 36.7701 74.6816 36.8977 74.7621C37.1469 74.9192 37.3961 75.0764 37.6453 75.2336C38.2833 75.636 38.9214 76.0381 39.5598 76.4399C39.6891 76.5213 39.8185 76.6028 39.9518 76.6868C40.2065 76.8471 40.4615 77.0072 40.7166 77.1669C41.2757 77.5179 41.8304 77.872 42.374 78.2449C42.4638 78.3058 42.5536 78.3667 42.6462 78.4293C42.809 78.5404 42.9706 78.6533 43.1303 78.7684C43.3641 78.9349 43.3641 78.9349 43.7307 79.0985C44.2357 78.9536 44.6463 78.6984 45.0833 78.4189C45.2188 78.3327 45.3543 78.2465 45.4939 78.1577C45.64 78.0639 45.7862 77.9701 45.9323 77.8763C46.0847 77.7792 46.237 77.6822 46.3894 77.5852C46.701 77.3868 47.0125 77.1881 47.3239 76.9893C47.9808 76.5701 48.6404 76.1549 49.3001 75.7396C49.5466 75.5842 49.7931 75.4288 50.0395 75.2734C50.1609 75.197 50.2822 75.1205 50.4072 75.0417C51.0303 74.6489 51.6533 74.256 52.2764 73.8631C52.5264 73.7054 52.7765 73.5477 53.0266 73.39C53.1503 73.3119 53.2741 73.2339 53.4016 73.1535C53.7767 72.9169 54.1518 72.6804 54.5269 72.4438C54.6507 72.3658 54.7745 72.2877 54.9021 72.2073C55.152 72.0497 55.402 71.8921 55.6519 71.7345C56.279 71.3392 56.9059 70.9435 57.5323 70.5471C58.8962 69.6846 60.2651 68.8309 61.6417 67.9874C62.4019 67.5206 63.1549 67.0451 63.9023 66.5594C64.4808 66.1838 65.0638 65.8154 65.6493 65.4502C66.5262 64.9033 67.4012 64.3537 68.275 63.8023C68.4015 63.7225 68.5279 63.6428 68.6582 63.5606C68.9171 63.3972 69.176 63.2338 69.4349 63.0704C71.1051 62.0163 72.7758 60.9628 74.4484 59.9122C75.2778 59.3911 76.1064 58.8688 76.9348 58.3462C77.31 58.1096 77.6852 57.873 78.0603 57.6364C78.3128 57.4772 78.5653 57.3179 78.8178 57.1587C79.1821 56.9288 79.5466 56.6992 79.9112 56.4696C80.0218 56.3998 80.1325 56.3299 80.2465 56.258C80.3479 56.1941 80.4493 56.1303 80.5538 56.0645C80.6427 56.0085 80.7315 55.9525 80.8231 55.8948C81.0446 55.76 81.0446 55.76 81.3055 55.6338C81.3055 38.2738 81.3055 20.9138 81.3055 3.02769C56.6353 3.02769 31.9651 3.02769 6.54727 3.02769Z" fill="#2DB8EA"/>
</g>
<g filter="url(#filter3_ddd_67_7)">
<path d="M30.024 20.1883C30.3576 20.8335 30.1635 21.7234 30.0393 22.4078C30.0156 22.5399 29.992 22.6721 29.9676 22.8082C29.9432 22.9428 29.9187 23.0773 29.8935 23.216C29.8258 23.5985 29.7586 23.9811 29.6914 24.3637C29.6466 24.6194 29.6014 24.875 29.5559 25.1305C29.4334 25.8319 29.3366 26.5287 29.2695 27.237C29.237 27.5448 29.1811 27.8422 29.1107 28.1439C29.0039 28.6291 28.935 29.1052 28.8946 29.5996C28.8426 29.9505 28.7488 30.2866 28.6574 30.6295C28.5366 31.126 28.4628 31.6293 28.385 32.1335C28.3523 32.3417 28.3195 32.5498 28.2866 32.7579C28.2726 32.8486 28.2585 32.9393 28.244 33.0327C28.1927 33.3361 28.1293 33.6376 28.067 33.9391C29.66 33.9807 31.253 34.0224 32.8943 34.0652C32.8943 33.7738 32.8943 33.4824 32.8943 33.1822C32.9633 32.8507 32.9633 32.8507 33.0604 32.5228C33.3293 31.5413 33.5133 30.548 33.6982 29.5491C33.7584 29.2254 33.8201 28.902 33.882 28.5785C34.0825 27.5118 34.2338 26.4694 34.296 25.3852C34.3509 24.7229 34.4968 24.084 34.6474 23.4368C34.7044 23.1838 34.7613 22.9309 34.8182 22.6779C34.8603 22.4968 34.8603 22.4968 34.9032 22.312C34.9552 22.0754 35.0017 21.8376 35.0425 21.5989C35.0712 21.4324 35.0712 21.4324 35.1005 21.2626C35.1232 21.1158 35.1232 21.1158 35.1464 20.9661C35.2859 20.5705 35.4027 20.4263 35.7646 20.1883C36.2114 20.1129 36.6529 20.1176 37.1054 20.1213C37.2364 20.1208 37.3673 20.1203 37.5022 20.1198C37.7789 20.1195 38.0556 20.1204 38.3322 20.1225C38.7552 20.1252 39.1779 20.1226 39.6009 20.1193C39.8699 20.1197 40.1389 20.1203 40.4079 20.1213C40.5342 20.1203 40.6605 20.1193 40.7906 20.1182C41.3477 20.1257 41.6831 20.1427 42.1747 20.413C42.4185 20.6929 42.4185 20.6929 42.4826 20.9431C42.4705 21.0715 42.4705 21.0715 42.4582 21.2025C42.4508 21.2965 42.4434 21.3905 42.4358 21.4873C42.4191 21.6327 42.4191 21.6327 42.4021 21.781C42.3941 21.8789 42.386 21.9768 42.3777 22.0777C42.314 22.7873 42.314 22.7873 42.1575 23.0899C42.1307 23.3838 42.1098 23.6783 42.0923 23.9729C42.0415 24.828 42.0415 24.828 41.8966 25.1083C41.8711 25.3142 41.8463 25.5202 41.8255 25.7266C41.7153 26.8175 41.525 27.8881 41.3095 28.9639C41.2816 29.1033 41.2537 29.2428 41.225 29.3865C41.1093 29.9543 40.9913 30.519 40.8396 31.0789C40.7234 31.5382 40.6592 31.9791 40.6082 32.4489C40.5071 33.3077 40.359 34.1544 40.1923 35.0035C40.1582 35.1796 40.1582 35.1796 40.1234 35.3592C40.1016 35.468 40.0798 35.5768 40.0573 35.689C40.0378 35.7865 40.0182 35.8839 39.9981 35.9844C39.9396 36.2099 39.9396 36.2099 39.8091 36.336C39.7826 36.5252 39.7638 36.7154 39.7484 36.9057C39.7383 37.022 39.7281 37.1382 39.7176 37.258C39.6972 37.5034 39.6772 37.7488 39.6575 37.9942C39.642 38.1696 39.642 38.1696 39.6261 38.3486C39.6174 38.4554 39.6087 38.5623 39.5997 38.6724C39.5432 39.0156 39.4254 39.2962 39.2872 39.616C39.2198 39.9476 39.1604 40.2758 39.1078 40.6095C39.0745 40.8114 39.041 41.0133 39.0074 41.2151C38.9897 41.3229 38.9719 41.4306 38.9536 41.5417C38.8493 42.1647 38.7381 42.7866 38.6267 43.4085C38.595 43.5884 38.595 43.5884 38.5626 43.7719C38.4487 44.408 38.3191 45.0372 38.1704 45.6665C38.0595 46.1635 37.9967 46.6675 37.9255 47.171C37.8521 47.5637 37.8521 47.5637 37.7201 47.918C37.5511 48.4456 37.5244 48.9545 37.4851 49.5033C37.3663 50.9167 37.0845 52.2841 36.7538 53.6642C36.7039 53.8833 36.6599 54.1037 36.6223 54.325C36.4889 55.0716 36.4889 55.0716 36.1178 55.3877C34.8846 55.8196 33.4089 55.6615 32.1115 55.6376C31.9902 55.636 31.869 55.6344 31.7441 55.6328C31.3527 55.6267 30.9616 55.6168 30.5703 55.606C30.4449 55.6043 30.3194 55.6025 30.1902 55.6007C30.0726 55.5966 29.955 55.5925 29.8339 55.5883C29.6765 55.5843 29.6765 55.5843 29.516 55.5803C29.2412 55.5114 29.2412 55.5114 29.0075 55.2778C28.7833 54.8926 28.8594 54.6534 28.9476 54.2262C28.9739 54.0917 29.0001 53.9572 29.0271 53.8187C29.1107 53.4929 29.1107 53.4929 29.2412 53.3668C29.2686 53.0992 29.2892 52.8309 29.3064 52.5626C29.3346 52.1241 29.3583 51.7656 29.5021 51.3483C29.5253 51.1685 29.5435 50.988 29.5582 50.8072C29.5675 50.6999 29.5768 50.5926 29.5864 50.4821C29.5962 50.3673 29.6061 50.2524 29.6163 50.1341C29.7683 48.4991 30.0414 46.9378 30.4822 45.3521C30.7793 44.2258 30.8914 43.0647 31.0253 41.9118C31.0677 41.6345 31.0677 41.6345 31.1982 41.256C31.0404 41.257 31.0404 41.257 30.8794 41.258C30.3986 41.2607 29.9177 41.2623 29.4369 41.2639C29.1886 41.2655 29.1886 41.2655 28.9354 41.2671C28.1112 41.2692 27.3157 41.2561 26.5013 41.1299C26.5064 41.2395 26.5114 41.3491 26.5166 41.462C26.5008 41.9031 26.4091 42.2138 26.2567 42.6279C26.0461 43.2566 25.9146 43.8647 25.8408 44.5202C25.6862 45.8836 25.4487 47.1868 24.9308 48.4706C24.81 48.812 24.7392 49.1266 24.6824 49.4826C24.6608 49.615 24.6391 49.7474 24.6168 49.8837C24.5929 50.034 24.569 50.1843 24.5443 50.3391C24.4381 50.9948 24.3296 51.6501 24.2188 52.3051C24.1855 52.5045 24.1529 52.704 24.121 52.9036C24.0741 53.1961 24.0246 53.4882 23.9745 53.7802C23.9609 53.8688 23.9473 53.9574 23.9333 54.0487C23.8319 54.6207 23.6917 54.9959 23.2396 55.3853C22.5298 55.5609 21.7868 55.5298 21.0568 55.5282C20.9377 55.5283 20.8186 55.5284 20.6959 55.5285C20.4456 55.5286 20.1953 55.5284 19.945 55.5279C19.5619 55.5272 19.1789 55.5279 18.7958 55.5287C18.552 55.5286 18.3081 55.5284 18.0642 55.5282C17.8928 55.5285 17.8928 55.5285 17.7179 55.5289C17.6111 55.5285 17.5044 55.5281 17.3945 55.5277C17.301 55.5276 17.2076 55.5275 17.1113 55.5274C16.8309 55.5105 16.5908 55.4734 16.3248 55.3853C16.1159 54.9812 16.1471 54.5634 16.1944 54.1237C16.2884 53.8921 16.3831 53.6607 16.4828 53.4313C16.6471 52.9257 16.6871 52.4045 16.7459 51.8798C16.8276 51.179 16.9768 50.5084 17.1525 49.8236C17.2311 49.4859 17.279 49.1617 17.3115 48.8174C17.3686 48.3206 17.3686 48.3206 17.493 48.0894C17.6746 47.7257 17.7208 47.3812 17.7839 46.9822C17.797 46.9015 17.81 46.8209 17.8235 46.7377C17.8512 46.5658 17.8786 46.3938 17.9056 46.2217C17.9756 45.7765 18.0484 45.3317 18.1208 44.8869C18.1348 44.8003 18.1488 44.7137 18.1633 44.6245C18.3125 43.7077 18.4882 42.7974 18.6732 41.8868C18.8409 41.0613 18.9686 40.2561 19.0198 39.4155C19.0647 39.1114 19.0647 39.1114 19.1898 38.8752C19.332 38.5942 19.396 38.3513 19.4561 38.0445C19.4774 37.9362 19.4988 37.8279 19.5208 37.7163C19.5425 37.6017 19.5642 37.487 19.5865 37.3689C19.6094 37.2511 19.6322 37.1332 19.6558 37.0118C19.817 36.1638 19.9454 35.3171 20.0442 34.46C20.1084 34.0652 20.1084 34.0652 20.2343 33.7109C20.413 33.1782 20.4816 32.6482 20.5569 32.0941C20.5906 31.8575 20.6244 31.621 20.6583 31.3845C20.6838 31.2042 20.6838 31.2042 20.7097 31.0203C21.1085 28.1977 21.1085 28.1977 21.4625 27.0642C21.5867 26.5802 21.6094 26.0951 21.6429 25.5986C21.6799 25.1651 21.762 24.753 21.8565 24.3282C21.9549 23.8825 22.0434 23.4352 22.1307 22.9874C22.1475 22.9016 22.1644 22.8159 22.1818 22.7275C22.3177 22.0261 22.4242 21.3224 22.5185 20.6146C22.5412 20.5155 22.5639 20.4165 22.5873 20.3145C22.8811 20.1724 23.05 20.1691 23.3763 20.1624C23.5397 20.1586 23.5397 20.1586 23.7064 20.1548C23.8245 20.1527 23.9426 20.1506 24.0642 20.1484C24.1859 20.1458 24.3076 20.1432 24.433 20.1405C24.8234 20.1322 25.2139 20.1248 25.6044 20.1174C25.8646 20.1119 26.1249 20.1064 26.3851 20.1008C29.6238 20.0335 29.6238 20.0335 30.024 20.1883Z" fill="white"/>
<path d="M42.1858 9.67041C42.355 9.66952 42.5242 9.66864 42.6985 9.66772C42.8864 9.66866 43.0743 9.66964 43.2623 9.67065C43.4599 9.67034 43.6575 9.66987 43.8551 9.66925C44.3924 9.66806 44.9296 9.66925 45.4669 9.67093C46.0293 9.67236 46.5918 9.67184 47.1543 9.6716C48.0996 9.67148 49.0449 9.67288 49.9902 9.6752C51.0818 9.67787 52.1734 9.67832 53.2649 9.67753C54.3156 9.67681 55.3663 9.67753 56.4171 9.67894C56.8637 9.67953 57.3104 9.67964 57.7571 9.67937C58.2841 9.67913 58.811 9.68016 59.338 9.68215C59.5309 9.68269 59.7238 9.6828 59.9167 9.68245C60.8666 9.68097 61.7356 9.68741 62.6444 9.96992C62.751 10.5992 62.7948 11.1165 62.6637 11.743C62.562 12.2491 62.4675 12.755 62.3834 13.2642C62.3619 13.3929 62.3404 13.5216 62.3182 13.6543C62.2743 13.918 62.2308 14.1818 62.1877 14.4457C62.0808 15.081 61.9539 15.6693 61.7311 16.2776C61.6886 16.5663 61.6666 16.8512 61.6455 17.142C61.6006 17.413 61.6006 17.413 61.3397 17.9176C59.3161 17.9176 57.2925 17.9176 55.2077 17.9176C55.0785 18.7502 54.9493 19.5828 54.8163 20.4407C54.42 22.3269 54.42 22.3269 54.2052 22.9845C53.9321 23.8466 53.8172 24.6935 53.7379 25.5884C53.6916 26.0751 53.6288 26.4487 53.3811 26.8745C53.3365 27.1293 53.3365 27.1293 53.324 27.3949C53.2841 27.8198 53.2025 28.1889 53.0631 28.5934C52.8252 29.3024 52.7486 30.0197 52.6671 30.7572C52.5983 31.1638 52.5983 31.1638 52.3374 31.5422C52.2707 31.7908 52.2707 31.7908 52.2354 32.0636C52.2198 32.1654 52.2042 32.2672 52.188 32.3721C52.1727 32.4781 52.1574 32.5842 52.1417 32.6934C52.0494 33.315 51.9534 33.9298 51.8068 34.5418C51.7092 34.9505 51.6503 35.3407 51.6279 35.7605C51.591 36.2289 51.5133 36.6322 51.3589 37.0772C51.2004 37.5455 51.1367 37.9572 51.1142 38.4492C51.038 39.7067 50.6835 40.9185 50.3803 42.1392C50.0365 43.5358 49.7075 44.9101 49.5359 46.3372C49.4127 47.178 49.2021 48.0006 49.0034 48.8272C48.9049 49.251 48.825 49.6781 48.7485 50.1061C48.6843 50.3392 48.6843 50.3392 48.4233 50.7176C48.0444 50.8397 47.7843 50.8643 47.3891 50.8737C47.2584 50.877 47.1278 50.8803 46.9932 50.8838C46.7816 50.8881 46.7816 50.8881 46.5657 50.8926C46.3478 50.8974 46.3478 50.8974 46.1254 50.9023C45.8178 50.9089 45.5102 50.9151 45.2025 50.9211C44.7326 50.9305 44.2628 50.9419 43.793 50.9534C43.4941 50.9595 43.1952 50.9655 42.8963 50.9714C42.6858 50.9769 42.6858 50.9769 42.4712 50.9825C41.7965 50.9935 41.2196 51.0007 40.5952 50.7176C40.3343 50.4653 40.3343 50.4653 40.319 49.9651C40.3274 49.7559 40.3381 49.5468 40.3506 49.3378C40.3567 49.228 40.3629 49.1182 40.3692 49.0051C40.4202 48.2935 40.5621 47.7332 40.8587 47.0789C41.0798 46.3906 41.1074 45.6746 41.1584 44.9582C41.2014 44.3829 41.267 43.9331 41.5085 43.4007C41.5571 43.118 41.5971 42.8339 41.6308 42.5492C41.7284 41.7771 41.8537 41.0127 41.9977 40.2474C42.1027 39.6869 42.2023 39.1257 42.2974 38.5635C42.3207 38.4259 42.3441 38.2883 42.3681 38.1466C42.4142 37.8731 42.4601 37.5995 42.5056 37.3259C42.5372 37.1387 42.5372 37.1387 42.5696 36.9476C42.5883 36.8358 42.607 36.7239 42.6262 36.6086C42.6827 36.3361 42.6827 36.3361 42.8132 36.0838C42.8303 35.8817 42.8432 35.6792 42.854 35.4767C42.9134 34.7662 43.1074 34.1449 43.3376 33.4705C43.5 32.9444 43.5866 32.4207 43.6623 31.8773C43.7265 31.5422 43.7265 31.5422 43.8559 31.2554C44.0778 30.6749 44.0909 30.0637 44.1454 29.4503C44.1551 29.352 44.1649 29.2536 44.1749 29.1522C44.1868 29.0185 44.1868 29.0185 44.1989 28.8821C44.2483 28.6407 44.2483 28.6407 44.5093 28.2622C44.5759 28.0136 44.5759 28.0136 44.6112 27.7409C44.6268 27.6391 44.6425 27.5373 44.6586 27.4324C44.6739 27.3264 44.6892 27.2203 44.705 27.1111C44.8112 26.3956 44.934 25.6924 45.1022 24.9879C45.2092 24.523 45.2762 24.052 45.3492 23.5812C45.4226 23.2161 45.4226 23.2161 45.5576 22.8445C45.6957 22.4218 45.7234 22.0578 45.7406 21.6155C45.7819 20.9245 45.8979 20.3239 46.1093 19.665C46.2079 19.2958 46.252 18.9493 46.2828 18.5696C46.2932 18.4468 46.3035 18.3241 46.3142 18.1976C46.3213 18.1052 46.3285 18.0128 46.3358 17.9176C46.2585 17.9182 46.1812 17.9187 46.1016 17.9193C45.2974 17.9249 44.4931 17.9287 43.6889 17.9315C43.3887 17.9327 43.0885 17.9345 42.7883 17.9367C42.357 17.9397 41.9256 17.9411 41.4942 17.9423C41.2928 17.9442 41.2928 17.9442 41.0873 17.9462C40.962 17.9462 40.8366 17.9462 40.7075 17.9463C40.5423 17.9471 40.5423 17.9471 40.3739 17.948C40.0416 17.9144 39.8326 17.8381 39.5515 17.6653C39.2977 17.0715 39.4858 16.396 39.5841 15.7809C39.6023 15.6635 39.6204 15.5461 39.6391 15.4251C40.0346 12.932 40.0346 12.932 40.3424 12.3629C40.4989 12.0453 40.5053 11.7788 40.5218 11.4286C40.5643 10.8873 40.6232 10.5286 40.9866 10.0961C41.0651 9.99606 41.0651 9.99606 41.1451 9.89403C41.488 9.63432 41.754 9.67034 42.1858 9.67041Z" fill="white"/>
<path d="M58.468 20.1883C59.4665 20.1788 60.4651 20.1721 61.4637 20.1675C61.8036 20.1656 62.1436 20.1631 62.4835 20.1598C62.9712 20.1552 63.4589 20.153 63.9466 20.1514C64.0994 20.1494 64.2521 20.1475 64.4095 20.1455C64.5506 20.1454 64.6916 20.1454 64.8369 20.1454C65.0238 20.1441 65.0238 20.1441 65.2144 20.1428C65.313 20.1578 65.4116 20.1729 65.5133 20.1883C65.7816 20.5776 65.81 20.6688 65.8068 21.1108C65.8078 21.2506 65.8078 21.2506 65.8088 21.3932C65.7742 21.7022 65.7742 21.7022 65.657 22.025C65.4493 22.6524 65.3681 23.2909 65.2686 23.9414C65.1004 25.0013 64.9078 26.047 64.657 27.0913C64.3999 28.162 64.1695 29.2426 64.0185 30.3324C63.936 30.8594 63.8157 31.3712 63.6867 31.8891C63.6519 32.0318 63.6519 32.0318 63.6164 32.1774C63.5222 32.56 63.424 32.935 63.2953 33.3083C63.2642 33.5541 63.2382 33.8004 63.2153 34.047C63.0722 35.5015 62.9299 36.8983 62.5176 38.3057C62.2732 39.2165 62.1778 40.1625 62.0536 41.0941C61.9343 41.9686 61.7656 42.8134 61.5517 43.6707C61.4527 44.1011 61.4125 44.498 61.3954 44.9381C61.3668 45.458 61.3192 45.9445 61.1997 46.452C61.0449 47.118 61.0533 47.7673 61.0773 48.4468C61.7289 48.6139 62.3761 48.5866 63.0446 48.5808C63.1707 48.5803 63.2969 48.5799 63.4269 48.5794C63.8288 48.5778 64.2307 48.5755 64.6326 48.5729C65.1633 48.5696 65.694 48.5671 66.2247 48.5651C66.3476 48.564 66.4704 48.563 66.597 48.5619C66.7098 48.5615 66.8226 48.5611 66.9389 48.5606C67.0386 48.56 67.1383 48.5593 67.241 48.5586C67.4703 48.5729 67.4703 48.5729 67.6007 48.6991C67.6137 48.9932 67.6177 49.2878 67.6171 49.5822C67.6176 49.8242 67.6176 49.8242 67.6181 50.071C67.6007 50.4652 67.6007 50.4652 67.4703 50.5914C67.4214 50.9043 67.3782 51.2156 67.3398 51.5297C67.2267 52.4502 67.2267 52.4502 67.0789 52.736C67.0261 53.1278 66.979 53.5194 66.9387 53.9126C66.8684 54.4952 66.7341 54.9617 66.2961 55.3853C64.7204 55.5648 63.1198 55.5341 61.536 55.537C61.4059 55.5374 61.2757 55.5377 61.1417 55.5381C60.456 55.54 59.7703 55.5412 59.0846 55.5417C58.377 55.5424 57.6694 55.5455 56.9617 55.549C56.4158 55.5514 55.8698 55.552 55.3239 55.5522C55.0627 55.5526 54.8016 55.5536 54.5405 55.5553C54.1773 55.5574 53.8143 55.5572 53.4512 55.5564C53.3434 55.5575 53.2357 55.5587 53.1247 55.5599C52.3942 55.5547 52.3942 55.5547 52.1168 55.3483C51.8272 54.9861 51.7801 54.5675 51.8141 54.1237C51.9055 53.8957 51.9055 53.8957 51.9988 53.6632C52.2031 53.1479 52.3162 52.6468 52.4058 52.1033C52.422 52.0103 52.4382 51.9173 52.4549 51.8215C52.5059 51.5273 52.5555 51.2328 52.6051 50.9383C52.6387 50.743 52.6724 50.5477 52.7062 50.3524C52.827 49.6531 52.9456 48.9535 53.0631 48.2537C53.1755 47.5903 53.2956 46.9334 53.4531 46.2785C53.4856 46.1414 53.518 46.0043 53.5515 45.8631C53.6407 45.5452 53.6407 45.5452 53.7711 45.4191C53.9528 44.5708 54.0411 43.721 54.081 42.8566C54.1271 42.0699 54.2757 41.3618 54.4868 40.6057C54.6687 39.9514 54.7838 39.3041 54.8806 38.6339C54.9741 38.0484 55.1098 37.4735 55.2425 36.8953C55.3331 36.4787 55.4071 36.0627 55.4754 35.6422C55.5383 35.2577 55.6064 34.9236 55.7363 34.5541C55.8891 34.1011 55.9211 33.6652 55.957 33.1915C55.9891 32.9299 55.9891 32.9299 56.1196 32.8037C56.1445 32.6112 56.1618 32.4177 56.1756 32.2242C56.1852 32.1045 56.1948 31.9848 56.2047 31.8615C56.2237 31.6106 56.2421 31.3596 56.2597 31.1085C56.3171 30.4088 56.4352 29.8104 56.6853 29.1522C56.8153 28.7631 56.8307 28.385 56.8453 27.9783C56.8666 27.4149 56.9393 27.0132 57.1633 26.496C57.2167 26.1644 57.2167 26.1644 57.2367 25.8337C57.2807 25.2472 57.2807 25.2472 57.4242 25.1083C57.4731 24.7955 57.5163 24.4841 57.5547 24.1701C57.6678 23.2495 57.6678 23.2495 57.8156 22.9637C57.8797 22.5344 57.9327 22.1043 57.9859 21.6736C58.0567 21.3017 58.1389 21.0105 58.2779 20.6632C58.3135 20.5738 58.349 20.4844 58.3855 20.3924C58.4128 20.325 58.44 20.2577 58.468 20.1883Z" fill="white"/>
</g>
</g>
<defs>
<filter id="filter0_ddd_67_7" x="0" y="0" width="88" height="90" filterUnits="userSpaceOnUse" color-interpolation-filters="sRGB">
<feFlood flood-opacity="0" result="BackgroundImageFix"/>
<feColorMatrix in="SourceAlpha" type="matrix" values="0 0 0 0 0 0 0 0 0 0 0 0 0 0 0 0 0 0 127 0" result="hardAlpha"/>
<feOffset dy="4"/>
<feGaussianBlur stdDeviation="2"/>
<feComposite in2="hardAlpha" operator="out"/>
<feColorMatrix type="matrix" values="0 0 0 0 0 0 0 0 0 0 0 0 0 0 0 0 0 0 0.25 0"/>
<feBlend mode="normal" in2="BackgroundImageFix" result="effect1_dropShadow_67_7"/>
<feColorMatrix in="SourceAlpha" type="matrix" values="0 0 0 0 0 0 0 0 0 0 0 0 0 0 0 0 0 0 127 0" result="hardAlpha"/>
<feOffset dy="4"/>
<feGaussianBlur stdDeviation="2"/>
<feComposite in2="hardAlpha" operator="out"/>
<feColorMatrix type="matrix" values="0 0 0 0 0 0 0 0 0 0 0 0 0 0 0 0 0 0 0.25 0"/>
<feBlend mode="normal" in2="effect1_dropShadow_67_7" result="effect2_dropShadow_67_7"/>
<feColorMatrix in="SourceAlpha" type="matrix" values="0 0 0 0 0 0 0 0 0 0 0 0 0 0 0 0 0 0 127 0" result="hardAlpha"/>
<feOffset dy="4"/>
<feGaussianBlur stdDeviation="2"/>
<feComposite in2="hardAlpha" operator="out"/>
<feColorMatrix type="matrix" values="0 0 0 0 0 0 0 0 0 0 0 0 0 0 0 0 0 0 0.4 0"/>
<feBlend mode="normal" in2="effect2_dropShadow_67_7" result="effect3_dropShadow_67_7"/>
<feBlend mode="normal" in="SourceGraphic" in2="effect3_dropShadow_67_7" result="shape"/>
</filter>
<filter id="filter1_dd_67_7" x="0" y="0" width="88" height="90" filterUnits="userSpaceOnUse" color-interpolation-filters="sRGB">
<feFlood flood-opacity="0" result="BackgroundImageFix"/>
<feColorMatrix in="SourceAlpha" type="matrix" values="0 0 0 0 0 0 0 0 0 0 0 0 0 0 0 0 0 0 127 0" result="hardAlpha"/>
<feOffset dy="4"/>
<feGaussianBlur stdDeviation="2"/>
<feComposite in2="hardAlpha" operator="out"/>
<feColorMatrix type="matrix" values="0 0 0 0 0 0 0 0 0 0 0 0 0 0 0 0 0 0 0.25 0"/>
<feBlend mode="normal" in2="BackgroundImageFix" result="effect1_dropShadow_67_7"/>
<feColorMatrix in="SourceAlpha" type="matrix" values="0 0 0 0 0 0 0 0 0 0 0 0 0 0 0 0 0 0 127 0" result="hardAlpha"/>
<feOffset dy="4"/>
<feGaussianBlur stdDeviation="2"/>
<feComposite in2="hardAlpha" operator="out"/>
<feColorMatrix type="matrix" values="0 0 0 0 0 0 0 0 0 0 0 0 0 0 0 0 0 0 0.25 0"/>
<feBlend mode="normal" in2="effect1_dropShadow_67_7" result="effect2_dropShadow_67_7"/>
<feBlend mode="normal" in="SourceGraphic" in2="effect2_dropShadow_67_7" result="shape"/>
</filter>
<filter id="filter2_d_67_7" x="0" y="0" width="88" height="90" filterUnits="userSpaceOnUse" color-interpolation-filters="sRGB">
<feFlood flood-opacity="0" result="BackgroundImageFix"/>
<feColorMatrix in="SourceAlpha" type="matrix" values="0 0 0 0 0 0 0 0 0 0 0 0 0 0 0 0 0 0 127 0" result="hardAlpha"/>
<feOffset dy="4"/>
<feGaussianBlur stdDeviation="2"/>
<feComposite in2="hardAlpha" operator="out"/>
<feColorMatrix type="matrix" values="0 0 0 0 0 0 0 0 0 0 0 0 0 0 0 0 0 0 0.25 0"/>
<feBlend mode="normal" in2="BackgroundImageFix" result="effect1_dropShadow_67_7"/>
<feBlend mode="normal" in="SourceGraphic" in2="effect1_dropShadow_67_7" result="shape"/>
</filter>
<filter id="filter3_ddd_67_7" x="12.1597" y="9.66772" width="59.4584" height="54.0177" filterUnits="userSpaceOnUse" color-interpolation-filters="sRGB">
<feFlood flood-opacity="0" result="BackgroundImageFix"/>
<feColorMatrix in="SourceAlpha" type="matrix" values="0 0 0 0 0 0 0 0 0 0 0 0 0 0 0 0 0 0 127 0" result="hardAlpha"/>
<feOffset dy="4"/>
<feGaussianBlur stdDeviation="2"/>
<feComposite in2="hardAlpha" operator="out"/>
<feColorMatrix type="matrix" values="0 0 0 0 0 0 0 0 0 0 0 0 0 0 0 0 0 0 0.25 0"/>
<feBlend mode="normal" in2="BackgroundImageFix" result="effect1_dropShadow_67_7"/>
<feColorMatrix in="SourceAlpha" type="matrix" values="0 0 0 0 0 0 0 0 0 0 0 0 0 0 0 0 0 0 127 0" result="hardAlpha"/>
<feOffset dy="4"/>
<feGaussianBlur stdDeviation="2"/>
<feComposite in2="hardAlpha" operator="out"/>
<feColorMatrix type="matrix" values="0 0 0 0 0 0 0 0 0 0 0 0 0 0 0 0 0 0 0.25 0"/>
<feBlend mode="normal" in2="effect1_dropShadow_67_7" result="effect2_dropShadow_67_7"/>
<feColorMatrix in="SourceAlpha" type="matrix" values="0 0 0 0 0 0 0 0 0 0 0 0 0 0 0 0 0 0 127 0" result="hardAlpha"/>
<feOffset dy="4"/>
<feGaussianBlur stdDeviation="2"/>
<feComposite in2="hardAlpha" operator="out"/>
<feColorMatrix type="matrix" values="0 0 0 0 0 0 0 0 0 0 0 0 0 0 0 0 0 0 0.25 0"/>
<feBlend mode="normal" in2="effect2_dropShadow_67_7" result="effect3_dropShadow_67_7"/>
<feBlend mode="normal" in="SourceGraphic" in2="effect3_dropShadow_67_7" result="shape"/>
</filter>
</defs>
</svg>
