<svg width="804" height="698" viewBox="0 0 804 698" fill="none" xmlns="http://www.w3.org/2000/svg">
<path d="M446 649.5C442.697 650.054 440.759 647.731 438.49 646.013C422.175 633.656 405.898 621.246 389.453 609.064C385.541 606.166 383.872 602.911 383.912 597.999C384.106 574.001 384.638 549.978 383.823 526.006C382.984 501.33 383.23 476.668 382.977 452C382.894 443.919 383.6 443.737 391.512 444.336C397.822 444.813 403.703 446.434 409.471 448.578C414.87 450.584 420.189 449.133 425.493 448.862C428.995 448.683 432.5 448.659 436 448.5" stroke="#363636" stroke-width="7" stroke-linecap="round" stroke-linejoin="round"/>
<path d="M570 457.5C580.094 457.292 589.716 460.165 599.508 461.955C601.461 462.312 603.455 462.538 605.496 462.608C611.096 462.799 614.22 466.489 613.396 471.984C613.041 474.353 612.976 476.675 613.035 478.999C613.591 500.848 612.083 522.663 611.736 544.496C611.48 560.658 611.619 576.851 610.855 592.993C610.287 605.001 610.075 616.992 609.978 629C609.939 633.94 606.877 636.435 601.003 637.027C591.454 637.988 581.961 639.356 572.464 640.754C565.888 641.721 559.197 642.598 552.502 643.034C546.974 643.394 541.501 644.541 536.049 645.337C532.245 645.893 528.314 645.923 524.449 646.769C515.105 648.814 505.511 649.755 495.997 650.977C484.843 652.409 473.674 653.731 462.495 654.953C459.818 655.246 457.298 656.273 454.496 656.057C448.58 655.601 445.718 651.989 447.573 646.525C448.163 644.788 447.965 643.157 447.966 641.5C448.007 589.5 447.994 537.5 448.021 485.5C448.022 483.5 448.333 481.5 448.5 479.5" stroke="#363636" stroke-width="7" stroke-linecap="round" stroke-linejoin="round"/>
<path d="M351 308C354.744 305.346 358.918 304.362 363.49 303.903C373.688 302.88 383.87 301.553 393.976 299.858C396.791 299.386 398.936 297.038 399.041 293.501C399.229 287.164 399.989 280.831 399.947 274.5C399.698 236.315 401.928 198.182 402.341 160.004C402.537 141.862 402.077 123.645 403.449 105.496C403.767 101.286 400.699 98.5417 394.996 97.5211C384.343 95.6145 373.667 93.8329 363 92.0007C362.001 91.829 361 91.6667 360 91.5" stroke="#363636" stroke-width="7" stroke-linecap="round" stroke-linejoin="round"/>
<path d="M185.5 78.5C181.842 78.3369 178.25 78.7757 175.02 80.5364C171.323 82.5521 167.993 80.6248 164.496 80.0227C154.991 78.3859 145.783 75.0517 136.058 74.8934C132.24 81.879 134.372 89.3235 134.104 96.5039C133.907 101.817 134.937 107.166 134.955 112.5C135.05 141.333 134.814 170.168 135.064 198.999C135.237 218.999 136.347 238.992 135.929 258.999C135.856 262.526 137.667 264.657 140.028 266.464C150.798 274.713 161.699 282.791 172.49 291.013C182.036 298.286 191.488 305.683 201.01 312.987C203.066 314.565 205.163 316.175 208 316" stroke="#363636" stroke-width="7" stroke-linecap="round" stroke-linejoin="round"/>
<path d="M638.5 297C647.592 295.156 656.73 293.678 665.997 292.965C673.799 292.364 675.073 290.88 674.986 283C674.712 258.158 676.01 233.34 676.279 208.503C676.429 194.686 676.74 180.835 677.032 167.001C677.056 165.843 676.994 164.721 677.4 163.468C679.051 158.379 677.244 155.429 671.995 154.531C663.515 153.081 654.985 151.921 646.506 150.465C641.835 149.663 637.004 149.745 632.5 148" stroke="#363636" stroke-width="7" stroke-linecap="round" stroke-linejoin="round"/>
<path d="M545.5 144.5C536.774 142.417 528.016 140.829 518.998 142.488C515.19 143.189 511.64 141.834 507.982 141.089C505.052 140.492 502.284 139.493 498.981 139.75C494.628 140.087 494.077 142.112 493.975 145.499C493.723 153.861 494.725 162.171 494.912 170.502C495.231 184.661 495 198.833 495 213C495 225.667 494.96 238.334 495.023 251C495.044 255.167 495.274 259.337 495.521 263.499C495.688 266.323 497.01 268.258 499.432 270.09C512.409 279.9 525.033 290.18 538.092 299.876C541.432 302.356 545.347 304.112 548.53 306.967C550.765 308.972 553.426 307.987 556.005 307.526C561.156 306.605 566.317 305.697 571.507 305.056C574.177 304.727 576.932 304.874 579.5 306" stroke="#363636" stroke-width="7" stroke-linecap="round" stroke-linejoin="round"/>
<path d="M211.5 116C210.124 119.202 209.962 122.55 209.965 126C210.013 186.833 210 247.667 210 308.5C210 310 210.296 311.573 209.948 312.987C208.518 318.813 211.388 322.813 217.501 322.975C224.238 323.153 230.738 321.077 237.494 320.834C243.855 320.606 250.165 318.99 256.5 318.002C267.982 316.211 279.624 315.648 291.035 313.163C294.302 312.451 298.147 312.124 301.5 314" stroke="#363636" stroke-width="7" stroke-linecap="round" stroke-linejoin="round"/>
<path d="M571 158.5C568.159 165.806 561.262 164.747 555.494 165.971C554.537 166.175 553.5 165.987 552.5 166.002C547.111 166.086 546.005 167.171 546.004 172.5C545.997 212.833 545.979 253.167 546.042 293.5C546.047 296.637 545.771 299.629 544.5 302.5" stroke="#363636" stroke-width="7" stroke-linecap="round" stroke-linejoin="round"/>
<path d="M459.5 449C458.833 442 458.24 434.992 457.474 428.003C456.955 423.265 455.279 418.599 452.37 415.108C443.996 405.057 435.922 394.578 425.427 386.596C418.656 381.446 410.838 378.997 401.979 380.367C398.446 380.914 396.256 382.77 394 385" stroke="#363636" stroke-width="10" stroke-linecap="round" stroke-linejoin="round"/>
<path d="M588 358.5C576.289 354.574 570.049 343.586 573.045 331.511C575.895 320.027 579.453 308.776 584.433 297.969C588.844 288.396 595.396 281.115 605.544 278.149C612.271 276.182 620.16 276.238 625.713 279.932C629.993 282.78 634.115 287.675 636.465 293.016C638.702 298.101 639.314 303.686 638.365 308.976C636.148 321.345 631.263 332.974 626.336 344.429C622.219 353.999 615.176 361.226 604.511 364.042C601.604 364.81 598.813 364.608 596.006 363.973C593.643 363.438 591.333 362.667 589 362" stroke="#363636" stroke-width="10" stroke-linecap="round" stroke-linejoin="round"/>
<path d="M581 457.5C586.423 445.794 591.377 433.88 594.924 421.478C597.991 410.752 597.64 400.31 589.479 391.52C586.003 387.776 581.079 386.491 576.473 385.088C562.365 380.789 550.757 386.125 543.621 401.058C536.214 416.561 531.56 433.073 528.5 450" stroke="#363636" stroke-width="10" stroke-linecap="round" stroke-linejoin="round"/>
<path d="M323.5 273.5C318.715 272.541 314.672 275.212 310.567 276.686C305.373 278.551 301.814 287.901 303.055 294.49C303.65 297.648 303.976 301.453 306.611 303.345C309.664 305.537 307.905 307.906 306.885 308.88C297.316 318.024 301.232 328.417 304.167 338.451C305.342 342.47 308.433 345.916 311.507 348.993C320.682 358.174 327.595 369.9 340.039 375.411C346.155 378.119 352.589 379.601 359.541 377.646C362.78 376.735 365.274 375.283 367.5 373" stroke="#363636" stroke-width="10" stroke-linecap="round" stroke-linejoin="round"/>
<path d="M280.5 420.5C272.833 428 265.393 435.75 257.451 442.946C242.785 456.235 230.722 471.709 219.044 487.532C217.841 489.162 217.03 491.088 215.5 492.5" stroke="#363636" stroke-width="15" stroke-linecap="round" stroke-linejoin="round"/>
<path d="M276 99C271.607 109.381 262.13 109.681 252.998 110.475C239.953 111.609 226.938 112.954 213.993 114.953C212.711 115.151 211.483 115.537 209.946 114.587C201.559 109.404 193.057 104.399 184.482 99.5318C177.582 95.6153 173.787 89.8351 173 82" stroke="#363636" stroke-width="10" stroke-linecap="round" stroke-linejoin="round"/>
<path d="M296 433.5C295.302 448.591 291.182 463.144 288.816 477.971C287.884 483.805 286.059 489.545 285.5 495.5" stroke="#363636" stroke-width="12" stroke-linecap="round" stroke-linejoin="round"/>
<path d="M309 305C323.16 296.725 337.803 297.37 349.871 307.651C353.267 310.545 356.005 314.516 358.904 318.078C364.832 325.362 372.814 331.133 375.994 340.502C378.108 346.732 380.312 352.929 377.054 359.527C376.159 361.34 374.476 362.351 373.5 364" stroke="#363636" stroke-width="10" stroke-linecap="round" stroke-linejoin="round"/>
<path d="M386 392C377.764 398.589 379.54 411.454 384.613 421.443C386.404 424.971 388.708 428.425 391.983 431.022C396.296 434.443 398.441 439.08 399 444.5" stroke="#363636" stroke-width="10" stroke-linecap="round" stroke-linejoin="round"/>
<path d="M348.5 353.5C355.096 352.413 359.18 355.244 363.73 360.292C375.485 373.332 387.713 385.968 399.477 399.02C402.142 401.977 405.352 400.928 408.5 400.75" stroke="#363636" stroke-width="20" stroke-linecap="round" stroke-linejoin="round"/>
<path d="M224.5 257.5C225.667 262.333 226.633 267.228 228.082 271.975C228.838 274.451 227.571 276.794 228.104 278.974C229.362 284.116 229.677 289.198 229.729 294.498C229.779 299.624 233.003 302.228 238.006 302.96C247.45 304.341 256.923 305.545 266.5 305.5" stroke="#363636" stroke-width="9" stroke-linecap="round" stroke-linejoin="round"/>
<path d="M264.5 401.5C254.082 408.567 242.323 413.171 231.478 419.462C227.617 421.701 223.5 423.5 219.5 425.5" stroke="#363636" stroke-width="14" stroke-linecap="round" stroke-linejoin="round"/>
<path d="M492 468.5C488.896 476.271 481.583 475.406 475.488 475.823C466.943 476.408 458.489 477.593 450.012 478.6C446.857 478.974 444.294 477.427 442.109 476.291C435.039 472.613 428.035 468.76 421.074 464.868C415.684 461.853 416.169 455.85 416 450.5" stroke="#363636" stroke-width="7" stroke-linecap="round" stroke-linejoin="round"/>
<path d="M150.5 231C149.006 232.806 148.606 234.692 149.429 237.025C149.971 238.559 149.909 240.33 149.988 242.001C150.613 255.215 160.185 262.702 168.489 271.011C169.239 271.761 169.833 272.667 170.5 273.5" stroke="#363636" stroke-width="5" stroke-linecap="round" stroke-linejoin="round"/>
<path d="M466.5 641C466.911 634.91 467.464 634.884 473.508 635.404C484.474 636.349 495.415 638.229 506.505 637.047C508.135 636.874 509.833 637.333 511.5 637.5" stroke="#363636" stroke-width="3" stroke-linecap="round" stroke-linejoin="round"/>
<path d="M517.5 143.5C517.644 148.773 519.796 152.19 524.917 154.671C532.488 158.341 539.5 163.167 546.75 167.5" stroke="#363636" stroke-width="6" stroke-linecap="round" stroke-linejoin="round"/>
<path d="M325 300C325.27 301.656 324.755 303.3 325.429 305.028C326.518 307.822 326.432 310.453 323.539 312.554C320.753 314.577 317.799 314.606 315.046 313.396C312.336 312.205 310 310.167 307.5 308.5" stroke="#363636" stroke-width="7" stroke-linecap="round" stroke-linejoin="round"/>
<path d="M599.5 341C596.616 340.516 594.764 341.488 593.974 344.493C592.324 350.768 589.605 356.7 587.626 362.88C585.631 369.107 582.872 375.285 580.531 381.512C577.732 388.962 575.167 396.5 572.5 404" stroke="#363636" stroke-width="19" stroke-linecap="round" stroke-linejoin="round"/>
<path d="M554.5 264.5C556.51 272.406 556.078 280.472 555.942 288.499C555.894 291.353 557.94 293.368 558.205 296.023C562.435 295.67 566.191 298.844 570.5 297.5" stroke="#363636" stroke-width="5" stroke-linecap="round" stroke-linejoin="round"/>
<path d="M507 242.75C506.75 242.333 506.126 242.315 505.784 243.017C503.655 247.386 505.633 260.108 509.017 263.483C512.271 266.729 515.667 269.833 519 273" stroke="#363636" stroke-width="5" stroke-linecap="round" stroke-linejoin="round"/>
<path d="M396.5 593.5C394.484 596.46 394.658 598.596 397.3 601.672C400.24 605.095 403.604 608.073 406.5 611.5" stroke="#363636" stroke-width="3" stroke-linecap="round" stroke-linejoin="round"/>
<path d="M146.5 211.5C147.483 217.205 148.281 222.942 149.98 228.506C150.997 231.837 154.431 232.394 156.5 234.5" stroke="#363636" stroke-width="7" stroke-linecap="round" stroke-linejoin="round"/>
<path d="M503.5 225.5C503.577 231.278 505.276 236.817 506 242.5" stroke="#363636" stroke-width="3" stroke-linecap="round" stroke-linejoin="round"/>
<path d="M463.5 604C463.167 605 462.248 606.308 462.588 606.953C467.06 615.435 462.857 626.117 469.5 634" stroke="#363636" stroke-width="11" stroke-linecap="round" stroke-linejoin="round"/>
<path d="M614 278.5C614 280.833 614.149 283.179 613.963 285.497C613.721 288.515 614.76 291.063 617.541 291.857C619.763 292.491 622.505 292.646 624.507 290.507C625.634 289.303 626.833 288.167 628 287" stroke="#363636" stroke-width="7" stroke-linecap="round" stroke-linejoin="round"/>
<path d="M627 256.5C627.059 261.379 626.252 266.36 628.511 270.995C630.165 274.389 627.446 276.991 627 280" stroke="#363636" stroke-width="7" stroke-linecap="round" stroke-linejoin="round"/>
<path d="M460.5 590.5C460.667 591.333 460.852 592.164 460.997 593C462.027 598.936 463.698 604.456 470 607" stroke="#363636" stroke-width="3" stroke-linecap="round" stroke-linejoin="round"/>
<path d="M396 579.75C393.709 580.134 393.676 581.998 394.065 583.483C395.27 588.084 394.846 593.766 401.01 595.462C402.23 595.798 402.118 596.745 402.5 597.5" stroke="#363636" stroke-width="5" stroke-linecap="round" stroke-linejoin="round"/>
<path d="M392.5 567.5C393.333 571.5 394.167 575.5 395 579.5" stroke="#363636" stroke-width="3" stroke-linecap="round" stroke-linejoin="round"/>
<path d="M613 126.5C613.329 130.227 612.604 133.858 612 137.5" stroke="#363636" stroke-width="3" stroke-linecap="round" stroke-linejoin="round"/>
<path d="M477.5 621.5C473.936 619.748 470.592 617.46 466.5 617" stroke="#363636" stroke-width="3" stroke-linecap="round" stroke-linejoin="round"/>
<path d="M241.5 290.5C237.986 289.376 235.132 286.271 231 287" stroke="#363636" stroke-width="4" stroke-linecap="round" stroke-linejoin="round"/>
<path d="M602 485.5C601.028 488.116 601.699 490.835 601.5 493.5" stroke="#363636" stroke-width="3" stroke-linecap="round" stroke-linejoin="round"/>
<path d="M229.5 275C231.996 275.287 234.157 276.299 236 278" stroke="#363636" stroke-width="3" stroke-linecap="round" stroke-linejoin="round"/>
</svg>
