<svg width="736" height="1024" viewBox="0 0 736 1024" fill="none" xmlns="http://www.w3.org/2000/svg">
<path d="M393.18 106.347C394.134 90.4067 393.811 74.9451 392.834 59.3474C380.251 84.1963 368.172 109.165 358.292 135.14C356.852 138.926 355.067 142.499 351.647 144.907C346.963 148.206 343.04 147.114 340.851 141.816C338.312 135.673 339.118 129.357 340.432 123.127C342.09 115.273 344.744 107.698 348.23 100.491C358.311 79.6482 368.566 58.8891 378.796 38.1187C383.308 28.9576 389.355 20.7827 395.521 12.7067C397.769 9.76223 401.024 10.1279 403.477 13.1043C430.594 46.017 451.113 83.3298 473.946 119.082C497.797 156.427 520.983 194.198 544.38 231.832C570.242 273.428 596.172 314.984 621.781 356.736C647.388 398.485 672.595 440.479 698.075 482.306C703.379 491.013 704.945 500.236 703.068 510.12C701.345 519.188 696.109 524.151 687.048 525.231C684.2 525.57 682.276 527.489 679.923 528.66C653.815 541.653 628.341 555.789 603.334 570.797C575.325 587.607 548.028 605.484 521.381 624.37C487.658 648.271 454.862 673.36 423.242 700.001C413.331 708.352 402.441 711.033 389.956 704.431C382.149 700.303 374.266 696.331 366.842 691.564C340.743 674.807 313.273 660.424 286.455 644.913C250.116 623.896 213.898 602.664 177.043 582.555C164.908 575.933 152.569 569.687 140.358 563.204C129.888 557.644 120.699 550.821 115.502 539.567C107.826 522.944 112.021 507.397 120.271 492.772C150.392 439.376 181.403 386.494 213.133 334.035C241.326 287.424 268.849 240.403 298.007 194.382C304.855 183.573 310.755 172.084 319.607 162.614C322.238 159.799 325.045 157.212 328.258 155.089C331.915 152.673 333.821 153.427 335.273 157.588C336.628 161.468 335.535 165.152 334.585 168.843C330.156 186.055 323.061 202.239 314.634 217.775C291.128 261.116 267.222 304.24 243.635 347.537C216.461 397.419 189.053 447.169 160.939 496.528C160.142 497.926 158.995 499.238 159.1 501.087C161.017 501.901 162.376 500.631 163.822 500.033C211.723 480.231 258.709 458.446 304.845 434.833C329.17 422.383 352.545 408.14 376.903 395.822C386.382 391.028 389.534 385.781 389.104 375.449C388.327 356.816 389.882 338.192 394.588 319.988C395.177 317.708 395.431 315.018 398.434 314.921C401.383 314.826 402.019 317.508 402.782 319.683C407.113 332.019 409.006 344.851 410.261 357.783C411.225 367.717 411.931 377.677 412.666 387.631C412.921 391.085 414.426 393.095 417.646 394.831C476.482 426.535 538.622 449.63 603.26 466.183C616.795 469.649 630.535 472.316 644.19 475.31C645.939 475.694 648.005 476.409 649.288 474.636C650.581 472.849 649.226 471.118 648.316 469.569C636.675 449.75 624.919 429.998 613.357 410.133C583.608 359.021 553.941 307.861 524.242 256.719C493.289 203.419 463.194 149.62 431.188 96.9331C424.016 85.1269 417.407 72.997 410.899 60.6332C415.973 93.7879 413.892 127.192 414.658 160.477C415.232 185.426 416.316 210.464 413.201 235.361C412.203 243.339 409.547 250.907 406.102 258.17C405.248 259.968 404.323 262.028 401.942 261.987C399.411 261.943 398.266 259.91 397.449 257.858C393.214 247.228 390.846 236.134 390.904 224.737C391.009 204.416 391.269 184.082 392.149 163.784C392.972 144.793 392.334 125.795 393.18 106.347ZM520.945 519.481C506.394 530.329 492.301 541.75 478.516 553.546C461.067 568.476 443.723 583.53 426.297 598.487C424.099 600.374 423.196 602.543 423.234 605.456C423.307 611.11 423.433 616.781 422.565 622.409C422.363 623.72 422.32 625.102 424.546 626.356C473.882 584.386 525.036 544.161 576.68 503.507C570.426 499.992 564.096 499.119 558.19 497.059C555.384 496.081 553.064 496.358 550.7 498.068C540.992 505.091 531.244 512.06 520.945 519.481ZM309.691 503.193C285.403 525.576 261.884 548.774 236.768 570.959C241.254 574.873 246.139 576.333 250.273 579.007C253.149 580.867 255.246 580.594 257.588 577.977C261.134 574.014 265.02 570.351 268.817 566.616C287.81 547.932 308.176 530.748 327.755 512.706C347.09 494.888 366.417 477.063 385.721 459.214C386.798 458.218 388.359 457.03 388.468 455.82C389.134 448.445 389.08 441.051 387.563 433.185C361.941 456.772 336.071 479.736 309.691 503.193ZM364.525 491.036C330.783 522.282 297.041 553.528 263.034 585.02C268.116 589.211 273.479 590.518 277.8 593.537C281.642 596.222 284.069 595.314 287.049 592.029C297.451 580.564 308.503 569.719 319.826 559.161C341.857 538.619 363.92 518.112 385.946 497.565C387.385 496.222 389.365 494.962 389.41 492.845C389.571 485.312 389.473 477.772 389.473 470.235C388.816 470.049 388.158 469.862 387.501 469.676C380.014 476.636 372.528 483.595 364.525 491.036ZM470.94 521.471C456.204 533.96 441.457 546.435 426.749 558.957C425.378 560.124 423.426 561.258 423.376 563.139C423.181 570.366 423.297 577.6 423.297 584.832C423.844 585.105 424.391 585.377 424.939 585.65C463.288 554.081 503.587 524.955 542.084 492.148C532.089 488.622 523.39 485.553 515.688 482.836C500.424 496.022 485.956 508.52 470.94 521.471ZM347.796 455.43C348.713 454.189 350.496 453.57 350.663 451.101C346.429 452.993 342.43 454.545 338.648 456.511C322.213 465.053 304.416 470.514 289.718 482.963C262.999 505.596 237.848 529.867 212.188 553.615C211.28 554.455 209.921 555.174 210.274 557.226C214.389 559.55 218.761 561.914 223.024 564.461C226.322 566.431 228.612 565.626 231.315 562.973C240.464 553.994 249.636 545.003 259.292 536.582C289.299 510.413 318.298 483.154 347.796 455.43ZM518.8 575.254C549.49 553.949 580.672 533.37 611.91 512.525C606.304 510.382 600.885 508.962 595.494 507.444C592.739 506.668 590.457 507.158 588.024 508.802C576.7 516.458 566.138 525.116 555.372 533.494C532.119 551.587 508.954 569.794 485.897 588.135C465.055 604.714 444.399 621.529 423.673 638.255C421.063 640.362 420.313 642.936 422.177 646.927C453.79 622.12 485.522 598.241 518.8 575.254ZM456.712 488.221C445.836 497.268 435.053 506.433 424.021 515.286C421.05 517.671 419.923 520.177 420.29 523.826C420.924 530.116 421.275 536.434 421.868 542.729C422.016 544.305 421.871 546.153 424.449 547.596C450.836 525.387 477.493 503.026 503.577 479.939C502.848 478.944 502.647 478.405 502.263 478.184C495.444 474.268 487.822 472.24 480.684 469.066C478.877 468.262 477.973 469.815 476.882 470.758C470.334 476.421 463.796 482.096 456.712 488.221ZM310.856 581.374C304.396 587.483 297.937 593.592 291.43 599.746C294.36 603.075 298.205 603.746 301.134 605.876C305.067 608.735 307.939 608.01 311.271 604.338C324.023 590.279 337.869 577.312 352.125 564.783C363.744 554.572 375.338 544.333 386.915 534.074C388.765 532.435 390.675 530.86 390.452 527.87C390.118 523.395 390.097 518.897 389.889 514.411C389.821 512.965 390.13 511.195 388.358 510.532C386.692 509.908 385.546 511.165 384.451 512.175C373.196 522.547 361.868 532.843 350.727 543.338C337.531 555.771 324.5 568.378 310.856 581.374ZM349.489 581.003C338.362 591.593 327.234 602.182 315.56 613.291C321.586 616.581 326.592 619.172 331.445 622.022C333.945 623.491 335.641 622.998 337.539 621.013C342.616 615.701 348.453 611.242 354.209 606.712C365.728 597.648 376.94 588.222 387.972 578.575C389.824 576.956 390.972 575.208 390.923 572.59C390.788 565.263 390.874 557.932 390.798 550.603C390.781 549.008 391.052 547.204 388.355 545.623C375.722 557.121 362.865 568.824 349.489 581.003ZM205.985 523.506C198.799 529.56 191.613 535.613 183.822 542.177C188.186 544.786 192 546.789 195.506 549.234C199.56 552.062 202.345 551.209 205.702 547.728C218.536 534.419 232.45 522.241 246.234 509.93C254.02 502.976 261.617 495.812 269.3 488.743C269.08 488.382 268.861 488.022 268.641 487.661C253.113 495.631 235.215 498.529 221.671 510.799C216.866 515.151 211.606 519 205.985 523.506ZM424.851 500.233C438.82 487.599 453.768 476.123 469.049 464.078C462.32 460.634 456.519 457.744 450.802 454.697C448.749 453.602 447.383 454.162 446.057 455.78C439.692 463.547 432.287 470.275 424.381 476.375C419.384 480.231 417.141 484.689 418.196 490.932C418.864 494.889 417.131 499.295 420.25 502.759C422.159 502.782 423.049 501.368 424.851 500.233ZM376.988 627.472C378.338 626.233 379.54 624.762 381.06 623.79C393.019 616.151 389.4 604.021 389.963 593.112C389.987 592.656 389.225 592.159 388.562 591.359C373.358 602.985 359.119 615.304 345.624 628.212C346.751 630.546 348.359 631.188 349.862 631.807C354.911 633.887 359.285 639.652 364.337 638.676C369.293 637.718 372.371 631.602 376.988 627.472ZM424.659 440.886C421.15 438.523 417.327 439.193 416.726 443.019C415.495 450.864 415.778 458.908 417.702 467.244C425.23 460.863 432.094 455.045 439.436 448.822C434.335 446.073 429.827 443.644 424.659 440.886ZM193.44 518.123C183.769 521.825 174.098 525.528 164.356 529.257C165.723 532.415 168.029 532.891 169.698 534.167C173.842 537.336 177.308 536.711 181.108 533.208C186.115 528.592 191.624 524.521 196.871 520.16C198.154 519.094 199.723 518.147 200.166 516.14C197.686 516.01 195.988 517.196 193.44 518.123ZM386.142 641.802C386.68 639.403 387.18 637.006 385.979 634.682C383.416 634.478 382.12 636.259 380.646 637.425C378.256 639.314 374.152 640.624 374.729 644.132C375.321 647.728 379.642 648.062 382.611 649.368C382.996 649.538 383.561 649.299 384.04 649.25C385.741 647.295 385.538 644.865 386.142 641.802Z" fill="#363636"/>
<path d="M549.547 662.546C573.626 645.493 597.474 628.735 621.178 611.778C645.996 594.023 672.255 578.559 698.338 562.811C699.617 562.038 701.026 561.484 702.343 560.769C711.465 555.812 716.428 560.463 719.227 570.094C721.248 577.053 719.301 583.509 716.324 589.878C709.808 603.821 701.623 616.742 692.87 629.344C665.508 668.737 638.214 708.178 610.806 747.539C590.633 776.509 570.265 805.343 550.089 834.312C526.772 867.793 503.628 901.394 480.301 934.868C462.304 960.693 444.223 986.46 425.999 1012.12C420.831 1019.4 413.873 1023.96 404.393 1023.35C401.294 1023.15 398.099 1022.47 396.167 1020.22C392.752 1016.25 388.227 1014.61 383.773 1012.41C375.893 1008.53 370.582 1001.62 366.28 994.292C344.875 957.818 317.671 925.478 293.067 891.297C264.069 851.011 234.335 811.253 204.679 771.445C175.621 732.438 146.522 693.467 119.489 653.007C115.233 646.636 111.121 640.168 106.926 633.755C101.648 625.688 99.9457 616.542 99.7233 607.211C99.509 598.216 103.674 595.537 112.103 598.495C130.017 604.781 145.924 614.884 161.912 624.824C192.605 643.905 223.383 662.852 253.97 682.101C299.5 710.754 344.946 739.541 390.265 768.525C394.738 771.385 397.516 771.098 401.602 768.097C450.331 732.3 499.877 697.645 549.547 662.546ZM499.846 839.366C547.499 774.51 595.151 709.654 642.804 644.797C639.536 644.672 637.719 646.391 635.755 647.82C596.691 676.237 557.69 704.741 518.559 733.067C483.205 758.66 447.723 784.075 412.256 809.511C409.979 811.144 408.92 812.935 409.242 815.782C410.026 822.72 411 829.666 411.229 836.631C412.311 869.591 414.48 902.492 416.386 935.407C416.642 939.818 417.28 944.207 417.903 950.146C445.649 912.65 472.545 876.302 499.846 839.366ZM186.429 693.1C207.182 720.429 227.84 747.832 248.715 775.067C271.516 804.815 294.519 834.408 317.433 864.069C338.615 891.487 359.789 918.911 380.998 946.307C381.829 947.382 382.389 949.061 385.667 948.536C385.667 938.91 385.751 929.135 385.65 919.362C385.433 898.211 386.175 877.062 385.011 855.903C384.327 843.456 384.089 830.929 385.612 818.465C385.995 815.334 386.027 812.375 382.619 810.193C365.789 799.412 349.122 788.378 332.353 777.501C280.222 743.687 228.171 709.752 176.754 674.857C175.369 673.917 174.075 672.532 171.007 673.08C176.315 679.965 181.158 686.247 186.429 693.1Z" fill="#363636"/>
<path d="M397.247 270.719C399.051 269.014 400.803 269.498 400.47 271.387C399.428 277.314 398.685 283.204 400.625 289.774C394.386 287.195 393.511 280.071 397.247 270.719Z" fill="#363636"/>
</svg>
