<svg version="1.1" id="Layer_1" xmlns="http://www.w3.org/2000/svg" xmlns:xlink="http://www.w3.org/1999/xlink" x="0px" y="0px"
	 width="100%" viewBox="0 0 182 182" enable-background="new 0 0 182 182" xml:space="preserve">
<path fill="none" opacity="1.000000" stroke="#000000" stroke-linecap="round" stroke-linejoin="round" stroke-width="8.000000"
	d="
M125.000000,95.000000 
	C131.244507,91.644669 138.399338,91.980850 145.045776,90.167801 
	C150.736847,88.615379 156.007202,86.445274 160.974304,83.457291 
	C164.406647,81.392555 164.323135,76.528908 160.994339,74.007469 
	C155.788727,70.064407 149.658020,68.037704 143.473465,66.615341 
	C136.253708,64.954895 128.757431,64.491745 121.544838,62.807926 
	C119.292099,62.282013 118.343964,63.559772 117.050232,64.116692 
	C112.828033,65.934250 108.984344,67.790977 104.447372,64.574226 
	C100.679779,61.902969 95.793510,61.116756 94.662910,55.062954 
	C94.187653,52.518154 89.699066,50.927376 87.554924,48.452415 
	C80.356880,40.143814 71.116791,34.752495 61.454002,30.095442 
	C56.015644,27.474384 47.209789,30.711395 46.141624,35.531387 
	C45.346977,39.117168 46.155533,43.129204 47.637882,46.438232 
	C49.784195,51.229424 51.229424,56.281727 53.215652,61.116810 
	C55.292301,66.171989 58.240284,69.180061 63.000000,71.000000 
"/>
<path fill="none" opacity="1.000000" stroke="#000000" stroke-linecap="round" stroke-linejoin="round" stroke-width="5.000000"
	d="
M86.000000,116.500000 
	C77.173843,123.704750 67.774017,130.028122 57.498116,134.996109 
	C52.224957,137.545456 45.054710,135.533569 44.681549,130.985107 
	C44.414360,127.728386 45.281693,124.088303 46.628189,121.056938 
	C48.692257,116.410110 49.444328,111.290070 52.384235,106.922081 
	C54.161789,104.281067 51.892818,100.412903 54.000000,97.500000 
"/>
<path fill="none" opacity="1.000000" stroke="#000000" stroke-linecap="round" stroke-linejoin="round" stroke-width="5.000000"
	d="
M129.500000,23.500000 
	C118.223976,22.221642 109.691307,28.142708 101.564774,34.581753 
	C96.874580,38.298027 92.833336,42.833340 88.500008,47.000004 
"/>
<path fill="none" opacity="1.000000" stroke="#000000" stroke-linecap="round" stroke-linejoin="round" stroke-width="10.000000"
	d="
M21.500000,87.500000 
	C27.313726,91.784309 33.769066,94.425415 41.000839,94.989212 
	C45.996464,95.378693 51.001110,95.651413 55.998917,96.014885 
	C56.839928,96.076042 57.726902,96.193687 58.490120,96.522896 
	C63.091373,98.507645 67.580925,98.351723 72.000000,96.000000 
"/>
<path fill="none" opacity="1.000000" stroke="#000000" stroke-linecap="round" stroke-linejoin="round" stroke-width="6.000000"
	d="
M127.000000,24.000000 
	C128.351837,30.707026 126.510002,37.060253 125.061516,43.513809 
	C123.658516,49.764736 120.346245,55.476463 120.000000,62.000000 
"/>
<path fill="none" opacity="1.000000" stroke="#000000" stroke-linecap="round" stroke-linejoin="round" stroke-width="8.000000"
	d="
M54.000000,65.500000 
	C47.625885,70.816010 39.073559,70.222664 31.758352,73.452736 
	C24.767891,76.539398 21.845615,80.454689 20.473032,86.994339 
	C20.341700,87.620071 19.833334,87.666664 19.500000,87.250000 
"/>
<path fill="none" opacity="1.000000" stroke="#000000" stroke-linecap="round" stroke-linejoin="round" stroke-width="8.000000"
	d="
M115.500000,137.000000 
	C117.895386,140.165543 121.810287,140.714279 125.019119,142.464951 
	C128.841599,144.550415 134.615356,143.785873 137.418991,140.432281 
	C139.793304,137.592239 141.782043,134.882492 138.794556,130.307648 
	C136.485321,126.771454 137.143951,121.413986 135.927292,117.020134 
	C134.097000,110.410149 131.213058,104.259201 126.000000,99.500000 
"/>
<path fill="none" opacity="1.000000" stroke="#000000" stroke-linecap="round" stroke-linejoin="round" stroke-width="11.000000"
	d="
M109.500000,67.500000 
	C109.214714,70.082481 109.263298,72.754807 110.565193,74.961540 
	C112.826813,78.795006 112.692192,82.922104 112.428268,86.995354 
	C112.102249,92.026779 107.797745,93.536209 103.972740,94.924919 
	C99.421860,96.577156 94.674194,97.693825 89.997345,98.990425 
	C86.893181,99.851036 84.595795,100.962181 85.901695,105.031548 
	C86.483589,106.844810 86.091133,109.005081 85.980019,110.998886 
	C85.781296,114.564636 86.753410,116.734283 90.364204,118.743973 
	C94.452881,121.019653 97.578476,125.089050 100.975815,128.523926 
	C103.827232,131.406860 106.852867,133.791534 110.988335,134.562576 
	C112.096199,134.769119 113.061539,135.740128 114.423027,136.559143 
	C116.610466,133.662781 119.857880,134.266724 122.990677,135.037872 
	C127.150642,136.061859 130.788818,135.760864 133.500000,132.000000 
"/>
<path fill="none" opacity="1.000000" stroke="#000000" stroke-linecap="round" stroke-linejoin="round" stroke-width="3.000000"
	d="
M141.500000,148.500000 
	C142.535431,151.708130 140.580704,153.315094 137.997269,153.369125 
	C135.009033,153.431610 131.888138,152.846100 129.025558,151.920898 
	C124.446831,150.441025 124.131065,149.196091 126.000000,144.000000 
"/>
<path fill="none" opacity="1.000000" stroke="#000000" stroke-linecap="round" stroke-linejoin="round" stroke-width="3.000000"
	d="
M105.000000,95.500000 
	C104.896698,100.579025 104.039688,105.253532 100.163918,109.162521 
	C99.352242,109.981155 97.222214,111.358017 98.000000,113.500000 
"/>
<path fill="none" opacity="1.000000" stroke="#000000" stroke-linecap="round" stroke-linejoin="round" stroke-width="11.000000"
	d="
M98.500000,77.500000 
	C89.913757,77.500000 86.952972,80.414146 87.022842,88.999817 
	C87.051331,92.500938 87.333336,96.000000 87.500000,99.500000 
"/>
<path fill="none" opacity="1.000000" stroke="#000000" stroke-linecap="round" stroke-linejoin="round" stroke-width="10.000000"
	d="
M87.000000,49.500000 
	C84.157150,53.326302 80.394661,56.148361 78.069305,60.783947 
	C76.196381,64.517624 70.586296,66.477104 66.469093,68.948509 
	C63.807365,70.546227 63.168579,72.699257 63.492252,75.500893 
	C64.009758,79.980324 63.498352,84.223991 59.980667,87.479111 
	C57.586689,89.694389 57.078499,92.487770 57.000000,95.500000 
"/>
<path fill="none" opacity="1.000000" stroke="#000000" stroke-linecap="round" stroke-linejoin="round" stroke-width="8.000000"
	d="
M79.000000,61.500000 
	C84.646500,63.583920 90.155525,63.399483 95.500000,60.500000 
"/>
<path fill="none" opacity="1.000000" stroke="#000000" stroke-linecap="round" stroke-linejoin="round" stroke-width="7.000000"
	d="
M64.000000,83.500000 
	C66.388878,84.777794 68.765961,86.751778 69.337708,89.040543 
	C71.495522,97.678520 79.084663,98.998367 85.500000,102.000000 
"/>
<path fill="none" opacity="1.000000" stroke="#000000" stroke-linecap="round" stroke-linejoin="round" stroke-width="2.000000"
	d="
M105.000000,133.500000 
	C103.883797,138.010620 106.532860,140.826874 109.500000,143.500000 
"/>
<path fill="none" opacity="1.000000" stroke="#000000" stroke-linecap="round" stroke-linejoin="round" stroke-width="3.000000"
	d="
M140.500000,100.500000 
	C137.994751,101.860878 134.867645,99.905197 132.500000,102.000000 
"/>
<path fill="none" opacity="1.000000" stroke="#000000" stroke-linecap="round" stroke-linejoin="round" stroke-width="3.000000"
	d="
M146.000000,139.500000 
	C145.372299,136.867950 143.750656,135.478348 141.000000,135.500000 
"/>
<path fill="none" opacity="1.000000" stroke="#000000" stroke-linecap="round" stroke-linejoin="round" stroke-width="3.000000"
	d="
M53.000000,34.000000 
	C55.236908,36.152618 53.059967,39.188007 54.500000,41.500000 
"/>
<path fill="none" opacity="1.000000" stroke="#000000" stroke-linecap="round" stroke-linejoin="round" stroke-width="2.000000"
	d="
M146.500000,144.500000 
	C144.769928,147.706512 141.503586,147.840500 138.500000,148.500000 
"/>
</svg>