<svg width="200" height="206" viewBox="0 0 200 206" fill="none" xmlns="http://www.w3.org/2000/svg">
<path d="M16.1191 84.4943C19.3022 81.5292 22.9865 80.8284 27.0019 81.747C29.0619 82.2182 30.511 83.5637 31.2878 85.5757C31.4928 86.1066 31.7283 86.6256 32.11 87.5294C32.0681 85.1131 31.729 83.0977 32.3197 81.1194C33.4237 77.4223 37.9792 74.5505 41.7963 75.1653C45.1809 75.7105 47.495 79.8281 46.1799 83.0338C45.3082 85.1587 44.2107 87.1572 42.6149 88.847C42.2582 89.2248 41.9699 89.6673 41.4318 90.3618C43.2468 90.1121 44.7687 90.1046 46.2923 90.1404C47.1043 90.1594 47.0949 89.4765 47.1566 88.8788C47.3363 87.1393 47.4722 85.3909 47.7584 83.6682C48.0214 82.0855 49.0369 81.5312 50.9415 81.731C52.3594 81.8797 52.7497 82.4254 52.8345 84.1347C52.9292 86.0429 52.6241 87.9211 52.4825 89.8102C52.4099 90.7795 52.6806 91.3833 53.6334 91.6954C56.5761 92.6594 56.9881 95.0827 56.5355 98.1722C56.3741 99.274 56.0529 100.352 55.8131 101.443C55.5823 102.492 55.9395 102.974 57.0822 102.947C59.4135 102.894 61.7017 102.431 64.0371 102.353C66.614 102.267 69.186 102.3 71.7603 102.277C73.9431 102.257 76.1252 102.16 78.3076 102.096C78.737 102.084 79.1728 102.083 79.6219 101.613C77.4135 99.7512 74.8725 98.558 72.4338 97.2068C71.9683 96.9489 71.4627 96.7599 70.9662 96.5628C68.8135 95.7081 67.9045 94.0296 67.7069 91.8085C67.5152 89.6531 67.6574 87.5368 68.2325 85.4559C68.8302 83.2934 68.8628 81.0284 69.346 78.8683C70.1942 75.0764 71.0625 71.2872 71.2726 67.4128C71.4567 64.017 71.6169 60.6334 72.1382 57.2658C72.8727 52.5198 73.5606 47.7675 74.5607 43.0673C74.6711 42.5481 74.7985 42.0075 74.765 41.4867C74.532 37.8632 75.3547 34.3229 75.6501 30.7447C75.8062 28.855 76.5057 26.9457 77.282 25.188C78.2663 22.9594 80.5626 22.4648 82.6538 21.8246C86.1383 20.7579 89.6292 21.3937 93.0256 22.1243C98.2437 23.2466 103.511 24.0834 108.738 25.1405C115.091 26.4255 121.127 28.7746 127.239 30.8359C134.228 33.1928 141.414 34.967 148.203 37.9221C151.418 39.3214 154.447 41.0759 157.564 42.6637C160.127 43.9696 162.85 44.8693 165.551 45.827C166.042 46.0012 166.616 46.0297 166.829 46.6471C166.537 47.4724 165.964 47.0658 165.508 46.9291C161.874 45.8391 158.288 44.6018 154.944 42.7895C148.669 39.3881 141.983 37.1128 135.158 35.1072C127.943 32.9867 120.825 30.5333 113.648 28.2781C108.723 26.7304 103.571 26.2606 98.5418 25.2086C95.2634 24.5229 91.9712 23.9252 88.6613 23.4494C85.7638 23.0329 82.9544 23.5103 80.3095 24.8201C79.7232 25.1104 79.1283 25.5068 79.0302 26.1411C78.6891 28.3471 77.6811 30.3526 77.421 32.6133C76.751 38.4365 76.5281 44.2935 75.3645 50.0898C74.2522 55.6304 73.4043 61.2558 73.2467 66.9732C73.1516 70.4256 72.8698 73.9345 71.6907 77.2997C70.7914 79.8663 71.1398 82.7016 70.3472 85.3217C69.7635 87.2511 69.6081 89.2288 69.6768 91.2321C69.7346 92.917 70.3119 94.2176 72.0326 94.8722C76.386 96.5282 79.9766 99.5429 84.0377 101.726C86.1866 102.881 88.434 103.762 90.739 104.553C93.7266 105.577 96.6374 106.876 99.3462 108.464C102.89 110.541 106.763 111.835 110.399 113.659C112.695 114.81 114.849 116.237 117.126 117.443C121.896 119.972 126.922 121.939 131.78 124.271C132.786 124.754 133.753 125.319 134.731 125.858C137.026 127.125 139.302 128.416 141.785 129.316C144.861 130.432 147.512 132.383 150.38 133.909C151.715 134.62 153.052 135.293 154.5 135.736C156.533 136.357 158.234 135.595 158.919 133.617C160.462 129.165 162.15 124.714 162.898 120.075C163.466 116.561 164.773 113.366 165.86 110.06C167.534 104.967 168.403 99.7098 169.193 94.4225C169.644 91.4049 170.557 88.4591 171.082 85.4494C171.838 81.1033 172.599 76.7457 173.046 72.3611C173.491 67.9961 175.231 63.9068 175.507 59.5328C175.666 57.018 175.942 54.4903 175.461 51.9839C175.278 51.026 174.615 50.3832 173.725 49.959C172.485 49.368 171.129 49.1701 169.837 48.7585C169.159 48.5424 168.417 48.3012 168.689 47.4059C168.941 46.5779 169.682 46.8133 170.295 46.9657C173.045 47.6496 175.691 48.5672 178.001 50.2884C178.462 50.6314 179.003 50.9043 179.548 51.0877C182.744 52.1632 184.171 54.4216 184.068 57.7342C184.037 58.7073 184.123 59.7059 183.933 60.6479C183.298 63.8027 183.029 66.9929 182.764 70.1917C182.468 73.7739 181.366 77.2392 181.129 80.8354C180.855 85.0054 179.79 89.0708 179.555 93.2548C179.409 95.8365 178.169 98.204 177.654 100.73C176.424 106.769 174.516 112.645 173.442 118.73C172.871 121.966 171.612 125.061 170.954 128.309C170.106 132.499 167.631 135.149 163.57 136.929C159.39 138.761 155.559 138.532 151.641 136.858C149.602 135.988 147.632 134.904 145.768 133.658C144.269 132.655 142.654 131.851 140.968 131.217C138.273 130.205 135.801 128.766 133.278 127.405C130.72 126.024 128.034 124.88 125.397 123.646C124.344 123.153 123.694 123.467 123.606 124.669C123.429 127.062 122.515 128.957 120.492 130.436C118.381 131.979 116.572 133.918 114.457 135.482C112.809 136.7 111.11 136.896 109.265 135.993C104.294 133.56 99.3192 131.133 94.3371 128.721C93.527 128.329 93.0151 127.84 93.0051 126.847C92.9951 125.864 93.2785 125.145 94.1866 124.714C96.1602 123.776 98.1132 122.793 100.109 121.906C101.292 121.379 101.882 120.676 101.964 119.276C102.071 117.452 102.908 115.731 103.085 113.88C103.144 113.264 103.095 112.91 102.513 112.583C99.509 110.896 96.5849 109.069 93.3369 107.841C92.3712 107.476 91.9427 107.558 91.6762 108.604C90.3944 113.635 89.2463 118.693 88.5478 123.843C88.3179 125.538 87.8851 127.184 87.2873 128.779C86.9815 129.594 87.1623 130.016 87.9538 130.366C97.8796 134.749 107.118 140.482 116.881 145.19C118.106 145.781 119.024 145.739 120.074 144.952C124.355 141.738 128.812 138.801 133.588 136.359C134.545 135.869 135.339 135.668 136.285 136.315C138.937 138.126 141.735 139.698 144.526 141.28C152.172 145.615 159.432 150.623 167.39 154.417C168.848 155.112 170.126 156.153 171.179 157.352C173.232 159.692 175.719 161.436 178.314 163.078C179.829 164.038 179.867 165.097 178.386 166.126C177.394 166.816 176.304 167.374 175.23 167.938C167.916 171.78 160.634 175.684 153.262 179.411C148.575 181.781 143.895 184.114 139.539 187.088C136.258 189.327 132.159 189.773 128.682 191.647C128.216 191.898 127.646 191.731 127.15 191.44C123.041 189.032 118.923 186.638 114.813 184.231C114.48 184.036 114.151 183.81 113.874 183.542C112.504 182.214 111.228 181.39 109.038 182.193C106.699 183.05 104.367 181.765 102.5 180.429C100.066 178.687 98.1906 178.719 95.6754 180.444C92.6016 182.553 89.0096 183.817 85.2987 184.527C82.5478 185.053 80.8179 187.127 78.7826 188.736C78.0483 189.316 77.3206 189.84 76.3921 190.066C75.7577 190.221 75.3304 190.024 75.0939 189.456C74.8673 188.912 75.1308 188.42 75.5998 188.237C77.243 187.595 78.3824 186.294 79.6392 185.175C81.6463 183.388 84.0667 182.665 86.5808 182.026C91.6045 180.751 96.0757 178.389 100.013 174.996C101.423 173.782 102.424 172.339 102.957 170.571C103.119 170.032 103.243 169.492 103.94 169.517C104.726 169.545 104.795 170.157 104.88 170.758C105.083 172.197 105.384 172.372 106.769 171.902C109.941 170.824 112.205 166.152 110.994 163.054C110.282 161.231 108.848 160.976 106.114 161.745C105.337 161.964 104.655 162.509 103.917 162.879C103.299 163.189 102.562 163.557 102.136 162.739C101.737 161.972 102.371 161.477 102.968 161.108C103.421 160.827 103.915 160.613 104.388 160.364C104.775 160.161 105.19 159.994 105.536 159.735C106.973 158.661 107.611 157.269 107.149 156.302C106.523 154.99 104.242 154.084 102.715 154.588C101.266 155.065 100.059 155.995 98.7975 156.815C98.3365 157.115 97.8534 157.489 97.3906 156.92C96.9286 156.352 97.18 155.791 97.6896 155.4C98.5764 154.72 99.4962 154.082 100.419 153.451C101.126 152.966 101.793 152.517 101.394 151.463C101.02 150.474 100.465 149.775 99.3312 149.698C98.3297 149.63 97.4156 149.89 96.5264 150.331C95.2211 150.98 93.91 151.619 92.5789 152.211C91.931 152.499 91.1624 152.934 90.5881 152.17C89.9905 151.375 90.353 150.524 90.9137 149.897C92.249 148.404 93.9697 147.455 95.9257 147.142C97.5997 146.874 99.0946 146.343 100.458 145.34C101.251 144.755 101.675 144.072 101.377 143.099C101.089 142.157 100.286 142.123 99.4783 142.118C96.5526 142.101 93.6643 142.407 90.8816 143.331C89.4493 143.807 88.2545 144.65 87.1499 145.767C84.4167 148.532 82.1671 151.587 80.5216 155.114C80.0753 156.071 79.3741 156.914 78.7511 157.781C78.38 158.298 77.8285 158.614 77.2434 158.201C76.5878 157.739 76.9642 157.207 77.2927 156.685C78.6424 154.542 79.5403 152.304 78.9962 149.668C78.7989 148.712 78.3523 148.401 77.4465 148.309C75.4812 148.111 74.0507 148.921 72.9904 150.494C70.679 153.925 68.5091 157.464 66.8202 161.228C64.5548 166.277 60.6052 169.87 56.847 173.661C56.585 173.926 56.2973 174.236 55.7735 174.066C55.501 173.289 56.1907 172.981 56.5856 172.565C60.1503 168.819 63.5022 164.933 65.4733 160.042C66.0711 158.559 66.0462 158.272 64.5881 157.57C64.4132 157.486 64.1916 157.451 64.0654 157.321C61.7972 154.989 59.5829 155.562 56.8509 156.807C53.4794 158.343 49.7042 158.931 46.2217 160.321C43.9606 161.223 42.0356 162.564 40.3836 164.315C39.5068 165.244 38.6388 166.152 37.3708 166.53C36.8528 166.684 36.3738 166.61 36.1282 166.083C35.9314 165.661 35.9472 165.159 36.3865 164.907C38.6092 163.636 39.9278 161.339 42.1219 159.996C45.1536 158.139 48.4333 156.889 51.8415 156.211C56.8312 155.218 60.9451 152.664 64.8767 149.699C66.0976 148.779 67.2056 147.596 67.3305 145.879C67.4344 144.45 66.7265 143.781 65.3207 144.008C62.3375 144.49 59.5486 145.367 57.5275 147.834C57.1902 148.245 56.7244 148.673 56.1531 148.472C55.3385 148.185 55.1316 147.569 55.7154 146.874C57.9321 144.236 59.7509 141.265 62.3563 138.953C63.5381 137.904 64.7897 137.154 66.4464 137.752C66.5363 137.785 66.6369 137.789 66.733 137.803C69.0045 138.127 70.5841 137.583 70.9801 136.19C71.5582 134.157 69.7725 133.7 68.5934 132.883C68.0368 132.498 67.4088 132.216 66.8144 131.886C65.1683 130.97 63.5887 131.091 61.9951 132.079C60.5764 132.958 59.5076 134.26 58.1221 135.168C57.5297 135.555 56.8826 136.213 56.1737 135.574C55.4382 134.912 56.0833 134.278 56.4451 133.646C57.9988 130.934 60.5411 129.274 62.9329 127.449C63.3015 127.168 63.9075 127.014 63.7916 126.4C63.6715 125.765 63.0929 125.628 62.5504 125.586C61.0473 125.469 59.5382 125.399 58.039 125.601C57.0224 125.738 56.2659 126.382 55.6239 127.123C54.4822 128.44 53.1286 129.587 52.3143 131.174C52.2487 131.302 52.1525 131.42 52.0491 131.521C51.4137 132.14 50.7742 133.311 49.8189 132.572C48.7248 131.725 49.9134 130.988 50.4258 130.299C51.1222 129.363 51.9518 128.505 52.5157 127.496C53.4044 125.906 55.0006 125.09 56.2678 123.926C54.5084 122.032 51.4542 122.244 49.3166 124.264C47.7327 125.761 46.0527 127.149 44.8536 129.025C44.4215 129.701 43.714 130.22 43.0711 130.734C42.5964 131.114 42.0262 131.633 41.3806 131.145C40.6465 130.59 40.8988 129.821 41.2293 129.154C41.9397 127.72 42.9588 126.55 44.4605 125.918C45.5732 125.45 46.3849 124.623 47.235 123.826C48.0755 123.038 47.7486 122.608 46.8051 122.322C45.648 121.971 44.5141 122.151 43.3537 122.34C38.5055 123.128 35.0147 125.577 33.2893 130.323C32.2928 133.065 31.1933 135.768 30.1638 138.497C28.8447 141.994 26.4604 144.621 23.4878 146.774C23.2541 146.944 22.9906 147.08 22.7241 147.191C22.6158 147.236 22.4624 147.173 22.2585 147.152C22.3037 146.435 22.8909 146.183 23.2765 145.813C25.5441 143.64 27.5167 141.271 28.6681 138.286C29.1166 137.124 28.9992 136.356 27.7295 135.871C26.0487 135.23 24.7987 133.982 23.6471 132.651C22.1678 130.941 22.1402 128.902 22.5644 126.851C22.821 125.61 23.9173 125.132 25.0227 124.813C28.7724 123.729 32.2537 122.007 35.7505 120.321C35.9635 120.218 36.1642 120.09 36.3545 119.982C35.2826 115.222 33.7086 110.714 31.6182 106.361C30.3376 103.694 29.3734 100.873 28.2998 98.1085C27.7066 96.5813 28.6224 95.5233 29.5708 94.5756C29.3366 93.747 28.8218 93.8927 28.2675 93.9838C25.3662 94.4609 22.4732 94.3513 19.5726 93.8974C17.2838 93.5393 15.4572 92.471 14.7308 90.2616C14.06 88.2213 14.6478 86.2481 16.1191 84.4943ZM131.525 153.182C133.36 154.368 135.169 155.6 137.038 156.73C139.605 158.28 140.236 162.721 137.951 164.662C136.07 166.259 134.094 167.884 131.893 168.934C126.033 171.728 120.573 175.124 115.333 178.924C113.464 180.279 113.364 180.646 115.229 181.943C119.143 184.665 123.404 186.811 127.515 189.206C128.039 189.511 128.504 189.366 129.033 189.183C134.093 187.431 138.738 184.91 143.413 182.279C153.695 176.495 164.298 171.286 174.766 165.833C175.381 165.513 176.136 165.355 176.516 164.573C176.192 164.284 175.943 163.966 175.618 163.787C173.236 162.479 171.354 160.59 169.521 158.632C168.516 157.558 167.331 156.699 166.029 156.029C160.241 153.049 154.552 149.926 149.144 146.262C144.807 143.324 140.016 141.092 135.699 138.094C134.998 137.607 134.427 137.906 133.805 138.203C129.407 140.303 125.365 142.999 121.302 145.662C120.94 145.899 120.553 146.129 120.468 146.76C124.067 148.847 127.706 150.958 131.525 153.182ZM55.4563 121.188C56.3064 121.525 57.4029 121.615 57.8138 122.505C58.4105 123.797 59.3475 123.645 60.4601 123.61C61.7256 123.57 63.2154 123.433 64.2243 124.01C66.1612 125.119 66.1976 126.531 64.8137 128.373C64.6695 128.565 64.4882 128.746 64.6804 129.123C66.9871 129.679 69.1159 130.826 71.1134 132.209C73.6092 133.936 73.7342 136.748 71.4472 138.742C69.9316 140.064 68.0924 139.86 66.312 139.707C64.4505 139.546 62.9732 140.407 62.2181 142.321C63.1765 142.631 64.0319 142.154 64.9125 141.992C67.7456 141.473 69.6976 143.335 69.3136 146.18C69.1454 147.426 68.6649 148.504 67.878 149.476C67.5927 149.828 67.0578 150.234 67.4179 150.736C67.8455 151.331 68.5186 151.711 69.2397 151.871C69.9612 152.03 70.2341 151.413 70.5563 150.93C70.7991 150.566 71.0622 150.215 71.2891 149.841C72.4243 147.972 74.2921 147.024 76.1798 146.04C77.3049 146.671 77.8998 146.68 79.4834 146.027C79.6503 147.363 80.71 148.219 81.0969 149.553C82.1778 148.968 82.6018 148.043 83.2831 147.382C85.0812 145.64 86.446 143.47 88.8071 142.283C91.8377 140.759 95.1735 140.695 98.3858 140.11C99.3122 139.942 100.638 139.842 101.498 140.284C103.426 141.273 104.27 145.032 102.205 146.264C101.605 146.622 100.95 147.009 100.645 147.718C102.712 149.719 103.098 150.108 103.22 151.3C103.316 152.244 103.749 152.466 104.593 152.607C107.682 153.123 109.287 155.194 108.962 158.164C108.874 158.97 109.045 159.475 109.907 159.659C111.208 159.936 112.138 160.841 112.525 161.992C113.372 164.515 113.843 167.102 112.024 169.487C111.188 170.582 110.357 171.679 109.536 172.76C110.11 173.279 110.501 172.946 110.894 172.818C115.304 171.382 118.925 168.534 122.802 166.142C123.57 165.668 124.251 164.487 124.729 164.484C126.12 164.477 126.959 163.623 127.987 163.057C129.257 162.358 130.467 161.529 131.645 160.708C132.963 159.789 134.647 159.461 135.758 158.175C134.044 156.373 131.69 155.65 129.814 154.177C126.808 151.815 123.201 150.443 119.873 148.612C117.294 147.193 114.594 145.998 111.978 144.645C105.534 141.313 99.1088 137.943 92.672 134.596C90.2918 133.359 87.7703 132.436 85.3694 131.222C81.7187 129.377 77.7855 128.115 74.2054 126.1C71.4215 124.533 68.6539 122.934 65.9258 121.272C65.2505 120.861 64.6689 120.645 63.9777 121.045C63.8158 120.644 63.7813 120.202 63.5594 120.066C61.95 119.076 60.3119 118.113 58.4084 117.808C58.0905 117.757 57.8117 117.864 57.5044 117.576C55.5828 115.777 51.0776 115.084 48.7618 117.435C48.5291 117.671 48.283 117.694 47.9909 117.741C45.9575 118.069 44.1787 119.076 42.2965 119.811C42.4826 120.679 42.9206 120.736 43.6129 120.555C45.5324 120.052 47.3451 120.327 48.9271 121.587C49.3689 121.939 49.7309 121.831 50.1206 121.599C51.7455 120.632 53.4809 120.839 55.4563 121.188ZM56.4296 114.757C62.3508 116.899 67.701 120.15 73.0965 123.322C76.8278 125.515 80.813 127.193 84.7801 128.901C85.4815 129.203 85.8759 129.028 86.0951 128.306C86.4336 127.192 86.7979 126.088 86.9385 124.923C87.5601 119.773 88.1385 114.613 89.6101 109.612C89.8344 108.85 89.8903 108.088 89.8936 107.31C89.8951 106.961 89.8888 106.537 89.5353 106.416C87.433 105.701 85.5444 104.161 83.3095 104.112C77.1979 103.978 71.0802 104.058 64.966 104.138C62.643 104.168 60.323 104.428 58.0014 104.58C57.0222 104.645 56.4625 105.075 56.5526 106.145C56.5933 106.628 56.5001 107.128 56.5813 107.601C56.9507 109.751 56.8722 111.858 56.0873 113.91C55.9662 114.226 55.9537 114.465 56.4296 114.757ZM23.8328 83.0904C22.0922 83.0869 20.4804 83.621 18.9516 84.3784C17.141 85.2753 15.9219 87.4929 16.1428 89.293C16.3113 90.6665 17.8796 91.8919 20.0396 92.2816C22.4857 92.7229 24.9418 92.8385 27.4142 92.4624C29.5574 92.1364 30.2482 92.4956 31.3192 94.3769C31.7751 95.1777 32.296 95.9494 32.6706 96.7868C33.2069 97.9858 34.06 98.2816 35.2608 97.9613C35.3485 97.0964 34.8888 96.4264 34.5894 95.7313C33.3812 92.9258 31.896 90.2402 30.6867 87.4485C29.3704 84.4101 27.4028 82.8722 23.8328 83.0904ZM44.898 80.5025C44.678 78.7079 43.818 77.2839 42.0479 76.8296C37.7783 75.7338 33.5256 79.1083 33.3332 83.4985C33.1104 88.5848 34.6996 93.2449 36.4669 97.8795C36.5529 98.1051 36.6903 98.3158 37.0169 98.2742C37.401 98.0708 37.3348 97.6773 37.2313 97.3884C36.6741 95.8316 36.8055 94.2483 36.8438 92.6384C36.8652 91.7414 37.1854 91.3095 37.8757 90.9312C39.7026 89.9301 41.1704 88.487 42.3209 86.7966C43.5633 84.9712 45.0134 83.1771 44.898 80.5025ZM114.929 133.156C116.172 132.071 117.361 130.912 118.673 129.916C120.857 128.258 122.148 126.201 122.032 123.385C122.012 122.9 122.073 122.312 121.456 122.195C120.7 122.051 120.665 122.75 120.496 123.228C120.417 123.451 120.423 123.707 120.406 123.949C120.27 125.902 119.485 127.394 117.709 128.421C115.78 129.537 113.972 130.862 112.104 132.083C111.404 132.54 110.65 132.615 109.886 132.247C107.355 131.028 104.851 129.75 102.292 128.594C100.438 127.756 98.496 127.118 96.6825 126.177C96.2403 125.948 95.696 125.82 95.3879 126.358C95.0613 126.929 95.5361 127.242 95.9426 127.52C96.1421 127.656 96.3638 127.762 96.581 127.87C100.575 129.864 104.623 131.759 108.545 133.885C110.871 135.145 112.847 135.128 114.929 133.156ZM26.5176 128.038C27.6898 129.053 29.3386 129.214 30.4954 130.286C30.8658 130.629 31.3532 130.436 31.5822 129.968C32.3243 128.452 33.0701 126.936 33.7405 125.388C33.8852 125.053 33.965 124.833 34.3294 124.683C35.4697 124.216 35.8433 122.75 37.2333 122.699C37.0131 122.077 36.714 121.908 36.358 122.071C34.7738 122.797 33.2115 123.572 31.6261 124.295C31.2047 124.488 31.4773 125.254 30.8376 125.188C28.783 124.976 27.2697 126.237 25.5925 126.962C25.642 127.558 26.0309 127.708 26.5176 128.038ZM38.3897 95.8776C38.57 96.632 38.7479 97.3869 38.9315 98.1404C39.0244 98.5216 39.2692 98.7183 39.6658 98.6978C40.0811 98.6763 40.2887 98.3805 40.3171 98.0333C40.352 97.6074 40.2612 97.1727 40.2479 96.7411C40.2186 95.7839 40.3502 94.8634 41.2754 94.3417C42.6981 93.5394 45.7732 93.8758 47.2326 95.1436C46.9427 94.0331 47.9867 92.7592 46.4657 92.3878C44.7923 91.9793 43.0438 91.7782 41.2793 92.1178C38.3779 92.6763 38.3713 92.6417 38.3897 95.8776ZM43.905 101.505C43.9655 100.773 43.6412 100.427 42.8964 100.428C41.4882 100.428 40.08 100.397 38.6717 100.385C38.1403 100.38 37.713 100.469 37.7346 101.176C37.7954 103.174 38.653 104.052 40.6079 104.066C40.9479 104.069 41.2878 104.072 41.6278 104.073C43.881 104.085 43.881 104.085 43.905 101.505ZM30.9675 100.212C31.1905 100.905 31.3961 101.604 31.6424 102.289C31.8211 102.786 31.9594 103.382 32.5679 103.507C33.8491 103.771 35.1359 104.029 36.4605 103.939C37.0456 103.899 37.1658 103.556 37.1482 103.049C37.074 100.923 36.4762 100.285 34.3127 100.011C33.4001 99.8953 32.493 99.736 31.5827 99.6014C31.2433 99.5512 30.8591 99.4504 30.9675 100.212ZM46.1983 103.822C47.3613 103.796 48.5046 103.603 49.6184 103.295C51.1966 102.858 50.616 101.48 50.6368 100.493C50.6607 99.3576 49.7414 99.8444 49.1235 99.9089C48.2631 99.9987 47.3983 100.056 46.5428 100.179C45.9693 100.262 45.0313 100.041 45.07 100.926C45.1133 101.916 44.6648 103.17 46.1983 103.822ZM37.9442 106.154C37.7855 105.495 37.4702 105.008 36.7199 104.927C35.4048 104.784 34.0921 104.62 32.7477 104.461C32.9802 106.964 33.8426 108.037 35.782 108.41C38.3409 108.9 38.3484 108.894 37.9442 106.154ZM43.5219 105.311C42.6251 105.008 41.694 105.159 40.7799 105.123C38.9723 105.052 38.8958 105.122 39.3484 106.876C39.5377 107.61 39.3045 108.627 40.3618 108.949C42.8914 109.717 44.0221 108.819 43.85 106.183C43.8345 105.946 43.7512 105.713 43.5219 105.311ZM48.8708 108.013C49.6553 107.035 49.77 105.872 49.9395 104.581C48.5968 104.821 47.4062 104.991 46.1968 104.93C45.7266 104.906 45.281 105.053 45.2388 105.6C45.1724 106.463 44.8838 107.419 45.3325 108.17C45.7708 108.903 46.5772 108.209 47.2203 108.246C47.6963 108.273 48.1801 108.163 48.8708 108.013ZM34.6343 109.03C34.3976 110.05 35.02 110.85 35.3777 111.695C35.6362 112.306 38.4825 113.07 38.9571 112.666C39.8169 111.935 38.9843 111.181 38.8357 110.445C38.7211 109.877 38.2602 109.777 37.7481 109.688C36.7566 109.516 35.7793 109.261 34.6343 109.03ZM46.9927 109.31C45.3821 109.585 44.6868 110.88 45.3246 112.377C45.4919 112.769 45.7555 112.799 46.1279 112.787C48.2847 112.713 48.9318 111.839 48.7484 109.187C48.2171 108.876 47.7354 109.346 46.9927 109.31ZM52.9497 102.313C54.9852 101.416 54.0991 99.4239 54.8786 97.8815C51.8145 98.5298 51.3897 99.2256 51.8105 102.489C52.1508 102.736 52.4482 102.48 52.9497 102.313ZM43.195 113.091C43.959 112.21 44.0922 110.049 43.3695 109.965C42.4958 109.863 41.4433 109.852 40.7257 110.258C40.005 110.666 40.7186 111.561 40.8501 112.225C41.1025 113.499 42.1631 113.026 43.195 113.091ZM54.2378 114.042C54.4854 114.146 54.7173 114.13 54.8825 113.902C55.6866 112.793 55.6203 108.676 54.6583 107.276C54.4428 108.609 54.2494 109.787 54.063 110.965C53.907 111.951 53.5132 112.938 54.2378 114.042ZM51.8745 103.971C50.859 104.961 50.9319 106.263 50.659 107.56C53.0465 107.128 53.7795 105.949 53.3036 103.579C52.839 103.466 52.4789 103.791 51.8745 103.971ZM45.1783 96.8132C44.0493 97.6303 42.8817 97.1883 41.741 96.8678C40.988 98.6849 41.046 98.7764 42.931 98.8156C43.3179 98.8237 43.7051 98.8314 44.092 98.8263C45.7867 98.8041 45.9927 98.4674 45.1783 96.8132ZM53.6935 96.2689C54.0191 95.9849 54.3833 95.7174 54.4915 95.2748C54.736 94.2746 54.0624 93.9055 53.3042 93.6088C52.8393 93.4269 52.2996 93.218 52.1584 93.9279C51.9586 94.9325 51.5214 95.9424 51.9354 97.0041C52.6285 97.1294 53.0444 96.6718 53.6935 96.2689ZM51.8475 110.715C52.7834 110.025 52.4637 109.048 52.5752 108.102C50.0089 108.739 49.5348 109.477 50.3534 111.383C50.8601 111.368 51.2467 111.055 51.8475 110.715ZM38.9262 121.88C39.8253 121.395 41.0001 121.39 41.8685 120.388C40.2109 120.177 38.4561 120.982 37.9421 122.023C38.2301 122.253 38.4869 122.061 38.9262 121.88ZM44.0163 96.4508C44.4002 96.3121 44.7455 96.1483 44.5334 95.5573C43.8183 95.5485 43.0737 95.2836 42.364 95.7244C42.6026 96.6017 43.242 96.4616 44.0163 96.4508ZM30.9284 96.4766C30.2127 95.9099 30.2127 95.9099 29.8915 96.9534C30.7278 97.2159 30.7278 97.2159 30.9284 96.4766Z" fill="#363636"/>
<path d="M147.894 124.944C147.593 124.685 147.395 124.446 147.142 124.318C143.414 122.441 140.085 119.876 136.332 118.04C135.377 117.572 134.473 116.988 133.581 116.402C132.229 115.514 130.814 114.758 129.225 114.431C122.532 113.055 116.411 110.351 110.753 106.545C109.941 105.999 109.006 105.706 108.076 105.419C99.0092 102.625 90.461 98.5271 81.7445 94.8573C79.8325 94.0523 78.0898 92.844 76.2694 91.8208C75.0444 91.1322 74.6545 89.9885 74.8269 88.7128C75.6709 82.4655 76.2163 76.1808 77.6786 70.0153C78.6721 65.8267 79.1721 61.5276 79.8266 57.2651C80.5574 52.506 80.6208 47.7168 81.1933 42.9646C81.5922 39.6532 81.7462 36.3074 82.9549 33.1116C83.661 31.2446 85.0248 30.674 86.7208 30.4266C87.2409 30.3507 87.8082 30.3606 88.3169 30.4841C93.0539 31.6336 98.015 31.7437 102.555 33.8574C105.602 35.2762 109.011 35.6009 112.277 36.3032C115.062 36.9022 117.637 38.0319 120.234 39.0717C124.62 40.8275 129.082 42.261 133.688 43.2804C134.537 43.4684 135.411 43.6906 136.178 44.0828C141.404 46.7533 147.109 48.0751 152.598 50.0018C154.848 50.7917 157.062 51.6563 159.109 52.9008C160.583 53.7971 162.302 54.0153 163.883 54.6163C164.652 54.9087 165.43 55.1387 166.137 55.6066C169.357 57.7377 169.048 61.0354 168.96 64.2137C168.843 68.448 168.024 72.5915 167.076 76.7071C166.793 77.9369 166.507 79.1707 166.125 80.3717C165.271 83.0568 165.518 85.8652 165.167 88.6062C164.896 90.7286 164.74 92.8326 163.937 94.8572C162.878 97.5274 162.956 100.474 161.961 103.192C160.075 108.345 158.634 113.635 157.418 118.992C156.904 121.256 156.074 123.452 155.329 125.658C154.648 127.673 153.485 128.155 151.635 127.088C150.419 126.387 149.027 125.995 147.894 124.944ZM116.871 39.4198C116.327 39.2129 115.796 38.9521 115.236 38.8073C108.818 37.1491 102.348 35.6785 96.0655 33.528C93.887 32.7823 91.536 33.0626 89.3454 32.3503C88.4809 32.0692 87.7402 32.6092 87.471 33.3598C86.9324 34.8615 86.1425 36.3746 86.1731 37.9652C86.2815 43.5984 84.3565 48.9797 84.2618 54.5826C84.2374 56.0274 83.9761 57.4844 83.6759 58.9045C83.2665 60.841 83.1162 62.8124 82.6078 64.7473C82.1391 66.5314 82.3679 68.4707 82.0406 70.3304C81.4633 73.6115 80.2849 76.8168 80.7003 80.2371C80.7178 80.3808 80.526 80.5655 80.4046 80.708C79.7374 81.4908 79.5367 82.466 79.4773 83.4217C79.3145 86.0412 79.3838 88.6776 78.9291 91.274C78.8403 91.7814 79.0452 92.0027 79.4096 92.1942C80.6545 92.8483 81.832 93.6155 83.1441 94.1595C88.4293 96.3508 93.8322 98.2445 99.0373 100.648C101.08 101.591 103.213 102.405 105.4 103.062C107.411 103.665 109.546 103.922 111.365 105.178C116.531 108.743 122.247 111.067 128.319 112.588C129.139 112.794 129.96 112.612 130.812 113.068C132.74 114.098 134.583 115.285 136.521 116.27C141.892 118.998 146.904 122.313 152.015 125.468C153.262 126.239 153.691 126.16 154.064 124.692C154.864 121.544 155.982 118.497 156.703 115.313C157.567 111.493 158.538 107.665 160.035 104.014C161.537 100.351 161.629 96.3259 162.995 92.6068C163.469 91.3168 163.637 89.8123 163.684 88.3256C163.749 86.2495 163.709 84.138 164.177 82.082C165.122 77.9226 166.268 73.8031 166.849 69.5697C167.262 66.5565 167.548 63.5274 167.214 60.4745C166.963 58.1884 165.77 56.826 163.56 56.1268C161.815 55.575 159.957 55.2698 158.378 54.2674C156.389 53.005 154.207 52.1771 152.011 51.4085C146.613 49.5197 140.988 48.2791 135.851 45.6439C135.087 45.2518 134.202 45.0656 133.352 44.8744C127.753 43.6145 122.365 41.7178 116.871 39.4198ZM76.3141 90.186C76.6175 90.6386 76.9497 91.0475 77.6459 91.0259C77.7362 90.8355 77.898 90.634 77.9256 90.4156C78.3843 86.7846 78.2283 83.1179 79.2325 79.5012C80.1219 76.2981 80.2282 72.8869 80.9567 69.6087C81.576 66.8224 81.4632 63.9436 82.2109 61.1359C83.4845 56.3529 83.2388 51.3273 84.2379 46.4599C85.1877 41.8329 84.7752 36.962 86.7411 32.4767C84.869 32.2705 83.9773 33.1646 83.5486 35.3261C82.544 40.3922 82.434 45.551 82.1764 50.6713C81.9828 54.5185 81.0289 58.2276 80.7635 62.0551C80.5576 65.0255 79.7448 67.9665 79.0632 70.8881C78.1018 75.009 77.533 79.1837 77.0821 83.3809C76.8448 85.5898 76.0427 87.7244 76.3141 90.186Z" fill="#363636"/>
<path d="M46.4161 67.292C46.9813 65.8229 47.5087 64.4707 48.0256 63.1456C47.7047 62.493 47.1175 62.601 46.6107 62.5139C43.1365 61.9174 42.2405 60.5781 42.3356 57.043C42.4124 54.1875 42.7801 51.5302 44.8119 49.4058C41.6967 45.752 41.7072 40.1305 45.1361 35.9607C49.2927 30.9059 54.9055 28.2708 61.2845 27.1827C61.4747 27.1503 61.6764 27.1269 61.8648 27.1543C62.3714 27.2279 63.0937 27.1314 63.1121 27.8495C63.1286 28.4961 62.4439 28.4352 61.9883 28.4958C56.2157 29.263 51.3959 31.995 47.4109 36.0774C44.9381 38.6106 43.9612 41.9153 44.5727 45.4935C44.9398 47.6415 46.1342 48.0507 47.7416 46.6298C50.5937 44.1086 53.96 42.4871 57.3978 41.0095C59.1026 40.2767 60.9568 40.6031 62.7129 40.8897C63.8287 41.0717 64.2198 42.0221 63.9447 43.1454C63.5469 44.7703 62.3951 45.8637 61.102 46.7207C57.1052 49.3694 52.639 50.2851 47.9142 49.8545C46.9017 49.7622 46.3405 50.0097 45.6825 50.7331C43.4013 53.2413 43.7085 56.2964 43.7297 59.2959C43.7343 59.9413 44.278 60.3018 44.798 60.588C45.9758 61.2362 47.2898 61.3446 48.5883 61.5C49.2075 61.5741 49.5713 61.1821 49.8981 60.735C51.2662 58.864 53.088 57.4877 54.8944 56.084C57.0915 54.3768 59.6335 53.9187 62.3001 53.9952C64.3507 54.054 64.9481 55.2861 64.0492 57.1782C62.343 60.7696 58.9825 61.772 55.57 62.6743C54.2504 63.0232 52.8738 62.9665 51.5118 62.9186C51.1271 62.9051 50.6125 62.8054 50.375 63.005C48.8578 64.2803 48.2706 66.1205 47.7224 67.9191C47.3564 69.1201 48.2803 69.8887 49.1068 70.5995C50.4122 71.7222 51.8125 72.6595 53.5578 72.9474C54.5412 73.1097 55.238 72.9517 55.8348 71.9373C57.128 69.7396 58.9296 68.1891 61.7351 68.4785C63.0624 68.6154 63.3403 69.2027 62.5302 70.3078C61.3711 71.889 59.731 72.8409 57.9568 73.5601C55.996 74.3549 55.2781 75.6476 55.7341 77.7215C55.7757 77.911 55.8773 78.092 55.8926 78.2816C55.9342 78.8005 56.7306 79.5016 55.9221 79.7899C55.022 80.1108 54.9117 79.0881 54.7115 78.5044C54.4122 77.6321 54.1958 76.6958 54.4787 75.7817C54.8228 74.6692 54.3215 74.2531 53.3228 74.1386C51.0812 73.8815 49.3723 72.6096 47.7552 71.1804C46.6239 70.1805 46.044 68.9565 46.4161 67.292ZM57.1005 47.1339C57.6877 46.9031 58.2958 46.7141 58.8579 46.4329C60.1702 45.7764 61.4125 45.0078 62.2449 43.7454C63.0465 42.5298 62.8482 42.1272 61.4505 42.0148C59.6702 41.8716 57.9808 42.0718 56.403 43.0294C55.4518 43.6067 54.3924 44.0017 53.4041 44.5214C51.7187 45.4077 50.2136 46.5334 48.532 48.063C50.0544 48.0913 51.1252 48.1979 52.18 48.1106C53.7733 47.9788 55.35 47.6835 57.1005 47.1339ZM62.6733 55.613C58.7305 55.2187 52.9069 58.3507 51.7965 61.5371C55.3847 61.8939 58.5506 60.8899 61.3178 58.6991C62.2006 58.0002 63.0417 57.0879 62.6733 55.613ZM59.1735 71.6119C60.0493 71.0718 61.0691 70.7009 61.582 69.6554C59.9761 69.1956 58.012 70.45 57.1907 72.5C57.8667 72.2076 58.4306 71.9638 59.1735 71.6119Z" fill="#363636"/>
<path d="M179.023 116.837C181.068 115.92 183.009 115.04 184.954 114.165C185.395 113.966 185.836 113.76 186.294 113.604C186.745 113.451 187.309 113.217 187.56 113.823C187.8 114.401 187.289 114.717 186.856 114.924C185.15 115.738 183.439 116.541 181.71 117.301C180.557 117.808 179.368 118.231 178.198 118.7C177.734 118.886 177.236 119.131 176.98 118.475C176.772 117.944 177.201 117.678 177.596 117.475C178.026 117.253 178.478 117.074 179.023 116.837Z" fill="#363636"/>
<path d="M177.156 127.038C177.244 126.567 177.519 126.467 177.818 126.471C179.849 126.501 181.881 126.536 183.912 126.593C184.413 126.607 184.845 126.846 185.164 127.241C185.358 127.483 185.381 127.774 185.277 128.065C185.158 128.399 184.893 128.454 184.578 128.421C182.519 128.204 180.459 127.995 178.4 127.772C177.921 127.72 177.425 127.672 177.156 127.038Z" fill="#363636"/>
<path d="M179.2 138.673C177.162 138.172 175.64 137.126 174.17 135.498C175.456 135.096 176.118 135.728 176.739 136.115C177.819 136.789 178.916 137.307 180.169 137.538C180.69 137.633 181.542 137.643 181.359 138.452C181.191 139.199 180.425 138.908 179.873 138.85C179.684 138.83 179.502 138.748 179.2 138.673Z" fill="#363636"/>
<path d="M170.472 146.765C170.121 146.419 169.83 146.16 169.6 145.854C169.415 145.608 169.403 145.302 169.657 145.07C169.914 144.835 170.204 144.907 170.447 145.094C171.052 145.562 171.568 146.153 172.374 146.324C172.679 146.388 172.861 146.679 172.785 146.996C172.692 147.384 172.357 147.507 171.995 147.475C171.449 147.426 171.001 147.13 170.472 146.765Z" fill="#363636"/>
<path d="M150.842 156.731C151.115 156.477 151.289 156.238 151.508 156.051C151.922 155.696 152.375 155.379 152.947 155.702C153.528 156.032 153.725 156.529 153.52 157.183C153.436 157.451 153.397 157.733 153.4 157.718C156.04 159.967 158.89 161.626 161.491 163.605C161.332 163.838 161.173 164.071 161.013 164.305C159.588 163.479 158.161 162.656 156.737 161.827C155.318 161.002 154.163 159.79 152.312 159.651C151.165 159.564 150.303 158.422 149.367 157.685C148.988 157.387 149.043 156.892 149.393 156.516C149.974 155.892 150.304 156.697 150.842 156.731Z" fill="#363636"/>
<path d="M153.132 164.884C153.916 165.465 154.627 165.972 155.292 166.533C155.6 166.793 155.783 167.179 155.4 167.54C155.092 167.831 154.77 167.695 154.485 167.468C150.644 164.401 146.033 162.526 142.173 159.491C141.738 159.149 141.122 158.939 141.057 157.982C142.706 158.25 143.694 159.52 144.979 160.187C146.354 160.901 147.688 161.696 149.03 162.472C150.373 163.248 151.704 164.044 153.132 164.884Z" fill="#363636"/>
<path d="M142.414 149.367C143.437 148.637 144.398 148.514 145.517 148.877C147.282 149.45 147.804 150.806 146.721 152.304C145.732 153.672 143.807 153.998 142.453 153.027C141.339 152.228 141.296 150.988 142.414 149.367ZM144.876 149.818C143.859 149.724 143.135 150.224 143.038 151.174C142.958 151.952 143.749 152.093 144.388 152.09C145.016 152.088 145.456 151.711 145.715 151.152C146.04 150.451 145.381 150.265 144.876 149.818Z" fill="#363636"/>
<path d="M133.587 143.405C134.399 143.268 135.153 142.472 135.883 143.504C135.354 144.149 134.523 144.06 133.954 144.473C133.515 144.791 132.996 145.09 133.24 145.733C133.492 146.399 134.114 146.472 134.709 146.35C135.597 146.17 136.153 145.645 136.265 144.682C136.316 144.238 136.535 143.792 137.109 143.912C137.654 144.025 137.671 144.523 137.68 144.958C137.703 146.008 136.573 147.302 135.351 147.657C134.074 148.028 132.528 147.535 131.984 146.582C131.369 145.508 131.922 144.353 133.587 143.405Z" fill="#363636"/>
<path d="M136.04 149.335C136.039 148.396 136.544 148.412 137.216 148.43C138.663 148.47 139.349 147.503 138.924 146.106C139.675 145.49 140.568 145.774 141.254 146.041C142.226 146.418 141.779 147.137 141.231 147.632C140.589 148.214 139.766 148.594 139.286 149.38C139.196 149.949 140.236 150.443 139.452 151.049C138.756 151.588 138.153 151.091 137.596 150.736C137.032 150.376 136.391 150.082 136.04 149.335Z" fill="#363636"/>
<path d="M146.731 167.947C144.746 166.572 142.601 165.566 140.993 163.726C141.742 163.22 142.092 163.593 142.439 163.805C144.51 165.07 146.574 166.346 148.625 167.644C149.045 167.91 149.783 168.194 149.434 168.809C148.998 169.576 148.433 168.898 147.956 168.659C147.566 168.464 147.198 168.225 146.731 167.947Z" fill="#363636"/>
<path d="M138.575 175.945C136.111 174.713 133.779 173.411 131.638 171.647C132.318 171.065 132.674 171.271 133.001 171.463C134.749 172.49 136.499 173.514 138.224 174.579C138.688 174.865 139.306 175.209 138.575 175.945Z" fill="#363636"/>
<path d="M133.196 177.861C131.537 176.736 129.965 175.673 128.578 174.269C129.337 173.513 129.796 173.941 130.253 174.26C131.636 175.225 133.021 176.188 134.391 177.171C134.791 177.458 135.519 177.689 135.132 178.347C134.735 179.022 134.211 178.465 133.767 178.242C133.595 178.157 133.445 178.029 133.196 177.861Z" fill="#363636"/>
<path d="M141.242 171.466C141.951 172.065 143.316 172.54 142.727 173.371C142.081 174.282 141.451 172.888 140.793 172.572C139.749 172.07 138.762 171.449 137.752 170.876C137.341 170.643 136.868 170.466 136.786 169.902C137.782 169.508 138.099 169.619 141.242 171.466Z" fill="#363636"/>
<path d="M70.7822 111.301C68.3222 112.959 65.8948 112.153 63.3733 111.513C64.5593 111.214 64.7704 110.301 65.0315 109.358C65.2678 108.505 65.8095 107.8 66.8336 108.142C67.7899 108.461 68.0031 109.211 67.634 110.144C67.5693 110.308 67.6183 110.517 67.6123 110.844C69.1023 111.094 70.1001 110.177 71.1371 109.469C72.5986 108.472 72.7774 108.514 73.1531 110.382C74.5086 109.485 75.7385 110.241 77.0807 110.472C78.7583 110.761 80.5422 110.272 82.2898 110.41C82.9868 110.465 83.6981 110.461 84.1244 111.082C83.8627 111.664 83.5161 111.553 83.1795 111.528C81.5365 111.404 79.9023 111.312 78.2523 111.583C77.3616 111.729 76.4135 111.771 75.5596 111.254C75.3663 111.138 75.0642 111.031 74.878 111.1C73.7081 111.53 72.5661 111.739 71.4071 111.057C71.3023 110.995 71.0549 111.177 70.7822 111.301Z" fill="#363636"/>
<path d="M79.0642 113.801C80.511 113.968 81.8195 114.133 83.3429 114.326C82.2937 115.276 65.9035 115.23 64.2153 114.459C64.9106 113.903 65.673 113.913 66.4087 113.916C68.5954 113.926 70.7846 113.912 72.9678 114.014C74.9652 114.108 76.9393 113.837 79.0642 113.801Z" fill="#363636"/>
<path d="M78.0882 118.944C74.1816 118.939 70.4362 118.675 66.5407 118.31C67.9971 117.172 81.7133 117.796 82.6503 119.03C81.116 119.001 79.6739 118.974 78.0882 118.944Z" fill="#363636"/>
<path d="M25.7721 90.0121C26.1468 90.0174 26.3909 90.0404 26.6311 90.0189C27.3535 89.9544 28.2151 89.9664 28.4866 89.1667C28.756 88.3729 27.9402 88.0339 27.4656 87.5803C27.2993 87.4214 27.1704 87.2233 26.8636 86.8446C28.2356 86.2737 28.9298 87.1761 29.433 87.8822C30.0558 88.7561 30.0713 89.8255 29.1424 90.6213C28.7854 90.9273 28.3056 91.2492 27.8663 91.2726C25.3609 91.4066 22.8236 91.6836 20.442 90.5516C19.5885 90.1458 18.7895 89.6185 18.8155 88.5256C18.8411 87.4518 19.4721 86.7712 20.4025 86.2746C22.4523 85.1805 24.4788 84.9675 26.687 86.2654C26.1516 86.718 25.6669 86.4387 25.2615 86.4008C23.9195 86.2756 22.66 86.4291 21.4853 87.1418C20.9449 87.4697 20.2231 87.7178 20.2513 88.4346C20.2848 89.2848 21.1566 89.3486 21.7618 89.5732C23.0106 90.0367 24.3323 89.9905 25.7721 90.0121Z" fill="#363636"/>
<path d="M42.6803 81.9454C42.0749 84.878 40.5322 87.0308 38.1001 88.5321C36.3936 89.5854 35.9058 89.3359 35.4277 87.3984C34.7393 84.6091 35.3767 82.2106 37.4003 80.1797C38.2883 79.2884 39.2291 78.5989 40.6174 78.9991C42.0629 79.4159 42.5743 80.4595 42.6803 81.9454ZM39.834 85.1356C40.3817 84.2244 40.9721 83.3257 41.1262 82.2463C41.2233 81.5664 41.248 80.8644 40.5196 80.4569C39.8431 80.0785 39.2163 80.2633 38.6233 80.6774C36.5307 82.1387 35.8768 84.1864 36.1798 86.6377C36.3053 87.6536 36.8053 87.7453 37.5557 87.2329C38.3562 86.6863 39.1023 86.0729 39.834 85.1356Z" fill="#363636"/>
<path d="M153.426 60.1849C151.931 59.7073 150.541 59.2731 149.161 58.8111C148.66 58.6433 147.988 58.4515 148.156 57.7829C148.34 57.0521 149.005 57.2967 149.498 57.472C151.723 58.264 154.1 58.6009 156.115 60.0242C158.176 61.4796 160.003 64.2644 159.3 67.2986C159.169 67.863 159.145 68.4516 159.027 69.0197C158.653 70.8237 158.355 72.5495 160.414 73.6803C160.958 73.9791 160.968 74.7325 160.76 75.4152C159.998 77.921 158.792 80.1693 157.035 82.1137C156.564 82.6344 155.95 82.9572 155.298 83.1439C153.89 83.5472 152.801 84.3424 152.028 85.5792C150.224 88.4667 147.498 88.9841 144.401 88.5748C141.308 88.166 138.247 87.3531 135.51 86.0192C133.55 85.0637 131.475 83.9879 129.824 82.354C127.852 80.4013 127.228 78.2386 128.246 75.6259C128.734 74.3741 128.715 73.412 127.437 72.4029C125.855 71.1528 126.479 69.2973 127.011 67.6808C127.943 64.8478 130.108 63.1326 132.61 61.7636C132.736 61.6949 132.903 61.599 133.019 61.6309C135.034 62.1869 135.677 60.5717 136.573 59.379C139.656 55.2749 143.146 55.8159 147.317 56.8019C147.471 56.8383 147.584 57.0517 147.724 57.1915C147.292 57.9604 146.697 57.5821 146.165 57.5044C143.114 57.0593 140.198 57.0862 138.157 59.9346C136.967 61.5944 135.717 63.2254 134.691 64.9849C132.726 68.3565 131.207 71.9692 130.12 75.6972C129.045 79.3857 129.439 80.1639 133.049 82.5311C136.055 84.5025 139.424 85.8027 142.995 86.5129C144.517 86.8156 145.607 86.417 146.536 85.1756C148.292 82.8299 149.264 80.1506 149.922 77.3546C150.258 75.9276 150.768 74.5239 151.845 73.6701C154.171 71.826 154.643 69.1034 155.647 66.6175C155.809 66.2151 155.889 65.7788 156.001 65.3567C156.859 62.1348 156.617 61.6303 153.426 60.1849ZM147.468 86.8352C149.626 86.4853 150.508 84.7527 151.685 83.1693C150.884 82.6611 150.25 82.2586 149.495 81.779C148.533 83.7188 147.417 85.4237 145.847 86.8643C146.412 87.0577 146.837 86.9905 147.468 86.8352ZM156.36 66.3212C155.99 67.7568 155.124 69.0491 155.061 70.5734C157.188 71.1859 157.295 71.0953 157.429 69.0911C157.497 68.079 157.717 67.0778 157.81 66.0662C157.876 65.3347 158.037 64.5461 157.336 63.8623C156.736 64.5844 156.768 65.4197 156.36 66.3212ZM157.422 79.3625C158.397 77.8987 159.353 76.4268 159.425 74.5757C157.37 76.5143 156.065 78.9045 154.759 81.7171C156.17 81.2253 156.589 80.2175 157.422 79.3625ZM128.552 67.8532C128.457 68.4746 128.133 69.0727 128.289 70.0099C129.576 67.1876 131.549 65.2246 133.291 63.0644C131.263 64.0966 129.663 65.5713 128.552 67.8532Z" fill="#363636"/>
<path d="M120.651 53.2192C120.663 52.8451 120.641 52.5971 120.681 52.3594C120.768 51.8326 120.399 50.9311 121.197 50.9131C122.113 50.8925 122.028 51.8284 122.012 52.4948C121.932 55.6809 121.161 58.7316 120.202 61.7504C119.438 64.1556 118.793 66.599 117.997 68.9929C117.484 70.5369 118.13 71.4696 119.322 72.275C120.287 72.9268 121.221 73.6244 122.153 74.3239C122.463 74.5567 122.771 74.8546 122.616 75.306C122.444 75.8088 122.003 75.9074 121.547 75.86C120.245 75.7249 118.941 75.6 117.649 75.3951C117.039 75.2983 116.747 75.4363 116.618 76.0527C115.877 79.5861 114.364 82.8603 113.117 86.2187C112.172 88.7623 111.145 91.2744 109.851 93.6894C108.54 96.1359 106.536 96.8216 104.053 96.6703C99.1734 96.373 94.7515 94.3896 90.2559 92.7319C88.3522 92.0299 86.4051 91.3572 84.6927 90.217C84.2893 89.9483 83.8377 90.1453 83.4874 89.9487C83.3039 89.5153 83.1907 89.0811 82.957 88.7267C82.2149 87.601 82.198 86.464 82.3859 85.1252C83.2093 79.2611 84.4101 73.4651 85.3885 67.6299C85.7815 65.2857 86.5709 62.99 86.7689 60.6375C86.9091 58.973 87.8117 57.3004 87.0054 55.5783C86.7122 54.9522 87.5056 54.8434 87.6295 54.384C88.1983 52.2744 88.5135 50.1174 88.9251 47.9769C89.5445 44.7547 90.0967 41.4319 93.6644 39.8999C93.9889 39.7606 94.1936 39.6433 94.5761 39.7582C98.7319 41.0068 103.03 41.692 107.18 42.9816C111.755 44.4031 116.071 46.3605 120.143 48.8726C120.539 49.1171 121.043 49.298 121.103 49.9C120.784 50.4515 120.355 50.2204 119.994 49.9968C113.6 46.0336 106.472 44.2087 99.1989 42.7948C98.486 42.6562 97.7882 42.4376 97.0857 42.2475C93.6041 41.3053 91.9226 42.464 91.2139 46.0086C90.0914 51.6223 89.2209 57.2773 88.2207 62.9102C86.872 70.5056 85.2425 78.0521 83.6474 85.6014C83.3376 87.0676 83.7422 87.9603 85.0064 88.5672C88.1613 90.0819 91.4246 91.3266 94.7374 92.4445C97.308 93.3121 99.8028 94.4338 102.524 94.8C103.196 94.8905 103.873 95.0186 104.547 95.0137C106.278 95.0013 107.623 94.5188 108.552 92.762C110.655 88.7899 112.066 84.5509 113.715 80.4018C114.433 78.5955 115.218 76.8242 115.376 74.8375C115.464 73.7317 116.037 73.1031 117.26 73.6984C117.65 73.888 118.063 74.0399 118.523 73.8003C118.433 73.2532 117.972 72.9723 117.612 72.725C116.248 71.7893 115.99 70.7046 116.535 69.1097C117.617 65.9421 118.46 62.6929 119.451 59.4928C120.073 57.4839 120.23 55.394 120.651 53.2192Z" fill="#363636"/>
<path d="M141.064 103.98C138.663 105.154 136.271 106.081 133.893 107.053C132.208 107.741 130.619 108.503 128.84 108.057C127.402 105.333 127.084 102.196 125.839 99.3793C124.866 97.1769 125.041 96.4369 127.113 95.2868C127.325 95.169 127.537 95.0511 127.754 94.9428C130.082 93.7803 130.598 94.0009 131.376 96.5217C131.711 97.6078 132.544 98.5117 132.343 99.8183C134.029 99.6968 134.944 98.4852 136.179 97.9184C138.223 96.9803 139.793 95.3218 141.626 94.053C143.898 92.4796 145.027 92.9601 145.816 95.584C146.205 96.8779 146.223 98.1892 146.518 99.4706C146.696 100.242 146.445 100.789 145.771 101.183C144.224 102.087 142.926 103.409 141.064 103.98Z" fill="#363636"/>
<path d="M143.39 80.8C139.981 82.0985 137.091 81.0471 134.454 79.0912C133.298 78.2341 133.124 76.8519 133.465 75.5013C133.873 73.8823 135.483 73.1075 136.87 74.1309C138.411 75.2685 140.117 75.2434 141.797 75.4798C142.831 75.6254 143.634 76.0732 144.36 76.7182C145.712 77.9205 145.373 79.4251 143.39 80.8ZM136.238 76.4326C138.572 77.4501 141.06 77.9234 143.786 78.8346C143.361 77.3005 142.512 76.9109 141.463 76.8764C139.937 76.8262 138.517 76.6496 137.301 75.5242C136.748 75.0117 135.877 74.6291 135.197 75.5162C135.32 76.0506 135.75 76.1223 136.238 76.4326ZM141.016 78.8673C139.083 78.1884 137.029 77.8689 135.211 76.56C135.144 77.8791 135.177 78.0381 136.11 78.5384C137.965 79.533 139.878 80.2971 142.118 79.6405C141.872 79.106 141.513 79.0634 141.016 78.8673Z" fill="#363636"/>
<path d="M149.066 68.1532C148.98 70.0848 147.493 71.979 145.845 72.4134C144.474 72.7748 143.277 71.7912 143.381 70.3886C143.479 69.0586 144.723 67.4452 145.963 67.0485C146.406 67.5986 145.898 67.9429 145.659 68.3151C145.288 68.8912 144.894 69.4615 144.786 70.1443C144.662 70.9272 144.992 71.2514 145.797 70.9803C146.759 70.6566 147.226 69.8793 147.681 69.0543C147.958 68.553 148.069 67.7339 149.066 68.1532Z" fill="#363636"/>
<path d="M139.174 64.6458C139.733 65.6136 138.728 66.0006 138.489 66.6795C138.267 67.31 137.659 68.0128 138.373 68.5058C139.073 68.9899 139.772 68.3981 140.235 67.8347C140.66 67.3167 140.938 66.6782 141.289 66.098C141.501 65.7478 141.768 65.4356 142.228 65.6286C142.737 65.8413 142.606 66.2352 142.424 66.6063C141.777 67.9269 141.097 69.2027 139.633 69.8374C138.724 70.2318 137.919 70.1234 137.188 69.5129C136.468 68.9123 136.573 68.0679 136.841 67.3506C137.266 66.2117 137.843 65.1231 139.174 64.6458Z" fill="#363636"/>
<path d="M109.169 79.676C110.403 79.4499 111.176 80.0969 111.435 81.1768C111.694 82.2618 110.757 82.6624 109.94 82.9914C109.5 83.1685 109.021 83.317 108.553 83.3428C107.362 83.4085 106.412 82.6269 106.426 81.6741C106.445 80.4846 107.676 78.9455 108.628 78.9385C108.972 78.936 109.137 79.1585 109.092 79.6292C108.728 79.9775 108.404 80.135 108.196 80.3885C107.855 80.8041 107.531 81.3137 107.897 81.8448C108.3 82.4301 108.852 82.0984 109.348 81.9303C109.674 81.8197 109.986 81.6842 110.056 81.1817C109.822 80.7047 109.08 80.417 109.169 79.676Z" fill="#363636"/>
<path d="M89.4993 81.9147C90.745 82.2615 91.7753 82.7415 91.5119 84.1774C91.2928 85.372 89.7702 86.3404 88.6293 86.0167C87.644 85.7371 86.4245 85.5488 86.4735 84.1037C86.5157 82.8576 87.8268 81.9077 89.4993 81.9147ZM88.4426 83.054C88.1205 83.4029 87.6946 83.6925 87.7443 84.2944C88.3901 84.8995 89.1006 84.9504 89.8508 84.5005C90.2181 84.2802 90.4758 83.9033 90.1878 83.5281C89.8088 83.0343 89.3379 82.544 88.4426 83.054Z" fill="#363636"/>
<path d="M105.98 59.4309C105.387 58.0413 105.908 57.2067 107.053 56.6152C108.406 55.916 109.242 56.7431 109.992 57.6534C110.696 58.5081 110.487 59.4073 109.756 60.1208C108.823 61.0322 107.756 60.9449 106.723 60.2578C106.453 60.0779 106.261 59.7795 105.98 59.4309ZM108.586 57.8101C108.05 57.1879 107.555 57.4261 107.175 57.9517C106.889 58.3475 107.017 58.7852 107.384 59.107C107.779 59.4546 108.262 59.5614 108.707 59.2765C109.339 58.8717 109.081 58.3956 108.586 57.8101Z" fill="#363636"/>
<path d="M98.4759 88.1416C98.2821 86.692 98.864 85.7716 100.017 85.1837C100.909 84.7291 101.632 85.236 102.275 85.7242C103.305 86.5066 103.226 87.8057 102.177 88.5461C100.769 89.5398 99.4481 89.4382 98.4759 88.1416ZM99.8681 87.8011C100.706 87.9995 101.34 87.7483 101.78 87C100.554 85.9345 100.071 86.109 99.8681 87.8011Z" fill="#363636"/>
<path d="M106.006 51.4903C105.064 50.6921 105.229 49.8767 105.762 49.0798C106.244 48.3599 106.887 48.0557 107.7 48.4964C107.81 48.8673 107.621 48.9797 107.391 49.1055C106.901 49.3739 106.413 49.7418 106.717 50.3594C107.049 51.0318 107.768 51.0553 108.383 50.8952C109.173 50.6891 109.201 50.1576 108.685 49.5929C108.327 49.2026 107.985 48.7648 108.583 48.3965C109.155 48.0447 109.589 48.4684 109.905 48.9383C110.416 49.697 110.435 50.503 109.972 51.2737C109.459 52.1276 108.621 52.3221 107.695 52.2148C107.107 52.1466 106.575 51.9105 106.006 51.4903Z" fill="#363636"/>
<path d="M94.838 48.6779C94.2524 47.6177 94.5272 46.7772 95.2268 46.0598C95.6259 45.6506 96.1136 45.2413 96.6742 45.8352C96.8314 46.4182 96.2767 46.4606 96.0717 46.7501C95.8137 47.1145 95.5569 47.5102 95.8848 47.9395C96.1979 48.3494 96.6429 48.3011 97.0798 48.1392C97.5289 47.9728 97.8959 47.6869 97.7473 47.1742C97.602 46.6727 97.1812 46.1785 97.7716 45.7454C98.105 45.5009 98.4136 45.7848 98.6579 46.0267C99.1724 46.5363 99.4501 47.0806 99.1328 47.8489C98.3824 49.6654 96.4537 50.1058 94.838 48.6779Z" fill="#363636"/>
<path d="M100.658 69.5297C100.73 70.9729 100.092 71.7205 98.7111 71.9399C97.4758 72.1363 96.497 71.7556 95.9858 70.5617C95.5994 69.6593 96.2294 68.4978 97.2715 68.3688C98.5017 68.2166 99.8175 68.0879 100.658 69.5297ZM98.1223 70.7664C98.6661 70.6509 99.3148 70.6996 99.4632 69.9095C98.8933 69.1952 98.1771 68.9191 97.4783 69.5593C96.8747 70.1123 97.4248 70.478 98.1223 70.7664Z" fill="#363636"/>
<path d="M94.7137 60.4728C95.4603 60.9475 96.307 61.3261 95.9365 62.2901C95.5698 63.2445 94.7797 63.8841 93.7364 63.9513C92.7772 64.0131 91.8905 63.6831 91.453 62.7285C91.0412 61.8299 92.0084 60.4754 93.163 60.338C93.6333 60.282 94.1232 60.3914 94.7137 60.4728ZM93.3713 62.6225C93.9259 62.646 94.4148 62.5664 94.5471 61.8982C94.1368 61.2881 93.6232 61.2022 93.0812 61.6177C92.6536 61.9454 92.6033 62.3252 93.3713 62.6225Z" fill="#363636"/>
<path d="M112.064 68.8181C111.672 68.913 111.386 68.9786 111.101 68.977C110.171 68.9717 109.309 68.7315 109.08 67.7081C108.863 66.7388 109.503 66.1449 110.323 65.8341C111.308 65.461 112.181 65.8729 112.734 66.6532C113.305 67.4587 112.953 68.2135 112.064 68.8181Z" fill="#363636"/>
<path d="M105.523 66.0152C106.07 65.8202 106.528 65.6588 106.783 65.3086C106.989 64.7164 106.197 64.606 106.358 64.0548C106.45 64.0049 106.585 63.866 106.682 63.8892C108.11 64.2332 108.428 65.2648 107.442 66.314C106.671 67.1346 104.769 67.4994 103.784 66.9679C102.91 66.4956 102.63 65.7568 103.224 64.9146C103.756 64.1618 104.228 63.0584 105.558 63.8111C105.374 64.6374 104.174 64.7111 104.431 65.6146C104.548 66.0276 105.019 66.063 105.523 66.0152Z" fill="#363636"/>
<path d="M92.9622 68.9215C94.1367 67.9566 92.6923 67.9203 92.5332 67.4411C92.5702 66.7362 93.0572 66.6802 93.5559 66.7715C94.1297 66.8767 94.4665 67.2717 94.5782 67.8563C94.813 69.0846 94.0028 70.0096 92.3611 70.377C90.9059 70.7027 89.9284 70.2126 89.6072 68.9962C89.3048 67.8516 90.2264 66.9489 91.5561 67.1701C91.5504 67.8415 90.3033 68.2219 90.9989 69.0093C91.5814 69.6687 92.2524 69.1247 92.9622 68.9215Z" fill="#363636"/>
<path d="M101.045 58.266C100.821 57.6384 101.058 57.4365 101.553 57.224C102.892 56.649 103.047 55.6453 101.95 54.7579C102.377 54.0895 103.026 53.8903 103.676 54.1941C104.419 54.5411 104.18 55.2386 103.964 55.8427C103.835 56.2057 103.698 56.5697 103.522 56.9116C103.189 57.5592 103.141 58.1052 103.921 58.4613C104.248 58.6109 104.525 58.8517 104.379 59.2462C104.191 59.7528 103.756 59.6185 103.396 59.4942C102.584 59.2133 101.705 59.0592 101.045 58.266Z" fill="#363636"/>
<path d="M108.941 72.3404C109.53 71.6921 110.048 71.1165 111.007 71.4849C110.942 72.3755 109.838 72.6208 109.936 73.5515C111.066 74.2608 111.253 73.3384 111.388 72.5241C112.536 72.6691 112.708 73.2843 112.429 74.091C112.073 75.1173 110.925 75.5204 109.756 75.0855C108.507 74.6212 108.275 73.9199 108.941 72.3404Z" fill="#363636"/>
<path d="M90.7447 77.2261C91.2177 77.3516 91.5751 77.4839 91.539 78.1066C90.2278 78.5063 89.1709 78.135 88.0832 77.1462C89.1991 76.4407 89.7679 75.5221 90.1226 74.4993C89.8942 73.9902 89.3059 74.4753 89.0669 73.9238C89.2499 73.257 89.9694 73.2165 90.4946 72.9901C91.1268 72.7175 91.3827 73.2112 91.4688 73.7209C91.6171 74.5984 91.0884 75.287 90.7684 76.0412C90.6242 76.3807 89.8626 76.7517 90.7447 77.2261Z" fill="#363636"/>
<path d="M95.303 55.9496C96.0615 55.3614 96.4671 54.7048 96.3624 53.8496C95.8196 53.4847 95.4109 54.225 94.8388 53.8023C95.1861 52.6973 96.3502 51.9771 97.046 52.3682C98.6728 53.2827 97.3044 54.7424 97.2256 56.2341C97.2736 56.4892 98.065 56.1846 98.081 56.8057C98.0674 56.8554 98.0727 56.9858 98.0137 57.0301C97.0139 57.7799 96.0759 57.1762 95.1677 56.8219C94.8173 56.6852 94.8663 56.257 95.303 55.9496Z" fill="#363636"/>
<path d="M106.844 89.3411C106.636 89.7418 106.436 90.0329 106.346 90.3549C106.193 90.907 106.516 91.7859 105.538 91.7636C104.595 91.7421 103.637 91.5676 103.059 90.3864C104.139 90.2611 105.184 90.2284 105.529 89.0342C105.62 88.7199 105.924 88.4561 105.645 88.1054C105.356 87.7431 105.327 87.3986 105.723 87.0986C106.105 86.8088 106.532 86.765 106.951 86.9912C107.358 87.2107 107.402 87.6299 107.323 88.0146C107.236 88.436 107.046 88.8361 106.844 89.3411Z" fill="#363636"/>
<path d="M101.224 80.0727C101.987 79.5861 102.182 78.9184 102.243 78.1768C101.734 77.8639 100.81 78.8638 100.707 77.8173C100.638 77.116 101.56 77.0047 102.132 76.8462C103.046 76.5931 103.471 76.9935 103.47 77.9697C103.47 78.7172 103.122 79.3663 103.015 80.051C103.251 80.5334 103.956 80.4406 104.094 81.2228C102.964 81.6555 101.918 81.1292 100.904 80.7883C100.597 80.6851 100.884 80.2991 101.224 80.0727Z" fill="#363636"/>
<path d="M95.9206 79.5836C95.2372 79.4426 94.6516 79.348 94.381 78.5865C95.2084 78.0845 96.0895 77.5598 96.0497 76.3706C96.0197 75.8213 95.2061 76.1898 95.1456 75.54C95.249 74.9566 95.8211 74.8655 96.3193 74.7521C96.8465 74.6322 97.2871 74.7701 97.3628 75.4269C97.4373 76.0733 97.26 76.6696 97.0773 77.2791C96.9585 77.6756 96.6363 78.0903 96.9369 78.5268C97.9544 80.0042 97.0409 79.8413 95.9206 79.5836Z" fill="#363636"/>
<path d="M104.382 70.0282C104 70.2125 103.651 70.4017 103.42 70.0003C103.197 69.6141 103.488 69.3503 103.794 69.1862C104.259 68.9369 104.738 68.64 105.3 68.8627C105.764 69.0471 105.915 69.4516 105.922 69.9189C105.941 71.1322 104.92 72.3607 106.187 73.608C104.958 73.3306 103.844 73.3847 102.817 72.4955C104.123 72.0981 104.546 71.1896 104.691 70.0952C104.695 70.0644 104.637 70.0098 104.597 69.9934C104.556 69.9767 104.502 69.9935 104.382 70.0282Z" fill="#363636"/>
<path d="M112.458 61.283C113.74 60.5865 113.88 59.9823 113.094 58.7948C113.401 58.0851 114.005 57.9152 114.627 58.196C115.366 58.5295 115.177 59.2043 115.001 59.8373C114.594 61.2922 114.605 61.2952 114.964 62.438C113.551 63.0274 112.328 62.4995 112.458 61.283Z" fill="#363636"/>
<path d="M99.033 62.1472C99.4742 61.4954 100.055 61.2379 100.666 61.604C101.336 62.0047 101.053 62.6606 100.757 63.1421C100.184 64.0721 100.355 64.7982 101.279 65.3776C100.09 66.0899 98.7438 65.8129 97.438 64.5964C98.3108 64.0448 100.617 64.3315 99.033 62.1472Z" fill="#363636"/>
<path d="M103.872 51.1121C102.382 51.6033 101.343 50.812 99.9477 50.183C101.22 49.4166 102.219 48.7312 100.974 47.4915C101.357 46.8369 101.871 46.5661 102.477 46.8047C103.056 47.0325 102.931 47.6668 102.816 48.0867C102.498 49.2423 102.239 50.279 103.914 50.5199C104.082 50.544 104.05 50.8478 103.872 51.1121Z" fill="#363636"/>
<path d="M114.386 51.687C113.881 52.721 113.531 53.6508 114.305 54.6264C113.482 55.2959 112.619 54.8767 112.303 54.4572C111.62 53.5502 112.873 52.7822 112.781 51.7232C112.614 51.436 112.076 51.9753 111.823 51.4093C112.041 50.6589 112.741 50.4589 113.439 50.424C114.152 50.3884 114.435 50.8936 114.386 51.687Z" fill="#363636"/>
<path d="M93.1648 87.3123C94.0207 86.3674 95.0647 85.5808 94.0345 84.1998C94.5626 83.7575 95.1076 83.1929 95.7152 83.6619C96.3205 84.1292 95.9247 84.8192 95.654 85.3927C95.2406 86.2688 94.8705 87.1443 95.6756 88.1026C94.5452 88.4603 93.7554 88.2531 93.1648 87.3123Z" fill="#363636"/>
<path d="M138.763 72.4942C139.192 71.502 139.61 70.6488 140.786 70.592C141.09 71.5521 139.985 71.947 140.077 72.7581C140.415 73.2515 140.882 72.4786 141.322 72.9779C141.07 73.8009 140.528 74.2881 139.579 74.1514C138.671 74.0208 138.618 73.3414 138.763 72.4942Z" fill="#363636"/>
</svg>
