<svg width="213" height="213" viewBox="0 0 213 213" fill="none" xmlns="http://www.w3.org/2000/svg">
<path d="M123.387 196.68C124.716 196.861 125.866 197.52 126.98 196.69C126.647 192.377 125.06 190.997 119.548 190.2C118.249 190.972 118.913 192.603 118.161 193.547C117.288 193.845 116.745 193.228 116.817 192.747C117.376 188.966 115.457 185.298 117.183 181.316C120.471 173.727 123.054 165.833 125.91 158.058C126.352 156.856 126.801 155.641 127.062 154.393C127.815 150.808 126.055 148.315 122.475 147.735C121.813 147.627 121.158 147.473 120.542 147.35C120.346 146.024 121.821 146.485 122.009 145.685C117.437 139.499 100.768 140.439 97.387 147.402C102.115 147.811 106.66 147.32 111.291 146.742C110.029 148.357 110.033 148.408 108.071 148.578C105.122 148.834 102.165 149.007 99.2117 149.219C95.3853 149.495 94.8689 150.116 94.4799 154.077C93.8902 160.082 95.1279 165.842 96.7258 171.537C97.9238 175.807 99.3097 180.028 100.745 184.225C101.876 187.534 101.319 191.022 102.052 194.37C102.344 195.706 101.563 196.858 100.635 197.803C98.6076 199.868 96.2697 201.48 93.5631 202.538C92.2099 203.067 90.6975 203.497 89.9036 201.933C89.0459 200.243 89.5627 198.622 90.8074 197.309C92.4135 197.975 91.5357 199.295 92.3894 200.318C95.389 199.756 97.7794 198.115 99.5167 195.451C99.9781 194.744 100.072 193.943 99.5742 193.218C98.9557 192.317 98.1918 192.882 97.452 193.082C90.5017 194.963 88.9 194.552 84.7029 188.565C77.4102 178.163 71.8141 166.872 68.0863 154.716C67.3412 152.287 66.3338 151.358 63.7296 151.641C59.5162 152.1 55.2628 152.2 51.0244 152.414C48.8026 152.527 46.9067 151.867 45.7944 149.779C44.5852 147.508 45.5964 144.661 48.0862 144.024C52.1047 142.994 56.2075 143.674 60.3294 143.885C56.4392 145.875 51.844 144.515 47.7589 146.396C48.6016 147.998 49.7912 147.664 50.7796 147.638C55.2129 147.521 59.6228 146.772 64.0785 147.194C65.4511 147.324 66.512 146.701 66.5618 145.272C66.8519 136.954 72.7099 133.433 79.2309 130.556C83.2408 128.787 83.2887 128.895 83.7791 125.03C83.9639 125.039 84.2958 125.002 84.3141 125.062C85.6233 129.337 88.9241 128.972 92.3778 128.75C105.852 127.885 119.378 128.128 132.836 126.873C138.475 126.348 139.129 125.37 138.539 119.799C138.212 116.717 139.557 113.699 139.602 110.526C139.647 107.319 140.548 104.128 141.035 100.923C141.573 97.3794 141.059 96.6967 137.387 96.6795C132.951 96.6586 128.507 96.7186 124.077 96.9428C111.365 97.5862 98.6563 98.3169 85.9479 99.0424C81.8551 99.2761 81.2586 100.112 81.3982 104.15C81.5371 108.167 83.1853 112.033 82.6282 116.182C81.2891 116.031 81.3269 114.97 81.2369 114.215C80.7937 110.499 79.864 106.858 79.7318 103.089C79.5828 98.838 80.7088 97.4082 85.061 97.0711C90.3747 96.6595 95.6936 96.3142 101.011 95.9498C102.371 95.8565 103.605 95.654 103.678 93.8875C104.034 85.3473 104.4 76.8075 104.793 67.5365C99.5447 71.0194 95.9369 75.0164 93.5858 80.0743C91.7798 83.9596 89.7884 87.6838 86.5034 90.5169C85.0657 91.7568 83.5919 93.2017 81.3126 92.5975C81.0889 90.2912 83.7065 90.377 84.3772 88.6339C78.7338 84.6056 74.358 79.253 69.4974 74.3951C68.1327 73.0312 66.6348 72.7669 64.9861 73.9369C64.2631 74.4499 63.4711 74.8672 62.7589 75.3936C57.4921 79.2872 57.072 81.3922 60.5102 86.8772C63.9755 92.4052 67.97 97.5426 72.1228 102.565C73.0291 103.662 74.1478 104.674 74.4802 106.164C73.4947 106.72 73.0142 106.029 72.6146 105.575C67.4647 99.7205 62.2791 93.8666 58.3581 87.0907C54.8313 80.9958 55.454 78.5602 60.9924 74.2702C61.7723 73.6661 62.5493 73.0538 63.3665 72.503C66.8306 70.1678 68.788 70.4476 71.6429 73.4565C74.8336 76.8192 78.0478 80.1639 81.3596 83.4063C85.5067 87.4665 87.8265 87.1292 90.2397 81.8384C93.5284 74.628 98.0905 68.6224 105.108 64.728C106.365 64.0301 106.69 62.8585 107.136 61.6145C107.52 61.7705 107.85 61.8028 108.012 61.9849C113.012 67.6179 117.699 67.4856 122.417 61.5378C122.965 60.846 123.504 60.1055 123.852 59.3032C125.09 56.4575 125.997 53.4136 129.66 52.603C130.269 52.4683 130.782 51.5282 131.168 50.8613C131.622 50.0771 131.871 49.1673 130.963 48.4635C130.153 47.8351 129.415 47.9755 128.548 48.5527C125.621 50.5003 124.217 49.9037 124.341 46.4136C124.613 38.6934 121.805 39.5252 116.73 41.2128C115.435 41.6433 114.153 42.1112 112.847 42.5685C113.188 43.5108 114.552 43.5748 114.245 45.0716C111.971 45.081 109.612 45.0908 107.295 45.1004C106.152 48.1338 107.387 51.3903 106.081 54.5961C104.445 53.1476 104.679 51.5909 104.849 50.2045C105.058 48.493 104.425 47.5038 103.076 46.5161C97.0054 42.073 96.4978 36.7483 101.513 31.0098C102.064 30.3792 102.352 29.7695 102.402 28.9183C102.704 23.7478 104.775 20.9594 109.645 20.5668C116.181 20.04 122.329 20.9735 127.035 26.6088C128.395 28.2382 129.3 31.3292 132.692 30.7467C132.649 31.9 133.055 32.7147 133.919 33.4834C140.471 39.3171 138.635 56.512 127.915 58.4947C126.375 58.7795 125.774 59.8603 125.49 61.1352C125.183 62.5104 126.5 62.6536 127.32 63.0504C137.434 67.9447 144.267 76.0739 149.543 85.6889C153.126 92.2209 155.908 99.0276 156.273 106.632C156.575 112.932 153.442 117.077 148.27 120.048C147.869 120.278 147.387 120.543 146.881 120.106C146.887 119.038 147.836 118.625 148.489 118.177C154.451 114.082 155.263 108.225 153.778 101.871C150.643 88.4482 143.722 77.3303 132.754 68.8543C131.528 67.9071 130.304 66.8715 128.257 66.4815C126.835 74.4602 127.042 82.522 125.704 90.6592C128.238 89.2514 129.131 87.4846 128.659 84.4053C128.209 81.4614 128.362 78.948 131.199 77.1633C132.367 76.4279 132.562 75.0608 132.425 73.7061C132.318 72.6452 131.892 71.5832 132.389 70.5087C135.204 72.1276 135.417 76.6893 132.552 79.1081C131.132 80.3069 130.764 81.4931 130.931 83.1922C131.331 87.2779 130.837 90.9728 126.194 92.5301C125.679 92.7029 125.344 93.0654 125.37 93.6162C125.396 94.1749 125.772 94.5667 126.315 94.563C129.616 94.5405 132.916 94.4756 136.298 94.4237C136.333 90.7913 134.312 87.7372 135.192 83.6841C137.657 86.0477 137.858 88.6559 138.397 91.0268C138.844 92.994 138.881 94.8403 141.653 95.1053C143.316 95.2643 143.306 97.0849 143.352 98.4784C143.625 106.788 142.656 114.996 141.044 123.116C140.533 125.691 140.929 126.986 143.632 127.802C147.555 128.988 151.001 131.158 153.451 134.576C154.403 135.904 155.615 136.056 157.079 135.967C160.421 135.764 163.755 135.205 167.12 135.679C170.272 136.123 172.176 137.936 172.126 140.493C172.068 143.464 170.322 145.23 167.066 145.522C164.609 145.743 162.146 146.002 159.683 146.033C157.575 146.059 156.614 146.925 155.992 148.977C151.322 164.385 141.696 176.725 131.197 188.492C130.228 189.578 128.97 190.407 127.752 191.435C128.469 193.049 129.298 194.621 129.872 196.28C130.73 198.761 129.548 200.287 127.012 199.873C124.899 199.527 122.818 198.873 121.242 197.257C121.646 195.98 122.47 196.473 123.387 196.68ZM164.812 137.601C162.753 137.702 160.674 137.664 158.638 137.939C156.253 138.262 155.717 139.422 157.199 141.344C157.884 142.232 157.761 143.309 158.548 144.479C161.214 144.289 163.968 144.207 166.69 143.866C169.19 143.553 170.695 140.638 169.4 138.841C168.38 137.425 166.752 137.811 164.812 137.601Z" fill="#363636"/>
<path d="M52.1475 58.7711C53.8313 59.3802 55.1659 59.6129 56.2702 58.0239C56.8211 57.2312 57.7929 57.2644 58.7 57.668C60.9072 58.6501 65.1887 65.9458 65.1228 69.1336C62.2125 66.987 61.8642 63.3092 59.3496 61.2701C56.7314 63.6661 54.3746 61.0864 51.7699 60.8542C51.2779 61.6253 53.0419 61.9141 52.0133 62.9928C50.3741 62.5788 48.5069 62.1072 46.1083 61.5014C47.3074 62.975 49.3346 63.029 49.464 64.8253C48.9512 65.8718 48.0146 64.7064 47.5655 65.0663C48.5819 69.1525 54.1947 69.3321 54.7216 73.9845C51.018 70.4834 45.7259 70.1957 41.8508 67.2011C39.2221 65.1697 38.3023 62.1719 37.5896 58.8486C38.7396 58.5124 40.3911 59.2914 40.8391 57.1695C41.0859 56.0002 42.7869 56.0923 43.983 56.4247C46.6385 57.1627 49.2837 57.9376 52.1475 58.7711Z" fill="#363636"/>
<path d="M109.535 110.996C107.645 110.393 105.625 110.792 103.79 109.966C102.464 109.37 101.193 108.621 101.658 106.923C102.078 105.388 103.452 105.314 104.799 105.454C104.896 105.465 104.992 105.488 105.09 105.501C108.793 106.023 116.446 113.028 117.201 116.636C117.671 118.883 116.893 120.732 115.102 122.097C113.242 123.514 111.234 123.451 109.314 122.238C107.214 120.911 106.317 118.893 106.565 116.45C106.784 114.286 108.066 112.647 109.535 110.996Z" fill="#363636"/>
<path d="M98.4376 75.168C98.5678 74.3974 98.5359 73.7387 99.1735 73.645C103.842 78.6893 99.6414 85.3905 102.748 90.7508C100.019 89.6531 99.1667 87.1874 99.5378 85.0331C100.132 81.586 99.4974 78.5109 98.4376 75.168Z" fill="#363636"/>
<path d="M108.626 48.822C109.72 47.7176 109.72 47.7176 110.69 49.6111C112.053 49.6836 112.041 47.6508 113.701 47.8096C114.717 49.1067 113.775 50.5298 113.466 51.8066C112.903 54.1296 115.004 53.8223 116.056 54.5631C113.376 56.7441 111.974 56.4133 111.12 53.3335C110.65 51.6397 108.029 51.2885 108.626 48.822Z" fill="#363636"/>
<path d="M122.678 46.2518C120.155 47.1827 118.157 45.7732 115.563 45.3867C118.277 43.1237 120.657 43.4911 122.678 46.2518Z" fill="#363636"/>
<path d="M116.898 52.2569C114.817 50.8742 114.551 49.4347 116.199 47.8038C117.53 48.1536 116.337 49.6557 117.486 49.9437C118.715 50.0971 118.978 48.3974 120.432 48.5441C120.343 50.7465 119.44 52.1081 116.898 52.2569Z" fill="#363636"/>
<path d="M115.936 60.0249C114.857 60.1844 113.968 60.39 113.335 59.3826C113.988 57.8016 115.273 57.6712 116.455 58.2377C117.548 58.7618 116.921 59.4816 115.936 60.0249Z" fill="#363636"/>
</svg>
