<svg width="224" height="224" viewBox="0 0 224 224" fill="none" xmlns="http://www.w3.org/2000/svg">
<g clip-path="url(#clip0_63_118)">
<path d="M101.07 74.3603C99.541 73.9154 85.6916 71.7616 83.1753 71.5774C83.1313 71.5801 83.0899 71.5992 83.0594 71.631C83.0289 71.6628 83.0114 71.705 83.0105 71.7491C83.0144 71.7827 83.0269 71.8147 83.0468 71.842C83.0668 71.8694 83.0935 71.891 83.1244 71.9049C85.3288 72.445 99.3863 74.72 100.959 74.7574C101.183 74.7725 101.306 74.4267 101.07 74.3603ZM162.38 108.575C162.187 108.545 159.576 109.036 160.175 109.495L160.779 110.18C160.571 110.503 161.837 112.318 160.219 115.873C159.832 115.507 159.776 115.805 159.819 115.91C161.169 117.816 171.229 128.801 173.531 130.866C173.71 131.239 175.286 130.744 175.529 130.703C180.955 129.325 186.303 127.654 191.548 125.697C193.46 125.008 193.978 121.548 192.052 119.857C190.035 118.012 187.903 116.297 185.669 114.722L189.019 112.846C189.256 112.715 189.235 112.09 188.324 112.62C187.02 109.534 186.833 106.089 187.797 102.881C187.923 102.831 189.333 102.261 188.804 101.923C186.102 100.269 177.075 95.2654 174.157 94.624C173.204 94.4068 164.541 99.3724 163.625 100.503C161.684 102.834 161.699 105.845 162.423 108.611L162.38 108.575ZM160.427 116.054C161.554 115.154 161.703 112.228 161.438 110.885C162.593 112.149 171.954 121.792 174.992 124.454C176.213 128.59 173.89 130.142 173.913 130.442C168.879 125.644 164.981 120.451 160.427 116.054ZM191.882 120.502C193.362 121.58 192.46 124.971 191.241 125.196C185.566 127.184 179.992 128.901 174.209 130.438C175.069 129.59 175.638 128.49 175.832 127.298L183.721 125.407C183.867 125.361 183.76 125.157 183.65 125.169C181.03 125.615 178.44 126.216 175.893 126.972C176.02 126.033 175.87 125.077 175.462 124.222C177.865 123.678 190.365 119.477 191.882 120.502ZM177.349 108.22C180.548 106.314 183.852 104.592 187.246 103.061C186.839 104.197 186.61 105.39 186.568 106.596C186.072 106.676 179.571 110.045 179.236 110.23C179.096 110.306 179.19 110.528 179.356 110.475L186.565 107.059C186.556 108.448 186.894 111.667 188.025 112.701C186.583 113.542 179.465 117.574 177.924 117.335C176.942 116.041 176.365 114.485 176.266 112.863C176.167 111.241 176.551 109.627 177.368 108.223L177.349 108.22ZM177.38 99.7121C177.964 100.395 174.918 101.588 174.808 101.6C174.475 101.647 174.314 101.287 175.1 100.738C175.493 100.494 176.983 99.2853 177.379 99.7217L177.38 99.7121ZM171.881 100.504C172.512 99.6159 174.764 98.3287 175.702 97.8827C175.748 97.8601 175.798 97.8468 175.85 97.8436C175.901 97.8405 175.952 97.8474 176.001 97.8642C176.05 97.8809 176.095 97.9071 176.133 97.9412C176.172 97.9752 176.203 98.0166 176.226 98.0629C176.249 98.1091 176.262 98.1594 176.265 98.2108C176.268 98.2622 176.261 98.3137 176.245 98.3624C176.228 98.411 176.202 98.456 176.168 98.4945C176.133 98.5331 176.092 98.5646 176.046 98.5872C175.205 99.0482 172.865 100.647 172.235 100.954C172.189 100.971 172.139 100.976 172.09 100.968C172.041 100.96 171.995 100.941 171.956 100.91C171.925 100.89 171.898 100.863 171.877 100.831C171.856 100.8 171.842 100.765 171.834 100.728C171.827 100.691 171.828 100.653 171.835 100.616C171.843 100.58 171.858 100.545 171.88 100.514L171.881 100.504ZM164.553 101.071C168.51 102.835 172.356 104.839 176.068 107.074C176.298 107.238 176.146 107.648 175.856 107.544C171.906 105.751 168.068 103.721 164.363 101.466C164.323 101.434 164.295 101.39 164.283 101.34C164.272 101.29 164.277 101.238 164.299 101.192C164.322 101.146 164.359 101.109 164.405 101.087C164.451 101.065 164.503 101.059 164.553 101.071ZM162.577 109.079C166.769 112.384 174.809 117.008 177.96 117.991C178.59 118.188 184.402 115.324 185.356 114.831C185.83 115.467 190.072 118.82 191.143 119.736C189.415 119.556 176.07 123.419 175.086 123.848C170.363 119.019 165.446 114.102 160.558 109.445L162.587 109.081L162.577 109.079ZM119.565 58.4361C119.51 58.4029 119.445 58.3927 119.382 58.4076C118.76 58.666 114.781 62.624 113.986 63.3585C113.485 62.3929 112.973 61.4354 112.458 60.4971C112.357 60.3236 112.073 60.4372 112.138 60.6545C112.623 61.7853 113.162 62.8852 113.711 63.9865C113.803 64.1586 114.036 64.116 114.152 64.0057C114.878 63.3296 119.465 59.2688 119.711 58.7646C119.724 58.7334 119.729 58.7002 119.729 58.6668C119.728 58.6334 119.72 58.6005 119.707 58.5699C119.693 58.5394 119.674 58.5118 119.649 58.4889C119.625 58.4659 119.597 58.448 119.565 58.4361ZM98.0536 75.8049C92.257 75.0218 85.8704 73.9101 83.3526 73.7356C83.3015 73.7276 83.2494 73.7403 83.2076 73.7708C83.1659 73.8013 83.138 73.8472 83.13 73.8983C83.1221 73.9493 83.1348 74.0015 83.1653 74.0432C83.1958 74.085 83.2416 74.1129 83.2927 74.1208C86.2783 74.5852 95.5243 76.3387 97.9922 76.1997C98.2019 76.183 98.2083 75.8881 98.0536 75.8049ZM99.7708 66.1587C99.9634 66.1886 100.072 65.8702 99.8262 65.8023C97.9449 65.2138 86.2993 63.9847 83.4293 63.9822C83.3782 63.9743 83.3261 63.9869 83.2843 64.0175C83.2426 64.048 83.2147 64.0938 83.2067 64.1449C83.1988 64.196 83.2115 64.2481 83.242 64.2899C83.2725 64.3316 83.3183 64.3595 83.3694 64.3675C87.1448 64.9546 95.8174 65.7017 99.7196 66.1704L99.7708 66.1587ZM95.6381 67.4887C95.8018 67.5142 95.9394 67.2002 95.698 67.1035C94.7723 66.7129 85.1039 65.4559 83.6241 65.3935C83.6007 65.3934 83.5775 65.398 83.5558 65.4071C83.5342 65.4161 83.5146 65.4294 83.4982 65.4462C83.4818 65.463 83.4689 65.4828 83.4603 65.5047C83.4518 65.5265 83.4476 65.5498 83.4482 65.5733C83.4476 65.6115 83.4588 65.6491 83.4804 65.6807C83.502 65.7123 83.5328 65.7364 83.5687 65.7498C85.411 66.1448 94.4537 67.6202 95.6381 67.4887ZM115.348 75.9791C115.997 75.291 110.146 74.6671 109.855 74.8882C109.564 75.1093 109.199 79.1066 109.142 79.4726C109.054 80.0408 114.439 80.8685 114.677 80.7377C115.161 79.2079 115.409 77.6133 115.412 76.0089L115.348 75.9791ZM114.262 80.2294C113.752 80.15 109.957 79.6288 109.686 79.3401C109.897 77.9821 110.02 76.6203 110.182 75.2645L114.997 76.0134C114.606 77.3892 114.359 78.8022 114.262 80.2294Z" fill="#363636"/>
<path d="M179.084 113.303C180.556 112.714 182.055 112.148 183.49 111.483C183.692 111.386 183.56 111.03 183.33 111.113L178.974 113.059C178.948 113.078 178.93 113.104 178.921 113.135C178.913 113.165 178.916 113.198 178.929 113.226C178.942 113.255 178.964 113.278 178.992 113.292C179.021 113.307 179.053 113.31 179.084 113.303ZM167.731 122.368C167.628 122.273 167.445 122.432 167.546 122.547C168.378 123.534 172.602 127.584 173.528 128.478C173.648 128.595 173.798 128.392 173.688 128.276C171.905 126.42 169.678 123.993 167.731 122.368ZM111.67 71.9745C112.171 72.0524 116.02 73.1146 116.082 72.4634C116.144 71.8121 116.662 68.0952 116.43 67.9406C116.463 67.2849 111.507 66.9974 111.041 67.0137C110.761 66.9703 110.293 70.7443 110.242 71.2C110.169 71.8594 111.239 71.8878 111.67 71.9745ZM116.145 68.1232L115.515 72.1779C113.918 71.7587 112.29 71.4725 110.647 71.3222C110.916 70.0124 111.096 68.6859 111.185 67.3518C111.985 67.4762 115.615 68.169 116.145 68.1232ZM173.604 126.596C173.625 126.62 173.654 126.636 173.685 126.641C173.717 126.646 173.749 126.639 173.777 126.623C173.799 126.605 173.814 126.579 173.818 126.55C173.823 126.522 173.817 126.493 173.801 126.469C169.877 122.653 166.08 118.205 162.203 114.594C162.093 114.478 161.872 114.631 161.978 114.776C164.045 117.465 170.786 124.037 173.635 126.65L173.604 126.596ZM117.743 61.6544C117.736 61.6093 117.712 61.5685 117.676 61.5408C117.64 61.5131 117.594 61.5006 117.549 61.5058C117.519 61.5082 117.49 61.5183 117.465 61.5351C117.44 61.5519 117.42 61.575 117.406 61.6019L116.882 64.9728L111.546 64.143C111.694 62.5764 111.761 61.0032 111.747 59.4296C113.242 59.7339 114.758 59.93 116.281 60.0165C116.317 60.0109 116.349 59.9932 116.373 59.9663C116.397 59.9395 116.411 59.9052 116.413 59.8693C116.411 59.8479 116.404 59.8273 116.393 59.8086C116.382 59.79 116.368 59.7738 116.351 59.761C116.012 59.59 111.613 58.5113 111.628 59.3027C111.185 59.2338 111.082 64.1497 111.082 64.1497C111.221 64.7731 112.225 64.7221 112.736 64.8015C113.246 64.8809 116.777 65.5188 117.079 65.477C117.57 65.3659 117.79 62.2436 117.775 61.6396L117.743 61.6544Z" fill="#363636"/>
<path d="M197.22 163.5C184.833 162.343 172.46 161.077 160.101 159.7C160.214 157.919 160.161 156.131 159.945 154.359C172.194 155.936 184.452 157.457 196.718 158.924C196.781 158.926 196.844 158.908 196.896 158.871C196.948 158.835 196.986 158.783 197.006 158.722C197.026 158.648 197.016 158.57 196.978 158.503C196.941 158.436 196.878 158.387 196.805 158.366C184.483 156.916 172.178 155.387 159.887 153.778C158.565 143.255 153.959 132.724 148.031 124.029C148.208 121.433 148.399 120.141 147.701 117.399C146.339 112.206 144.156 110.83 144.034 111.995C143.986 112.299 143.988 112.61 144.039 112.913C143.729 112.372 141.355 108.984 140.53 110.484C140.146 110.149 139.691 109.906 139.2 109.771C138.709 109.637 138.193 109.615 137.692 109.707C136.34 106.537 133.326 106.069 131.55 104.806C128.17 102.308 130.821 96.4266 133.883 94.5553C133.883 94.5553 145.543 96.1417 145.575 95.9987C146.21 93.3061 154.983 52.1863 154.983 52.1863C126.428 47.1636 95.5207 42.9389 67.0001 39.0952C66.8075 39.0652 66.6243 39.165 66.6166 39.3413C66.0617 54.1989 65.6258 84.7192 65.6258 84.7192C66.2758 85.1063 129.386 93.9151 133.161 94.443C131.278 95.9491 130.038 98.1157 129.694 100.503C128.943 106.6 134.169 104.769 137.427 109.823C134.695 110.523 133.863 113.718 134.465 116.189C134.57 116.661 134.742 117.116 134.975 117.54C134.874 118.452 134.995 119.374 135.326 120.229C136.195 122.761 138.265 123.911 138.326 124.276C137.479 129.727 137.591 136.551 137.853 142.036C134.483 139.539 124.314 133.253 113.174 131.185C114.668 125.765 119.543 125.813 119.462 122.023C121.467 122.256 123.473 122.489 125.482 122.702C125.982 122.78 125.673 121.154 125.656 120.885C125.401 117.196 125.142 113.512 124.879 109.835C124.828 109.334 124.773 106.011 124.301 105.938L118.071 105.087C116.906 103.574 113.773 102.594 112.229 103.902C110.879 99.8947 104.843 99.5084 104.09 103.08C102.635 101.72 100.252 101.122 98.5448 102.396C98.3802 102.439 69.185 98.303 64.8241 97.8023L64.7471 97.7904C64.6956 97.8128 64.655 97.8546 64.634 97.9066C64.613 97.9587 64.6133 98.0169 64.6347 98.0688C64.6339 98.5816 60.2719 110.075 59.5285 112.889C59.4656 113.294 63.8374 113.915 64.2901 113.985C56.9346 120.308 50.0599 127.663 46.8974 137.025C36.425 135.229 25.9677 133.336 15.4639 131.742C15.4128 131.734 15.3607 131.747 15.3189 131.777C15.2772 131.808 15.2493 131.853 15.2413 131.905C15.2334 131.956 15.2461 132.008 15.2766 132.049C15.3071 132.091 15.3529 132.119 15.404 132.127C25.7832 134.205 36.2543 135.883 46.7016 137.586C46.093 139.447 45.6631 141.362 45.4176 143.305C35.0491 141.475 24.6986 139.53 14.3337 137.741C14.1025 137.705 14.0071 138.065 14.2767 138.107C24.5959 140.254 34.9866 142.067 45.3834 143.842C44.8398 149.114 45.9033 155.849 50.6615 158.995C52.1266 163.465 56.0158 167.887 61.1613 167.592C60.9 168.321 60.6453 169.07 60.381 169.818C60.2693 170.156 60.7669 170.382 60.8786 170.044C63.4806 162.636 66.1464 155.199 69.7659 148.226C69.8789 148.007 69.5457 147.866 69.4246 148.074C66.0223 154.095 63.6188 160.606 61.3258 167.105C56.1157 167.054 52.5562 163.176 51.13 158.457C50.3561 155.96 50.0924 153.332 50.3546 150.731C50.6168 148.13 51.3994 145.608 52.6561 143.316C56.3338 136.983 64.0844 133.257 71.4732 131.032C78.9804 128.806 86.8141 127.886 94.6328 128.311C94.3819 133.54 100.024 136.202 104.573 136.634C109.123 137.065 112.005 136.103 113.097 131.617C113.155 131.626 129.308 134.503 141.848 146.031C145.533 149.415 148.722 153.521 150.212 158.34C151.677 162.997 151.603 168.42 148.976 172.628C145.2 178.768 140.024 178.94 136.601 179.009C136.519 171.773 135.306 164.595 133.004 157.735C132.943 157.558 132.657 157.622 132.717 157.809C134.996 165.738 136.114 173.956 136.034 182.205C135.996 182.456 136.486 182.601 136.535 182.283C136.633 181.396 136.654 180.501 136.596 179.61C140.277 179.862 143.909 178.655 146.706 176.25C154.711 175.522 159.367 167.714 160.037 160.302C172.417 161.714 184.806 162.983 197.204 164.109C197.56 164.037 197.509 163.545 197.22 163.5ZM66.6109 78.6384C66.5899 66.0882 66.9548 53.6572 67.1183 41.1258C96.0892 45.1184 125.701 49.9406 154.274 53.891L146.431 89.6709C134.344 88.1661 68.2559 78.2728 66.6109 78.6384ZM119.43 121.465C119.334 120.924 119.065 120.429 118.663 120.054C119.286 119.338 119.699 118.463 119.855 117.527L120.375 117.608L120.498 121.572L119.43 121.465ZM119.719 114.28C119.904 114.173 120.079 114.048 120.241 113.907C120.311 114.974 120.344 116.034 120.376 117.095L119.914 117.023C120.104 116.108 120.037 115.159 119.719 114.28ZM125.248 122.114L120.787 121.617C120.874 120.299 120.823 118.979 120.789 117.672C122.167 117.933 123.558 118.114 124.957 118.212C125.053 119.499 125.153 120.817 125.248 122.114ZM124.939 117.755L120.798 117.111L120.666 113.392L124.681 113.898L124.939 117.755ZM124.62 113.464L120.836 112.994C120.98 112.548 121.02 112.076 120.953 111.613C120.887 111.15 120.716 110.708 120.453 110.32C120.44 110.022 120.429 109.715 120.398 109.404L124.38 109.935L124.62 113.464ZM124.216 106.358C124.278 107.354 124.31 108.415 124.347 109.446L120.378 108.898C120.334 107.854 120.229 106.814 120.064 105.782L124.216 106.358ZM119.94 109.876C119.505 109.59 118.981 109.47 118.464 109.538C118.527 109.425 118.581 109.308 118.627 109.188L119.898 109.386L119.94 109.876ZM119.6 105.719C119.624 106.759 119.706 107.796 119.847 108.825L118.778 108.659C119.054 107.609 118.925 106.494 118.416 105.535L119.6 105.719ZM96.2193 102.507L98.078 102.796C97.5911 103.342 97.3382 104.057 97.3738 104.788L95.6631 105.005C95.869 104.189 96.0994 103.278 96.2193 102.507ZM95.6992 102.426L95.2813 105.114C95.1031 105.185 94.929 105.267 94.7599 105.358L90.1925 104.727C90.39 103.734 90.5167 102.728 90.5716 101.718L95.6992 102.426ZM92.5908 109.094L89.557 108.623L90.0812 105.252L94.0404 105.798C93.5516 106.191 93.1647 106.695 92.9123 107.269C92.6599 107.843 92.5496 108.469 92.5908 109.094ZM88.8828 113.085L91.512 113.494C91.4185 114.34 91.6045 115.193 92.0416 115.924C91.6897 116.094 91.3877 116.352 91.1649 116.674C90.9421 116.995 90.8061 117.368 90.77 117.758L88.1696 117.353C88.4232 115.913 88.6626 114.5 88.8828 113.085ZM91.9533 112.369C91.8376 112.557 91.7436 112.757 91.673 112.966L89.0148 112.553L89.5555 109.076L92.6663 109.56C92.7861 110.167 93.0839 110.725 93.5218 111.163C92.8716 111.381 92.3084 111.801 91.9148 112.363L91.9533 112.369ZM87.8822 117.299L75.9493 115.443C76.3322 113.806 76.3687 112.746 77.6594 111.487L88.4367 113.035C88.2069 114.449 88.0157 115.87 87.8436 117.293L87.8822 117.299ZM78.1367 111.019C79.2965 110.162 80.2452 109.051 80.9105 107.771L83.3183 108.146L82.7686 111.68L78.1367 111.019ZM85.0655 100.97L90.1256 101.668C89.9162 102.657 89.7607 103.657 89.6598 104.663L84.5708 103.961C84.725 102.969 84.8904 101.969 85.0655 100.97ZM84.4499 104.484L89.5582 105.19L89.0339 108.561L83.8717 107.758C84.0425 106.66 84.2117 105.572 84.4499 104.484ZM83.8013 108.211L89.0117 109.021L88.471 112.498L83.0382 111.722C83.2995 110.549 83.5355 109.412 83.8013 108.211ZM80.1017 100.287L84.7269 100.927L84.1551 103.906L79.4432 103.252C79.7122 102.276 79.9034 101.28 80.015 100.273L80.1017 100.287ZM79.3238 103.766L84.0646 104.425L83.4687 107.686L81.1091 107.319C81.307 106.807 81.6537 105.973 81.0727 105.587C80.4916 105.2 79.6698 106.552 78.4332 106.893C78.7039 105.85 78.9649 104.805 79.2356 103.762L79.3238 103.766ZM75.7365 99.6868L79.7246 100.238C79.4325 101.21 79.1902 102.196 78.9987 103.193L78.6712 103.142C79.2427 102.195 77.1101 101.193 74.9248 102.559C75.0301 102.073 75.6278 100.005 75.6498 99.6734L75.7365 99.6868ZM78.7851 103.742C78.5545 104.781 78.3349 105.812 78.1042 106.851L76.6018 106.618C76.4447 105.725 77.0436 103.777 77.8606 103.598L78.7659 103.739L78.7851 103.742ZM75.1541 99.6259L74.5357 102.588L72.7347 102.307C72.2527 100.713 72.8806 99.657 72.2329 99.1913L75.1541 99.6259ZM74.2207 103.091C73.9554 103.334 73.7205 103.609 73.5213 103.909L72.9449 102.922L74.2207 103.091ZM68.5952 98.734L71.6957 99.1571C70.6607 99.4696 70.2616 101.084 70.1224 101.98L68.6681 101.754C68.2428 101.254 67.965 101.645 67.599 101.588L68.5849 98.6733L68.5952 98.734ZM69.9724 103.959C69.4934 103.519 69.1349 102.965 68.9309 102.347L70.0192 102.516C69.9569 102.993 69.9284 103.473 69.9339 103.953L69.9724 103.959ZM66.5599 104.908L67.4625 102.148C67.2139 103.111 67.1822 104.117 67.3695 105.093L66.5599 104.908ZM67.4496 105.53C67.6392 106.911 68.0202 108.203 68.0832 109.574L65.1849 109.182L66.3724 105.352L67.4496 105.53ZM65.011 98.1865L68.1699 98.6778C67.8372 99.6124 67.502 100.626 67.1714 101.61C66.1216 101.447 65.0532 101.34 63.996 101.225C64.3828 100.231 64.7089 99.214 64.9724 98.1805L65.011 98.1865ZM63.8671 101.609L66.9972 102.096C66.703 103.036 66.3991 103.976 66.1057 104.847L62.8793 104.345C63.1928 103.408 63.5115 102.501 63.8286 101.603L63.8671 101.609ZM62.7884 104.677C63.8388 104.899 64.8937 105.093 65.9501 105.277C65.5649 106.548 65.1478 107.835 64.7708 109.118C63.644 108.943 62.5052 108.844 61.3708 108.717C61.8466 107.371 62.3126 106.023 62.7884 104.677ZM63.6567 113.364L59.9392 112.785C60.3807 111.532 60.8303 110.29 61.2895 109.05L64.618 109.656C64.2209 110.872 63.8872 112.107 63.6182 113.358L63.6567 113.364ZM63.9264 113.406L65.0938 109.642L68.089 110.107C68.0781 110.368 68.0379 110.626 67.9692 110.878L64.7821 113.549L63.9264 113.406ZM52.7649 141.982C51.2393 144.373 50.2441 147.064 49.8464 149.873C49.4488 152.681 49.6579 155.543 50.4597 158.264C42.1164 150.515 46.2662 136.897 51.6182 128.615C55.9977 121.829 62.1037 116.436 68.296 111.313C69.2028 110.557 67.6205 104.304 67.757 102.855C67.8655 101.777 68.343 101.624 68.6195 102.447C68.8961 103.269 69.3295 104.224 70.0811 104.528C70.2485 105.482 70.5342 105.23 70.5182 105.08C70.4379 103.44 70.2216 101.088 71.5087 99.7889C72.4379 98.8878 72.117 100.761 72.1371 101.139C72.1838 102.044 72.7003 103.861 73.3539 104.288C73.0068 104.934 73.4488 104.756 73.4911 104.674C75.4174 101.294 79.5179 102.455 78.0318 103.131C77.6432 103.288 77.2959 103.532 77.0165 103.844C76.7371 104.157 76.533 104.529 76.42 104.932C75.4001 108.256 78.1569 108.162 80.4708 106.095C81.4296 105.258 81.1461 107.334 79.5402 109.225C78.1763 110.828 76.6039 111.234 76.0696 113.528C74.7058 119.126 72.4875 125.716 70.9315 130.583C64.0557 132.68 56.8662 135.843 52.7249 141.985L52.7649 141.982ZM71.4728 130.401C73.1747 125.65 74.6157 120.81 75.7893 115.901L90.727 118.225C90.7838 121.538 94.7229 122.594 94.5893 127.703C86.7857 127.259 78.9643 128.172 71.4728 130.401ZM113.344 128.952C112.986 129.673 112.709 130.43 112.519 131.211C111.499 135.235 109.554 136.323 104.965 135.955C100.088 135.601 95.1049 133.267 95.1802 127.962C95.2539 123.239 93.7078 123.413 91.8322 119.807C91.2693 118.733 90.9122 116.843 92.3774 116.301C92.9267 117.132 93.67 117.816 94.5432 118.295C95.897 123.29 95.7628 128.783 101.718 130.321C113.241 133.227 111.611 126.454 116.184 121.473C116.956 121.252 117.681 120.89 118.322 120.405C118.688 120.822 118.903 121.35 118.934 121.904C118.964 122.457 118.807 123.005 118.489 123.459C117.19 125.595 114.782 126.108 113.344 128.952ZM140.569 111.062C140.782 111.845 141.007 112.619 141.192 113.398C140.814 112.718 138.895 109.835 137.915 111.063C137.411 111.705 138.076 112.884 138.316 113.562C136.987 113.59 135.721 114.127 134.778 115.063C134.241 110.393 138.942 108.836 140.569 111.062ZM135.196 116.943C135.083 116.462 134.962 115.97 134.84 115.487C135.839 114.629 137.083 114.108 138.396 113.999C138.764 115.201 138.928 116.457 138.883 117.714C138.76 120.22 137.146 118.164 136.363 117.174C136.064 116.753 135.49 116.506 135.147 116.936L135.196 116.943ZM147.448 175.478C151.331 171.505 152.363 165.757 151.298 160.422C149.789 152.879 144.335 146.911 138.32 142.395C137.964 136.375 138.066 130.337 138.623 124.332C138.764 123.427 135.797 122.334 135.397 118.632C135.324 117.96 135.231 116.209 136.207 117.604C137.184 118.999 138.994 120.424 139.321 117.753C139.695 114.585 137.884 112.153 138.187 111.471C138.567 110.612 140.087 112.575 140.331 112.909C140.955 113.854 141.499 114.849 141.959 115.884C142.041 116.055 142.325 115.941 142.251 115.782C142.087 115.362 141.915 114.94 141.738 114.518C141.943 114.215 140.685 110.883 141.039 110.642C141.392 110.401 142.623 111.618 142.892 111.916C144.283 113.563 144.215 114.509 144.652 115.317C144.675 115.329 144.702 115.334 144.729 115.329C144.763 115.337 144.798 115.332 144.828 115.314C144.859 115.297 144.881 115.269 144.891 115.236C144.929 114.61 144.627 114.208 144.519 113.757C144.412 113.307 144.204 112.298 144.497 111.998C144.628 111.92 145.216 112.514 145.281 112.603C145.821 113.311 146.242 114.103 146.524 114.947C148.688 120.442 147.297 123.55 147.721 124.119C153.751 133.491 159.686 146.763 159.573 157.892C159.468 165.609 155.72 174.042 147.4 175.47L147.448 175.478Z" fill="#363636"/>
<path d="M93.9049 59.7325C94.1369 59.6995 94.0996 59.3682 93.9018 59.3078C90.3857 58.8301 86.669 58.183 83.1965 57.7416C82.9268 57.6996 82.9009 58.1198 83.1261 58.1942C84.8532 58.7588 92.2905 59.9647 93.9049 59.7325ZM177.842 125.539C179.24 125.174 186.036 123.588 186.865 123.272C186.881 123.262 186.895 123.248 186.905 123.232C186.916 123.216 186.923 123.198 186.926 123.178C186.929 123.159 186.928 123.14 186.923 123.121C186.918 123.102 186.908 123.085 186.896 123.07C186.884 123.044 186.865 123.022 186.842 123.007C186.818 122.991 186.791 122.982 186.762 122.98C185.092 123.066 179.464 124.745 177.711 125.301C177.614 125.355 177.698 125.575 177.842 125.539ZM116.763 92.8792L96.2978 90.0121C95.6345 100.049 115.412 103.283 116.763 92.8792ZM120.059 71.691C120.052 71.7328 120.062 71.7755 120.086 71.8104C120.11 71.8453 120.146 71.8698 120.187 71.8787C123.44 72.4635 130.314 73.7397 132.98 73.7893C133.192 73.8222 133.18 73.4554 133.035 73.4329C129.346 72.8593 124.02 72.031 120.286 71.5588C120.263 71.549 120.237 71.5448 120.212 71.5465C120.187 71.5483 120.162 71.5558 120.14 71.5686C120.118 71.5814 120.099 71.5991 120.085 71.6203C120.071 71.6416 120.062 71.6658 120.059 71.691ZM94.3755 52.9009C94.6451 52.9428 94.5895 52.5396 94.3739 52.4666C87.7082 51.6273 80.4625 50.6484 73.968 49.7863C73.9458 49.7864 73.9239 49.791 73.9035 49.7997C73.8831 49.8085 73.8647 49.8213 73.8493 49.8373C73.8339 49.8533 73.8219 49.8722 73.814 49.8929C73.8061 49.9137 73.8024 49.9358 73.8032 49.958C73.8035 49.9926 73.8147 50.0262 73.8351 50.0542C73.8556 50.0821 73.8842 50.103 73.9171 50.1138C78.5742 51.1833 88.2268 52.1617 94.3755 52.9009ZM98.4264 51.272C98.6479 51.3065 98.7752 50.9317 98.4908 50.8579C96.3739 50.2624 75.0451 47.3004 73.511 47.3972C73.3665 47.3748 73.3312 47.6652 73.4661 47.6861C78.9283 48.5258 92.0753 50.1857 98.4264 51.272ZM46.2406 113.782C47.1961 112.525 47.9923 111.155 48.6112 109.702C48.8713 109.21 48.999 108.659 48.9818 108.103C48.9645 107.547 48.8028 107.005 48.5126 106.53C48.999 105.705 49.3246 104.795 49.4722 103.848C49.5237 102.249 47.8426 102.086 46.7597 103.15C42.3992 107.404 37.2137 114.489 36.4081 120.43C36.2972 120.699 36.3923 121.039 36.6786 120.847C41.6133 117.276 45.5891 112.54 48.2524 107.062C49.1777 109.04 46.8381 111.843 45.8631 113.546C45.739 113.773 46.0825 113.974 46.2406 113.782ZM36.8355 120.092C37.0723 119.034 37.3856 117.995 37.7728 116.983L39.0897 118.282C38.3559 118.879 37.5982 119.5 36.8355 120.092ZM48.1792 106.074C47.6121 105.425 46.8862 104.935 46.0725 104.651C46.4857 104.114 46.9589 103.625 47.4829 103.194C47.9792 102.857 48.8329 102.822 48.977 103.545C48.9256 104.435 48.6524 105.297 48.1822 106.055L48.1792 106.074ZM80.3199 60.8255C79.8692 60.933 76.8315 64.2286 76.2785 64.8035C75.8339 63.9717 75.2924 63.1955 74.6653 62.491C74.628 62.4661 74.583 62.4556 74.5386 62.4614C74.4942 62.4672 74.4533 62.4889 74.4237 62.5225C74.4038 62.5575 74.3975 62.5986 74.4057 62.6381C74.815 63.6227 75.3309 64.5596 75.944 65.4321C75.9657 65.465 75.994 65.4931 76.0272 65.5145C76.0604 65.5359 76.0977 65.55 76.1368 65.5561C76.1758 65.5622 76.2156 65.56 76.2538 65.5497C76.2919 65.5395 76.3274 65.5213 76.3581 65.4965L76.3656 65.4483L80.1956 61.6249C80.736 61.0678 80.6632 60.7112 80.3199 60.8255ZM138.892 64.7561C139.095 64.7875 139.193 64.4083 138.957 64.3419C132.994 63.1086 126.958 62.2589 120.887 61.7981C120.685 61.7666 120.649 62.126 120.833 62.1448C125.385 62.8132 133.886 64.2833 138.892 64.7561Z" fill="#363636"/>
<path d="M79.4123 66.6619C79.8215 66.5677 79.4973 63.5779 79.4618 63.1087C79.4618 63.088 79.4577 63.0675 79.4497 63.0483C79.4418 63.0292 79.4301 63.0118 79.4155 62.9971C79.4008 62.9825 79.3834 62.9709 79.3642 62.963C79.3451 62.9551 79.3246 62.951 79.3038 62.951C79.2831 62.951 79.2626 62.9551 79.2434 62.9631C79.2243 62.971 79.2069 62.9826 79.1923 62.9973C79.1776 63.012 79.166 63.0294 79.1581 63.0485C79.1502 63.0677 79.1461 63.0882 79.1461 63.1089C79.1014 64.1574 79.0552 65.2156 79.0906 66.2568C77.4627 66.1318 76.0099 65.896 74.4296 65.7193C74.3354 64.4224 74.3396 62.7461 74.1091 61.4378C75.3046 61.7281 76.5224 61.9175 77.7496 62.004C78.549 62.1283 78.5691 61.6185 77.8838 61.5218C77.4793 61.4589 74.0418 60.8553 73.9774 61.2694C73.5248 61.199 73.8507 65.3827 73.8665 65.6613C73.869 65.7109 73.8872 65.7584 73.9184 65.7969C73.9497 65.8355 73.9923 65.8631 74.0403 65.8758C74.078 66.3946 79.1559 67.1054 79.4123 66.6619ZM138.263 72.3521C138.261 72.3134 138.245 72.2766 138.219 72.2476C138.194 72.2186 138.159 72.199 138.121 72.1918C132.308 71.1301 126.024 70.4388 120.112 69.5095C119.939 69.4825 119.884 69.77 120.064 69.8177C125.192 70.9702 133.172 72.4283 138.105 72.5445C138.151 72.5379 138.192 72.5145 138.221 72.4789C138.251 72.4433 138.266 72.3981 138.263 72.3521ZM75.2655 58.8854C76.6107 59.1332 77.9721 59.2822 79.339 59.3315C80.144 59.6737 79.6808 54.2159 79.5642 53.9512C79.551 53.9027 79.5224 53.8597 79.4828 53.8286C79.4432 53.7976 79.3947 53.7802 79.3444 53.7789C78.4776 53.6441 74.4518 53.018 73.8641 53.0549C73.2576 52.3884 73.5304 57.2938 73.5865 57.8845C73.7175 58.8814 74.3699 58.7461 75.2655 58.8854ZM73.9288 53.4003C75.6721 53.8937 77.4633 54.1987 79.2716 54.3101L79.196 58.8555L74.109 58.3307C74.1984 58.0092 73.9455 54.0539 73.9288 53.4003ZM134.552 66.1525C134.603 66.1604 134.655 66.1478 134.697 66.1173C134.739 66.0868 134.767 66.0409 134.775 65.9898C134.783 65.9388 134.77 65.8866 134.739 65.8449C134.709 65.8031 134.663 65.7752 134.612 65.7673C133.455 65.3408 123.132 64.1101 120.975 63.9621C120.811 63.9366 120.767 64.2159 120.93 64.251C122.078 64.4789 133.361 66.2632 134.552 66.1525ZM48.9294 84.125C49.1124 84.1534 50.5902 83.5941 50.7133 84.8956C50.8897 86.6788 52.7836 85.9179 53.2666 84.6515C53.8746 83.0889 52.5313 81.578 50.7111 81.2949C47.0127 80.7197 47.3615 84.0587 48.9294 84.125ZM50.6526 81.6705C52.7224 82.0615 53.6978 84.2254 52.2564 85.1849C51.028 85.9802 51.3592 84.6114 50.923 83.9911C50.0327 82.8663 49.0232 83.9028 48.5121 83.3203C47.458 82.1699 49.92 81.4974 50.6526 81.6705ZM75.6484 69.4895C74.1363 69.2543 74.1175 68.9949 74.0809 70.4984C74.0743 70.9215 73.9175 73.8958 74.4138 74.0026C74.4479 74.4813 78.7977 74.9901 79.3721 74.9118C80.1137 75.0271 79.7271 72.6292 79.7675 72.3692C79.6531 68.9188 80.2811 70.0817 75.6484 69.4895ZM74.6891 73.8185C74.637 72.5676 74.7042 70.9307 74.5372 69.7211C76.0901 70.1204 77.6897 70.3095 79.293 70.2831C79.1824 71.6393 79.1849 73.0023 79.3004 74.3581C77.7875 74.1919 76.2153 74.0263 74.6891 73.8185ZM142.124 57.4859C140.377 57.0466 114.83 53.2411 111.555 52.9882C111.512 52.9889 111.471 53.0061 111.44 53.0363C111.41 53.0665 111.392 53.1074 111.391 53.1503C111.393 53.1845 111.405 53.2175 111.425 53.2452C111.445 53.2729 111.473 53.2941 111.505 53.3061C114.228 53.8774 140.059 57.8256 142.058 57.9096C142.114 57.9184 142.172 57.9044 142.218 57.8709C142.263 57.8373 142.294 57.7869 142.303 57.7307C142.312 57.6745 142.298 57.6172 142.264 57.5712C142.231 57.5253 142.18 57.4946 142.124 57.4859ZM97.5584 57.8051C97.7874 57.7914 97.7568 57.4808 97.5701 57.4123L82.8837 55.5031C82.8621 55.5021 82.8405 55.5056 82.8203 55.5133C82.8001 55.5211 82.7818 55.533 82.7664 55.5482C82.7511 55.5635 82.739 55.5817 82.7311 55.6019C82.7232 55.622 82.7196 55.6436 82.7204 55.6652C82.7208 55.6998 82.7319 55.7334 82.7523 55.7614C82.7728 55.7893 82.8014 55.8101 82.8343 55.821C86.4618 56.6613 94.2702 57.9546 97.5584 57.8051ZM151.356 93.8991C151.309 94.6415 150.906 102.056 151.093 102.627C152.435 106.683 159.509 107.882 160.527 102.349C161.156 100.079 163.122 93.5886 163.012 91.8847C163.202 91.3619 164.126 89.0988 164.425 87.8729C164.457 87.6706 165.697 82.2312 164.797 82.9493C163.555 84.1585 162.418 85.4697 161.395 86.869C161.169 87.4355 160.945 87.9924 160.71 88.5478C160.309 88.3209 159.884 88.139 159.443 88.0055C159.505 87.6107 159.515 85.6395 159.5 84.8481C159.036 83.4542 158.532 82.1921 158.163 80.7635C157.657 78.6233 157.644 78.5818 157.068 80.761C156.331 82.9575 155.973 85.2632 156.008 87.5798C151.504 87.8066 151.557 90.4484 151.346 93.8976L151.356 93.8991ZM163.539 84.9436C163.64 85.0759 163.767 85.1852 163.913 85.264C164.059 85.3429 164.22 85.3895 164.386 85.4007L164.008 87.8277C163.596 87.804 163.193 87.6975 162.824 87.5146C162.454 87.3316 162.125 87.076 161.856 86.7631C162.431 86.1719 163.029 85.5645 163.539 84.9436ZM161.759 87.2609C162.326 87.8137 163.054 88.1721 163.839 88.2847C163.242 90.0266 162.647 91.7589 162.117 93.521C161.607 94.645 159.942 94.8202 158.879 94.8029C159.91 92.3591 160.817 89.6988 161.763 87.232L161.759 87.2609ZM158.727 94.069C158.643 94.3035 158.572 94.5429 158.517 94.786L156.158 94.4783L156.606 85.2561C157.021 85.4553 157.478 85.5501 157.938 85.5323C158.398 85.5144 158.847 85.3845 159.246 85.1537C159.246 85.1537 158.528 93.8901 158.732 94.0401L158.727 94.069ZM157.201 82.1922C157.342 82.2536 157.495 82.2855 157.649 82.2857C157.804 82.286 157.956 82.2546 158.098 82.1936L159.049 84.768C158.663 84.972 158.235 85.0838 157.799 85.0946C157.362 85.1055 156.93 85.0151 156.534 84.8306C156.659 83.9195 156.884 83.0249 157.205 82.1633L157.201 82.1922ZM162.15 94.325C161.599 96.7251 160.494 101.801 159.511 103.996C157.941 106.799 153.108 106.097 151.45 102.742C151.565 99.3372 151.69 95.8745 151.807 92.5193C153.202 95.4094 160.253 96.1805 162.154 94.2962L162.15 94.325Z" fill="#363636"/>
<path d="M31.0294 84.8034C32.3762 85.7969 33.8308 86.6352 35.3655 87.3026C31.6357 91.0528 39.4912 98.4493 48.0333 96.4832C51.9512 95.5833 56.3678 91.4763 53.2609 87.669C57.5971 85.1573 59.6531 80.8805 60.2547 75.9336C61.1846 68.3054 58.7017 62.1982 51.3059 59.2034C47.6619 57.7303 43.6515 57.4202 39.8243 58.3154L38.7329 55.5022C39.2437 55.3251 39.7724 55.1608 40.2869 55.0238C41.6256 54.7881 41.3856 53.794 40.5909 53.9564C24.999 57.0455 18.5715 75.9218 31.0294 84.8034ZM35.5859 86.6464C35.466 85.6414 36.3382 84.7906 36.1643 83.6884C35.7818 81.0741 32.3307 82.017 31.7742 80.2043C31.1646 78.2255 33.6025 78.2791 34.2893 77.0345C34.4104 76.8168 34.4709 76.5706 34.4645 76.3215C34.4581 76.0724 34.3851 75.8296 34.2531 75.6184C33.1358 73.6691 29.6441 75.0002 31.1881 71.0975C32.3563 68.1523 35.5281 67.166 37.4565 68.8468C39.3849 70.5277 40.525 71.6322 43.477 70.4736C48.3962 68.5261 46.9763 73.977 45.3385 75.4386C44.4657 76.2301 43.1441 75.9753 42.0633 76.2017C38.5363 76.9355 38.2066 79.1825 40.7601 80.1419C41.748 80.5126 43.0728 80.6199 43.7524 81.5147C45.5913 83.9609 40.4119 87.7718 38.8809 88.2932C38.144 88.0208 35.8933 87.2071 35.5859 86.6464ZM52.2142 60.2127C57.6128 62.8574 59.97 67.426 59.8668 73.4171C59.8577 76.0082 59.3615 78.5744 58.4042 80.9822C58.1237 81.264 54.7291 81.6535 53.889 80.1419C53.5685 79.5339 53.3963 78.8587 53.3866 78.1714C53.3769 77.4842 53.53 76.8044 53.8332 76.1876C54.7109 74.667 57.061 73.5726 56.6637 71.8142C56.1149 69.3812 52.9796 72.0994 51.9627 71.2804C50.4367 70.0567 53.864 68.6958 50.3846 67.4741C49.1026 67.0281 47.9401 67.3997 47.1935 65.7941C45.487 62.1158 51.7245 60.1267 52.2187 60.1838L52.2142 60.2127ZM40.5617 62.7702C40.5931 62.8424 40.6484 62.9014 40.7183 62.9375C40.7881 62.9735 40.8683 62.9843 40.9453 62.968C41.034 62.9467 41.111 62.8916 41.1598 62.8145C41.2086 62.7374 41.2255 62.6443 41.2068 62.5549L39.9857 58.8633C43.7806 57.9865 47.7555 58.3285 51.3449 59.8408C46.2822 60.681 44.8692 66.0245 48.1815 67.4964C48.882 67.8125 52.2015 68.0328 51.416 69.341C51.2655 69.5496 51.1621 69.7884 51.113 70.041C51.064 70.2936 51.0705 70.5538 51.132 70.8036C51.1936 71.0534 51.3088 71.2868 51.4695 71.4876C51.6303 71.6885 51.8329 71.852 52.0631 71.9668C53.374 72.4172 55.1347 70.6097 55.9979 71.5923C57.5068 73.3065 52.6327 74.837 52.9029 78.1735C53.0974 80.729 53.9969 81.6678 56.5564 81.7009C57.1123 81.739 57.6698 81.6576 58.1915 81.462C54.993 88.3921 46.7299 90.5298 39.7875 88.5525C41.4165 87.4644 44.0361 85.2085 44.5385 83.3731C45.3812 80.1109 41.4736 80.1838 40.191 79.2347C38.4146 77.972 41.4296 76.7246 43.252 76.6135C43.8443 76.6082 44.4322 76.5099 44.9939 76.3221C48.1588 74.9994 48.4678 67.7481 43.8695 69.7258C39.9377 71.4126 39.1267 69.3335 37.5939 68.2172C35.1373 66.4443 31.145 68.0132 30.3344 72.0202C29.8016 74.7485 32.1562 74.513 33.3619 75.4502C33.5845 75.5757 33.7556 75.7759 33.8447 76.0155C33.9339 76.255 33.9353 76.5184 33.8488 76.7589C33.3908 77.6741 31.9644 77.6495 31.3979 78.7549C31.1749 79.1858 31.1038 79.6793 31.1963 80.1555C31.2887 80.6318 31.5392 81.0629 31.9072 81.379C33.055 82.3072 35.3882 82.0191 35.6468 83.8446C35.7751 84.7326 35.1298 85.52 35.0543 86.3862C32.7344 85.1209 30.8115 83.2362 29.4997 80.9423C28.188 78.6483 27.5391 76.0352 27.6252 73.3941C27.7769 66.7102 32.7638 60.9657 39.0716 59.096C39.5046 60.3075 40.0857 61.5816 40.5617 62.7702ZM32.2937 58.8507C33.9727 57.5764 35.8362 56.5656 37.8201 55.8534C38.2288 56.7604 38.5882 57.6889 38.8967 58.6348C35.6556 59.5689 32.7819 61.4807 30.6678 64.1089C28.5536 66.7372 27.3022 69.9539 27.0843 73.3198C26.9892 75.2537 27.2995 77.1861 27.9952 78.993C28.691 80.7999 29.7568 82.4414 31.1244 83.8121C22.7124 77.2661 24.2025 65.1482 32.2937 58.8507ZM134.029 81.6267C133.23 81.3149 120.853 79.3309 119.063 79.2991C119.019 79.2923 118.975 79.3031 118.94 79.329C118.904 79.355 118.88 79.3939 118.874 79.4374C118.867 79.4808 118.878 79.5251 118.904 79.5606C118.93 79.5961 118.969 79.6198 119.012 79.6265C119.662 79.8262 132.571 82.0608 133.979 81.9541C134.025 81.9511 134.069 81.9324 134.103 81.901C134.138 81.8696 134.16 81.8273 134.168 81.7813C134.175 81.7353 134.166 81.6882 134.143 81.6479C134.12 81.6075 134.083 81.5762 134.04 81.5593L134.029 81.6267ZM141.587 60.1149C132.276 58.7755 120.316 56.5899 111.904 55.4987C111.673 55.4627 111.641 55.7932 111.85 55.8454C115.306 56.7774 138.646 60.3776 141.533 60.4617C141.561 60.4636 141.589 60.4598 141.615 60.4505C141.642 60.4412 141.666 60.4267 141.686 60.4077C141.707 60.3887 141.723 60.3657 141.734 60.3401C141.746 60.3145 141.752 60.2869 141.752 60.259C141.742 60.2212 141.721 60.1873 141.692 60.1616C141.662 60.1359 141.626 60.1196 141.587 60.1149ZM137.436 80.0161C131.822 79.0146 124.728 78.2665 118.751 77.1792C118.578 77.1523 118.501 77.3967 118.709 77.4489C122.341 78.3885 133.832 80.5504 137.414 80.4169C137.604 80.3972 137.677 80.0535 137.436 80.0161Z" fill="#363636"/>
</g>
<defs>
<clipPath id="clip0_63_118">
<rect width="194.936" height="194.936" fill="white" transform="translate(30.5097 0.553589) rotate(8.83978)"/>
</clipPath>
</defs>
</svg>
