<svg width="166" height="204" viewBox="0 0 166 204" fill="none" xmlns="http://www.w3.org/2000/svg">
<path d="M159.097 35.0598C156.243 37.5708 153.186 39.7407 150.249 42.0625C148.776 43.2263 147.257 43.3918 145.631 42.3934C144.868 41.9246 144.063 41.523 143.304 41.0482C142.241 40.3835 141.123 40.3891 139.975 40.7097C138.452 41.1354 137.095 41.9336 135.707 42.6608C132.423 44.3801 132.171 43.6988 130.986 41.2268C130.867 40.9788 130.789 40.6789 130.443 40.5123C129.147 41.7306 128.104 43.1977 126.932 44.7129C126.581 43.9509 126.864 43.4642 127.098 42.9947C127.717 41.7545 128.581 40.6771 129.454 39.6136C129.954 39.0045 130.122 38.4124 129.73 37.684C129.519 37.292 129.414 36.8448 129.223 36.4406C128.333 34.5602 127.967 32.6261 128.549 30.5765C128.625 30.311 128.725 30.0254 128.484 29.655C126.749 31.287 125.541 33.2108 124.928 35.4654C124.293 37.7998 122.892 39.6438 121.382 41.4367C121.16 41.6997 120.886 41.9484 120.433 41.8684C120.165 41.337 120.565 40.975 120.823 40.6162C121.57 39.5765 122.364 38.5671 122.934 37.4134C123.188 36.8989 123.469 36.3702 123.578 35.8165C123.956 33.8921 124.771 32.1715 125.893 30.589C126.212 30.1389 126.085 29.7649 125.915 29.3359C124.765 26.4189 123.589 23.511 122.601 20.5333C122.428 20.0134 122.191 19.4855 122.427 18.8761C124.413 22.0134 125.429 25.5872 126.962 28.9032C127.435 28.843 127.63 28.5118 127.912 28.3213C129.005 27.5833 129.923 28.0089 130.05 29.3343C130.138 30.2424 129.891 31.1183 129.739 31.9966C129.599 32.8117 129.58 33.603 129.915 34.3521C130.854 36.4509 131.179 38.7593 132.132 40.8459C132.971 42.6814 133 42.6468 134.795 41.6871C136.543 40.7527 138.267 39.7598 140.237 39.3289C141.586 39.0339 142.839 39.2335 144.027 39.9278C144.856 40.4121 145.701 40.8679 146.532 41.3493C147.476 41.8962 148.343 41.8036 149.202 41.1365C152.335 38.7026 155.59 36.4221 158.514 33.7264C158.631 33.6188 158.771 33.5365 158.965 33.4303C159.051 33.9366 159.072 34.455 159.097 35.0598Z" fill="#363636"/>
<path d="M158.909 30.4483C158.396 29.9335 158.297 29.1463 158.018 28.4409C155.931 23.1682 153.694 17.9668 150.797 13.0762C149.849 11.4743 149.671 11.4456 148.436 12.8093C147.363 13.9951 146.355 15.2407 145.314 16.4564C144.752 17.1128 144.206 17.7854 143.61 18.4092C142.326 19.7516 141.653 19.8062 140.115 18.7468C139.825 18.5474 139.533 18.3429 139.279 18.1017C137.235 16.1597 134.933 15.6109 132.221 16.5616C130.995 16.9912 129.665 17.126 128.378 17.3732C128.054 17.4354 127.705 17.5085 127.361 17.3219C127.535 16.8565 127.945 16.8852 128.252 16.794C130.029 16.2648 131.831 15.8147 133.594 15.2409C135.223 14.7104 136.695 15.019 138.089 15.8719C138.934 16.3885 139.715 17.0086 140.54 17.5593C141.833 18.4223 141.912 18.43 142.921 17.2896C143.875 16.2115 144.772 15.0833 145.691 13.9747C146.55 12.9391 147.401 11.8925 148.447 11.0388C149.656 10.0531 150.289 10.1357 151.244 11.3835C152.083 12.4806 152.708 13.7116 153.371 14.9175C155.38 18.5676 157.036 22.3822 158.695 26.2658C158.796 27.6624 158.851 29.0104 158.909 30.4483Z" fill="#363636"/>
<path d="M36.0491 65.0766C35.7449 67.3028 35.3186 69.4341 35.3352 71.6718C38.5879 67.4182 41.5083 62.9113 45.5744 59.2904C45.9158 59.8692 45.52 60.0786 45.3312 60.3303C41.988 64.7844 38.5553 69.1762 35.5859 73.8962C31.2513 80.7863 27.1672 87.8149 24.3056 95.4734C23.4396 97.7911 22.9863 98.5689 26.1647 100.287C28.358 101.472 30.7543 102.037 33.2022 102.428C33.9182 102.543 34.0064 102.092 34.1389 101.628C34.8524 99.1288 35.7813 96.7119 36.9069 94.3701C40.3093 87.2914 44.9153 81.0551 50.2645 75.3456C50.7713 74.8047 51.0653 74.2325 51.1973 73.5117C51.4853 71.9388 51.8002 70.3675 52.3487 68.8591C52.506 68.4267 52.6411 67.9347 53.4962 67.7277C53.0846 71.1509 52.4558 74.3992 51.9065 77.6905C56.3386 74.7508 61.1514 55.5882 58.7507 50.2622C55.8579 51.1296 53.5489 53.1246 50.9244 54.5059C50.7177 54.1479 50.9567 54.0173 51.1061 53.8787C53.4291 51.7251 56.0102 49.9844 58.9939 48.8584C60.8472 48.159 62.4693 48.3904 63.9866 49.7144C65.5034 51.0381 67.1805 52.0866 69.3137 52.041C70.6261 52.013 71.6436 51.4585 72.3749 50.3594C73.5863 48.5387 75.2231 47.8552 77.4157 48.2911C83.2432 49.4498 88.3177 52.0774 92.8195 55.909C95.5036 58.1935 98.0822 60.5885 100.587 63.0653C101.508 63.9751 101.575 63.9841 102.554 63.1706C106.316 60.0431 109.269 56.2395 111.782 52.0745C113.421 49.3583 114.923 46.5665 116.153 43.6398C116.504 42.8039 116.908 42.6932 117.682 43.1283C120.347 44.6266 122.838 46.3533 125.019 48.5036C125.428 48.9063 125.81 49.3443 126.15 49.8063C127.201 51.2351 127.243 51.9856 126.288 53.4754C124.074 56.9296 121.567 60.1715 118.989 63.3566C116.188 66.8167 113.286 70.1882 109.968 73.1751C108.871 74.1624 107.716 75.0688 106.445 75.8268C104.402 77.0443 102.208 77.2124 99.9497 76.7234C95.4325 75.7452 91.6127 73.3651 87.9726 70.6447C87.8218 70.532 87.6588 70.4091 87.7334 70.1223C88.2051 69.9082 88.5663 70.2596 88.9323 70.4494C91.517 71.7896 94.0125 73.3037 96.7087 74.4259C98.9852 75.3735 101.311 76.0275 103.806 75.5013C105.29 75.1882 106.489 74.3247 107.65 73.4058C110.402 71.2265 112.713 68.6085 114.981 65.9548C118.291 62.0825 121.376 58.0349 124.24 53.8223C125.738 51.6202 125.693 51.3003 123.768 49.4546C122.166 47.919 120.358 46.6546 118.513 45.4326C117.753 44.9294 117.352 44.9676 116.928 45.8555C114.967 49.9632 112.768 53.9338 110.025 57.588C107.188 61.3653 103.812 64.5558 99.8746 67.1566C99.3411 67.5091 98.7845 67.8261 98.1389 67.9504C97.8644 68.0032 97.6014 68.0112 97.4663 67.7446C97.3141 67.4441 97.5694 67.2794 97.7706 67.1238C98.5995 66.483 99.4316 65.8463 100.395 65.1061C94.6634 59.632 89.3514 53.8636 81.6224 51.0351C78.7486 60.926 77.003 70.8665 77.8972 81.1755C78.3927 79.6068 78.8975 78.041 79.3818 76.4688C80.3998 73.1637 81.4914 69.8844 82.8639 66.7071C83.2055 65.9162 83.6313 65.1594 84.053 64.4062C84.2496 64.0549 84.4547 63.6637 84.9928 63.6121C85.2944 64.0545 85.0257 64.4485 84.8742 64.8441C82.8028 70.2557 80.85 75.7094 79.358 81.3125C77.8586 86.9439 76.9502 92.6749 76.3111 98.4734C75.5392 105.477 75.149 112.495 74.8679 119.526C74.6532 124.897 74.6286 130.271 74.5619 135.644C74.4725 142.844 74.4887 150.042 74.6286 157.241C74.7431 163.128 74.7975 169.018 74.7927 174.906C74.7904 177.784 74.7902 180.664 74.6556 183.543C74.5234 186.371 73.0185 188.246 70.7452 189.643C70.0409 190.075 69.2637 190.398 68.4982 190.719C67.9483 190.95 67.8603 191.254 68.1295 191.76C68.5219 192.497 69.0935 193.022 69.8448 193.374C71.0335 193.93 72.2178 194.495 73.4006 195.063C73.6888 195.202 73.976 195.348 74.2427 195.523C74.7478 195.855 75.3849 196.169 75.2124 196.906C75.0575 197.567 74.4289 197.651 73.8368 197.741C70.4466 198.254 67.0719 198.089 63.7248 197.439C61.9297 197.09 61.4072 196.345 61.2797 194.517C61.2222 193.693 61.5815 192.741 61.0942 192.077C60.6076 191.413 59.5992 191.723 58.8388 191.501C56.6495 190.863 54.9178 189.629 53.7372 187.682C53.3595 187.059 53.0598 187.002 52.4655 187.405C51.14 188.305 49.6032 188.671 48.0464 188.905C47.2236 189.029 47.1069 189.408 47.4047 190.088C47.7293 190.828 48.2992 191.327 48.9822 191.71C50.2101 192.4 51.4497 193.07 52.6728 193.768C53.0315 193.973 53.3845 194.211 53.6823 194.494C54.4549 195.229 54.2493 195.962 53.2328 196.258C51.999 196.616 50.7479 196.394 49.5069 196.378C47.1327 196.347 44.7793 196.1 42.4991 195.391C40.8869 194.89 40.2514 193.914 40.3587 192.21C40.4232 191.187 40.5213 190.165 40.7972 189.177C40.9729 188.549 40.7515 188.217 40.1856 187.989C35.6199 186.147 33.1861 181.875 33.3778 176.31C33.7256 166.211 35.3539 156.276 36.9432 146.334C38.8666 134.303 41.147 122.335 43.5108 110.383C44.8201 103.763 46.2333 97.1643 47.5931 90.5546C48.3468 86.891 49.0897 83.2251 49.8297 79.5587C49.9108 79.1569 49.9402 78.7446 50.0102 78.2099C49.0913 78.7574 48.6124 79.5661 48.0389 80.2538C44.4415 84.5682 41.2494 89.1547 38.7104 94.1857C38.2588 95.0804 38.4351 95.5872 39.1859 96.0988C40.2154 96.8004 41.3421 97.2007 42.5729 97.3462C43.0303 97.4002 43.5198 97.3973 43.9521 97.7936C43.2101 98.3742 42.4297 98.2291 41.6951 98.1578C40.5326 98.0449 39.4435 97.6419 38.4661 97.0066C37.828 96.5919 37.5042 96.7701 37.2369 97.4143C36.4747 99.2511 35.8498 101.13 35.3885 103.065C35.1038 104.26 34.9979 104.331 33.8262 104.12C30.9532 103.601 28.1221 102.946 25.4974 101.597C24.7505 101.214 24.05 100.776 23.4526 100.185C22.4143 99.1584 22.0088 97.995 22.4661 96.5244C23.8051 92.2185 25.8534 88.2392 27.9526 84.276C29.4675 81.4158 31.1158 78.6349 32.8306 75.8936C33.3033 75.1379 33.5822 74.3649 33.6638 73.4868C34.1292 68.4767 35.1367 63.5588 36.2422 58.6602C36.3959 57.9787 36.4743 57.2104 37.4167 56.5535C37.3311 59.5912 36.4216 62.2568 36.0491 65.0766ZM62.3325 95.6998C66.1428 96.9549 70.0766 97.3379 74.0615 97.374C74.676 97.3796 74.982 97.1634 75.0639 96.5079C75.3174 94.4794 75.6414 92.4598 75.9058 90.4325C75.9585 90.0288 75.9199 89.5956 75.836 89.1943C75.1862 86.0865 74.9257 82.9493 74.8611 79.7737C74.7624 74.9256 75.2669 70.1357 75.9694 65.3573C76.6723 60.575 77.6782 55.8545 78.9498 51.1907C79.0456 50.8395 79.2751 50.4714 78.8041 50.1732C77.1474 49.1242 74.6746 49.6161 73.4932 51.268C72.2484 53.0086 70.5336 53.6298 68.4708 53.3982C66.4109 53.167 64.7638 52.0785 63.2249 50.7843C62.6497 50.3006 62.0805 49.7936 61.1856 49.8771C61.7216 53.2038 61.8398 56.4732 61.548 59.7727C60.8199 68.0076 57.9664 75.3833 52.7118 81.7755C51.3398 83.4446 49.9428 85.0305 49.8112 87.3199C49.7985 87.5411 49.7501 87.7666 49.6795 87.9771C49.4617 88.627 49.7117 89.0539 50.2353 89.4503C53.8683 92.2006 57.8519 94.2662 62.3325 95.6998ZM44.4298 194.726C47.0665 195.145 49.712 195.362 52.6282 195.179C51.2215 194.102 49.8266 193.529 48.5216 192.81C47.4073 192.195 46.5374 191.368 46.1735 190.15C45.9368 189.358 45.5755 188.93 44.714 189.009C44.465 189.032 44.2074 188.956 43.9533 188.93C41.8867 188.717 41.8867 188.717 41.6391 190.812C41.6354 190.843 41.6347 190.876 41.6308 190.907C41.2815 193.779 41.4973 194.088 44.4298 194.726ZM69.6419 196.825C70.8619 196.775 72.0819 196.726 73.3019 196.676C72.3203 195.69 71.1347 195.285 70.0156 194.768C68.6333 194.13 67.4715 193.298 66.8901 191.826C66.7581 191.491 66.5444 191.333 66.1475 191.396C65.4855 191.503 64.8104 191.528 64.1484 191.635C62.3963 191.917 62.3908 191.935 62.3629 193.748C62.3337 195.65 62.7945 196.178 64.6817 196.458C66.2653 196.693 67.8553 196.825 69.6419 196.825ZM54.1182 176.982C53.858 179.978 53.514 182.969 53.554 185.986C54.954 174.557 56.2326 163.119 57.4559 151.674C55.6709 159.966 54.9007 168.388 54.1182 176.982ZM52.4171 99.6986C51.5516 100.76 50.4246 101.524 49.2355 102.329C50.7496 102.828 53.2894 100.584 53.27 98.9176C52.8925 99.0145 52.7571 99.374 52.4171 99.6986ZM71.7684 104.934C71.0976 104.355 70.4269 103.775 69.6429 103.098C69.7675 104.574 71.4031 106.038 72.6086 105.943C72.5999 105.444 72.1722 105.281 71.7684 104.934Z" fill="#363636"/>
<path d="M50.1555 22.1192C50.0882 22.7965 50.0225 23.3955 49.9472 24.0818C50.9489 24.1048 51.8254 23.826 52.6953 23.5637C53.0728 23.4498 52.9928 23.0375 53.0263 22.7297C53.2286 20.8756 53.5628 19.0552 54.3828 17.3579C54.5637 16.9833 54.7392 16.6039 54.9518 16.2475C55.1362 15.9384 55.2953 15.406 55.7581 15.6401C56.2329 15.8803 55.8788 16.3195 55.7419 16.6523C54.8981 18.7044 54.4334 20.8493 54.0454 23.1907C56.0864 23.006 57.9194 22.4735 59.9831 22.0564C57.9837 19.057 58.0091 16.0381 59.023 12.8267C57.4827 13.0725 56.2606 13.7496 55.0643 14.5263C53.8589 15.3089 52.9748 16.452 51.825 17.4844C51.6727 16.8333 51.9985 16.5213 52.2199 16.2046C54.0189 13.631 56.5361 12.1186 59.5667 11.5277C64.396 10.5862 69.0043 11.2985 73.2742 13.7821C74.9858 14.7776 76.407 16.1298 77.2088 17.9971C77.4614 18.5855 77.8354 18.6237 78.3577 18.5237C79.2044 18.3617 80.0516 18.1676 80.9077 18.0972C82.0048 18.007 82.7637 18.5257 82.9118 19.3349C83.056 20.1225 82.423 21.0305 81.4298 21.3093C80.3281 21.6185 79.2018 21.8404 78.0093 22.1183C78.253 23.1092 78.6938 24.1719 78.2851 24.975C77.2106 27.0862 78.1656 28.9942 78.5461 30.9743C78.6974 31.7615 78.6339 32.5213 78.2943 33.4356C77.618 32.1312 77.7484 30.7257 77.0019 29.6114C77.2306 30.4787 77.6509 31.3416 76.7134 32.0397C76.358 32.3043 75.9771 32.2894 75.6648 31.9816C75.0012 31.3276 75.2129 30.5893 75.5491 29.8696C75.4571 29.8261 75.4043 29.7823 75.3481 29.7775C74.8901 29.7385 74.1987 29.9221 74.1534 29.3066C74.109 28.7022 74.8204 28.7804 75.2613 28.6757C75.7127 28.5685 76.167 28.4736 76.7958 28.3345C76.1135 27.4629 75.3857 27.4458 74.6274 27.6136C72.0167 28.1915 69.3855 28.4409 66.7141 28.199C64.8209 28.0276 64.7976 28.0351 64.6084 29.9399C64.4844 31.1878 64.3182 32.4207 63.8529 33.5924C63.1967 35.2453 61.9442 35.6923 60.3865 34.8306C60.0799 34.661 59.7953 34.449 59.511 34.2423C58.5573 33.5487 57.7386 33.5734 57.1454 34.3221C56.5862 35.0279 56.7846 36.2844 57.5586 36.9098C58.0796 37.3309 58.6794 37.5304 59.3464 37.4687C60.0502 37.4036 60.3339 37.6798 60.4915 38.4016C60.9016 40.2803 61.4935 42.1057 62.6006 43.7218C65.3855 47.7871 69.7008 48.2233 73.2257 44.8028C74.5509 43.5169 75.6015 42.044 76.4465 40.4084C76.6961 39.9253 76.8809 39.3637 77.3572 39.0693C77.6737 39.2519 77.6252 39.4556 77.6035 39.6403C77.2245 42.8752 72.7949 47.654 69.5826 48.2481C66.6987 48.7814 64.3824 47.6527 62.4176 45.645C61.6066 44.8164 60.9959 43.8307 60.5111 42.7774C60.2754 42.2654 60.0001 42.1053 59.3909 42.2398C55.3136 43.1396 52.424 40.349 53.1161 36.2207C53.1697 35.9008 53.2195 35.6157 52.9908 35.3162C51.3511 33.1688 50.7177 30.7705 51.2358 28.0938C51.2518 28.0108 51.1913 27.9129 51.1648 27.8156C50.7629 27.5753 50.3526 27.7236 49.9498 27.7782C48.9504 27.9138 48.4889 27.5894 48.0954 26.3016C47.8618 25.5372 47.4348 24.649 48.6351 24.2301C49.0467 24.0865 49.085 23.7341 49.1404 23.3819C49.2491 22.6905 49.3744 22.0041 49.8139 21.4438C50.2715 21.4998 50.111 21.8216 50.1555 22.1192ZM66.9967 17.9725C67.2601 18.7922 67.0502 19.6693 67.2638 20.5885C68.4085 20.3475 69.4991 20.1238 70.5869 19.8876C72.0166 19.5772 72.1753 19.3271 71.5852 17.9473C70.5562 15.5415 68.6726 13.8022 66.4359 12.7127C64.7101 11.8722 62.6327 12.0558 60.6844 12.4167C60.2489 12.4974 60.0034 12.7159 59.9066 13.1398C59.2789 15.8898 59.2487 18.5803 60.5852 21.1729C60.8609 21.7077 61.1868 21.8406 61.7325 21.7147C62.7288 21.4848 63.7285 21.2663 64.7337 21.0801C66.0352 20.839 66.1715 20.6367 66.0091 19.2781C65.806 17.5797 65.1894 16.0693 64.1052 14.7446C63.9107 14.5069 63.6194 14.1994 63.9471 13.9119C64.2698 13.6288 64.5349 13.9542 64.7593 14.1682C65.8222 15.1818 66.6144 16.3617 66.9967 17.9725ZM69.5944 21.3119C62.758 22.632 55.9216 23.952 49.0994 25.2694C49.2171 26.653 49.3757 26.7636 50.581 26.5529C56.4728 25.5231 62.3176 24.2606 68.1684 23.027C72.3626 22.1427 76.5599 21.2729 80.7558 20.3962C81.239 20.2952 81.834 20.1591 81.7307 19.5659C81.6348 19.0148 81.0282 19.1607 80.5904 19.1726C80.5268 19.1743 80.463 19.1865 80.4002 19.1988C76.8542 19.894 73.3082 20.5896 69.5944 21.3119ZM74.8893 16.5552C73.3938 14.9696 71.557 13.9739 69.2371 13.2611C70.359 14.1924 71.1872 15.0288 71.8423 16.0196C72.5008 17.0154 72.8931 18.1101 72.9447 19.3825C74.0663 19.1697 75.1299 19.0667 76.156 18.6764C75.9703 17.824 75.4555 17.252 74.8893 16.5552Z" fill="#363636"/>
<path d="M22.3186 124.919C21.26 125.31 20.6548 124.812 20.6556 123.582C20.6564 122.394 20.8526 121.225 21.1195 120.069C21.1738 119.834 21.2256 119.598 21.2106 119.344C20.7564 120.255 20.3219 121.176 19.8403 122.071C19.5703 122.573 19.2587 123.196 18.5517 122.976C17.7964 122.742 17.773 122.031 17.8407 121.374C18.104 118.817 18.7999 116.354 19.4883 113.889C19.6663 113.252 19.952 112.633 19.9484 111.962C19.5383 111.679 19.0995 111.853 18.7005 111.748C17.551 111.446 17.0503 110.445 17.7616 109.572C19.1355 107.884 20.6212 106.289 22.4043 105.01C22.5773 104.886 22.7638 104.721 23.0276 104.89C23.1279 105.343 22.7627 105.568 22.5209 105.833C21.357 107.109 20.1707 108.364 19.0124 109.644C18.8133 109.864 18.4838 110.112 18.6583 110.469C18.8481 110.858 19.2585 110.758 19.6024 110.756C21.5254 110.746 21.5077 110.739 20.9994 112.567C20.2901 115.117 19.4946 117.65 19.2706 120.322C20.2549 118.576 20.8724 116.671 21.6792 114.85C21.8859 114.384 22.1045 113.921 22.3506 113.474C22.497 113.208 22.7481 113.045 23.0746 113.126C23.4091 113.208 23.5043 113.478 23.5269 113.784C23.5646 114.296 23.5535 114.804 23.4483 115.312C23.0917 117.035 22.7501 118.76 22.3942 120.483C22.3233 120.826 22.2328 121.162 22.3425 121.737C23.1127 119.807 23.5508 117.99 24.0632 116.198C24.195 115.737 24.289 115.265 24.4165 114.803C24.5554 114.299 24.7011 113.744 25.3907 113.85C26.0091 113.945 26.0413 114.472 26.0453 114.968C26.0573 116.472 26.0629 117.975 26.073 119.479C26.0743 119.665 26.0873 119.852 26.1737 120.047C27.0644 117.43 27.3425 114.677 27.9906 111.906C28.6873 112.404 28.6185 113.19 29.1411 113.776C29.7994 110.843 29.5999 107.782 30.9768 105.061C31.4874 105.283 31.2818 105.613 31.2439 105.85C30.7491 108.947 30.5115 112.07 30.2743 115.193C30.2646 115.321 30.2541 115.448 30.2372 115.575C30.0548 116.949 29.8041 117.078 28.6136 116.39C28.1276 116.728 28.2029 117.292 28.109 117.767C27.799 119.337 27.5369 120.916 26.9931 122.428C26.8073 122.945 26.6071 123.528 25.9179 123.464C25.2924 123.406 25.2047 122.842 25.0602 122.337C24.7708 121.326 24.9145 120.266 24.6972 119.116C23.8637 121.107 23.6396 123.203 22.3186 124.919Z" fill="#363636"/>
<path d="M39.7655 49.0612C38.8568 46.4957 39.6861 44.2548 41.8623 43.233C44.0759 42.1937 46.6647 42.9738 47.9922 45.0801C49.9988 48.2638 48.8936 52.4014 45.57 54.1481C42.3135 55.8595 38.0136 55.3867 35.6156 53.0536C33.4759 50.9718 33.0348 47.8712 34.4453 44.7932C36.0986 41.1853 38.9194 38.9851 42.8227 38.5717C45.5765 38.28 48.3655 38.7727 51.1067 39.2647C51.2899 39.2976 51.484 39.3659 51.5504 39.6629C51.0469 40.1414 50.3859 39.9994 49.7973 39.9685C48.1704 39.883 46.5431 39.7636 44.9233 39.5891C40.3995 39.1017 35.7625 42.5975 35.0053 47.3405C34.6268 49.7109 35.5248 51.6481 37.578 52.8642C39.995 54.2958 43.9297 54.0032 46.0029 52.2376C47.9844 50.5502 48.24 47.177 46.5351 45.2142C45.4004 43.9079 43.6361 43.5801 42.0904 44.3884C40.6226 45.1559 39.9585 46.6905 40.3795 48.3769C40.5157 48.9223 40.6882 49.4586 40.867 50.0784C40.1978 49.9978 40.0781 49.4766 39.7655 49.0612Z" fill="#363636"/>
<path d="M133.517 36.6493C134.381 38.4528 134.381 38.4526 136.194 37.7805C136.434 37.6916 136.684 37.6251 136.915 37.5176C139.911 36.1243 142.82 36.0171 145.614 38.0439C147.228 39.2151 148.663 38.9776 150.141 37.6386C151.893 36.0513 153.826 34.6674 155.46 32.9388C156.101 32.2606 156.292 31.6213 155.873 30.7124C154.908 28.6215 154.037 26.4874 153.141 24.3652C152.872 23.7287 152.529 23.1021 152.607 22.3255C153.147 22.2973 153.3 22.7184 153.456 23.008C154.831 25.5723 156.239 28.1203 157.298 30.843C157.698 31.8731 157.474 32.6697 156.753 33.4665C154.636 35.8046 152.225 37.7949 149.685 39.6468C148.706 40.3605 147.708 40.502 146.625 39.9845C145.355 39.3779 144.087 38.7654 142.832 38.1293C141.994 37.7049 141.165 37.603 140.237 37.8461C138.503 38.3007 136.782 38.7889 135.097 39.3988C134.492 39.6176 133.945 39.6507 133.576 39.0461C132.419 37.1519 131.57 35.1234 131.018 32.9729C130.97 32.7863 130.959 32.5927 131.233 32.2689C132.389 33.5297 132.693 35.1966 133.517 36.6493Z" fill="#363636"/>
<path d="M146.775 19.7204C145.918 20.5435 145.122 21.3325 144.299 22.0914C142.961 23.3242 141.326 23.4644 139.811 22.4616C139.118 22.0031 138.471 21.4748 137.801 20.9817C137.209 20.5462 136.524 20.3173 135.813 20.4183C133.629 20.7281 131.438 21.0225 129.314 21.6429C127.975 22.0339 127.907 22.2457 128.306 23.5626C128.538 24.3268 129.053 25.0406 128.864 25.9243C128.32 25.9437 128.14 25.5667 127.979 25.241C127.612 24.4962 127.282 23.7326 126.96 22.9667C126.579 22.0614 126.931 21.4353 127.737 20.9689C128.953 20.2652 130.305 20.0004 131.653 19.7267C132.781 19.4977 133.922 19.3344 135.049 19.0977C136.428 18.8079 137.649 19.1363 138.759 19.9551C139.274 20.335 139.756 20.7591 140.275 21.133C141.516 22.0262 142.429 22.0257 143.561 21.0055C145.01 19.6987 146.409 18.3349 147.805 16.971C149.124 15.6826 149.869 15.7859 150.721 17.4447C150.991 17.9719 151.357 18.4907 151.107 19.2054C150.003 18.9636 150.028 17.6753 149.161 17.1536C148.376 17.9996 147.6 18.8362 146.775 19.7204Z" fill="#363636"/>
<path d="M145.429 27.605C146.331 27.8421 147.175 28.0352 147.995 28.2995C148.543 28.4758 148.85 28.3012 149.053 27.8094C149.297 27.2183 149.572 26.6387 149.79 26.038C150.142 25.0662 150.824 25.5822 151.395 25.6661C152.035 25.76 151.973 26.2021 151.865 26.6835C151.375 28.8697 151.382 28.866 153.488 29.4451C153.864 29.5483 154.446 29.5752 154.225 30.1867C154.04 30.6965 154.109 31.4888 153.199 31.4524C152.496 31.4242 151.785 31.4811 151.091 31.3951C150.454 31.3162 150.136 31.5701 149.93 32.1197C149.774 32.5385 149.574 32.9408 149.403 33.3547C148.976 34.3894 148.217 34.649 147.235 34.1126C146.854 33.9041 146.91 33.6142 147.011 33.2923C147.22 32.6207 147.414 31.9439 147.641 31.2782C147.81 30.779 147.656 30.4854 147.163 30.3248C146.494 30.1069 145.827 29.8827 145.169 29.637C144.797 29.4986 144.226 29.4295 144.37 28.8749C144.506 28.3511 144.477 27.5841 145.429 27.605Z" fill="#363636"/>
<path d="M90.8949 48.4136C90.1868 46.8658 89.0618 46.0568 87.4306 45.774C84.6553 45.2929 81.8502 45.1268 79.0592 44.8152C78.6491 44.7695 78.2167 44.7805 78.0456 44.2737C78.2388 43.8342 78.6489 43.7947 79.0164 43.807C81.9841 43.9065 84.9492 44.028 87.8906 44.4999C90.729 44.9553 91.9074 46.9533 92.603 49.4295C92.8226 50.2114 92.846 51.007 92.6541 51.7985C92.558 52.195 92.4909 52.6251 91.7948 52.8864C91.576 51.3735 91.7065 49.8109 90.8949 48.4136Z" fill="#363636"/>
<path d="M75.7255 37.8291C74.1642 37.8575 73.5037 37.5027 73.2402 36.5438C73.4458 36.2622 73.6945 36.402 73.9245 36.4891C74.3752 36.6597 74.8299 36.8031 75.3189 36.7646C75.9337 36.7162 76.6098 36.6388 76.8882 36.0387C77.1494 35.4755 76.527 35.1517 76.2375 34.7625C75.8956 34.3029 75.491 33.8905 75.1346 33.441C74.9267 33.1789 74.6253 32.9273 74.8245 32.5239C74.8866 32.4877 74.9618 32.4163 74.9898 32.4315C76.2923 33.143 77.3783 34.1193 78.0692 35.4208C78.4712 36.1781 77.979 36.8338 77.3239 37.2851C76.8735 37.5954 76.3676 37.7924 75.7255 37.8291Z" fill="#363636"/>
<path d="M70.682 32.3902C70.1495 31.784 70.259 31.1541 70.4554 30.4918C70.0263 30.2686 69.6096 30.429 69.2148 30.3934C68.8989 30.3649 68.6235 30.258 68.5857 29.9202C68.5494 29.5955 68.8458 29.495 69.0891 29.4391C69.9609 29.2388 70.8333 29.0041 71.7424 29.1807C72.0514 29.2408 72.4188 29.2436 72.5096 29.6341C72.5998 30.0217 72.1523 30.0185 71.9806 30.2674C72.3082 30.9631 72.5907 31.6971 71.9372 32.372C71.5819 32.7389 71.155 32.78 70.682 32.3902Z" fill="#363636"/>
<path d="M72.3503 40.1091C72.9925 40.195 73.5651 40.2467 74.1313 40.3381C74.3832 40.3788 74.6565 40.5 74.6833 40.7951C74.7126 41.1188 74.4226 41.2136 74.1777 41.2738C73.2342 41.5057 72.3339 41.3842 71.5076 40.8624C71.2137 40.6768 70.8388 40.4468 71.0135 40.0402C71.2194 39.5609 71.6005 39.8575 71.9162 39.9641C72.0374 40.005 72.1575 40.0487 72.3503 40.1091Z" fill="#363636"/>
</svg>
