<svg width="72" height="72" viewBox="0 0 72 72" fill="none" xmlns="http://www.w3.org/2000/svg">
<rect width="72" height="72" fill="white"/>
<path d="M21.6348 46.3957C20.269 46.3957 19.0274 45.295 19.0274 43.9496C19.0274 42.6043 20.1449 41.5036 21.6348 41.5036C23.1247 41.5036 24.2421 42.6043 24.2421 43.9496C24.2421 45.295 23.0005 46.3957 21.6348 46.3957ZM53.6679 33.0647C53.4196 31.1079 52.178 29.518 50.5639 28.295L49.9431 27.8058L49.4465 28.4173C48.4532 29.518 48.0807 31.4748 48.2049 32.9424C48.329 34.0432 48.7015 35.1439 49.3223 36C48.8257 36.2446 48.2049 36.4892 47.7082 36.7338C46.5908 37.1007 45.4734 37.223 44.3559 37.223H12.1987L12.0745 37.9568C11.8262 40.2806 12.1987 42.7266 13.1919 44.9281L13.6886 45.7842V45.9065C16.6684 50.7986 22.0072 53 27.8427 53C39.0171 53 48.2049 48.2302 52.5504 37.9568C55.4061 38.0791 58.2618 37.3453 59.6275 34.6547L60 34.0432L59.3792 33.6763C57.7651 32.6978 55.5303 32.5755 53.6679 33.0647ZM37.6513 31.1079H32.8091V35.8777H37.6513V31.1079ZM37.6513 25.1151H32.8091V29.8849H37.6513V25.1151ZM37.6513 19H32.8091V23.7698H37.6513V19ZM43.611 31.1079H38.7688V35.8777H43.611V31.1079ZM25.6079 31.1079H20.7656V35.8777H25.6079V31.1079ZM31.6917 31.1079H26.8495V35.8777H31.6917V31.1079ZM19.6482 31.1079H14.806V35.8777H19.6482V31.1079ZM31.6917 25.1151H26.8495V29.8849H31.6917V25.1151ZM25.6079 25.1151H20.7656V29.8849H25.6079V25.1151Z" fill="#363636"/>
</svg>
