<svg width="72" height="72" viewBox="0 0 72 72" fill="none" xmlns="http://www.w3.org/2000/svg">
<g clip-path="url(#clip0_96_445)">
<path fill-rule="evenodd" clip-rule="evenodd" d="M0 0H72V72H0V0Z" fill="white"/>
<path d="M59.9247 21.932H59.1029C58.0869 21.932 57.1298 22.4073 56.512 23.2165L48.1011 34.2541L39.6902 23.2165C39.0743 22.4073 38.1163 21.932 37.1012 21.932H36.2794L46.8859 35.85L36.0522 50.0669H36.874C37.89 50.0669 38.8471 49.5915 39.4639 48.7824L48.102 37.4469L56.7402 48.7824C57.357 49.5915 58.3141 50.0669 59.3301 50.0669H60.1519L49.3182 35.85L59.9247 21.932ZM32.4297 44.4807C29.9606 48.2459 25.0996 50.1756 20.4524 48.4739C16.3639 46.9769 13.7816 42.8983 13.7816 38.5306V37.4547H25.3829H36.0174V33.444C36.0174 27.133 31.3595 21.6079 25.0977 21.0171C17.9127 20.3389 11.8481 26.0164 11.8481 33.0889V38.4957C11.8481 43.7065 14.9563 48.5505 19.8423 50.3153C26.2259 52.6204 32.9402 49.1802 35.2101 43.2757H34.5933C33.7126 43.2757 32.9131 43.7424 32.4297 44.4807ZM13.7816 33.0889C13.7816 27.4716 18.3351 22.9021 23.9327 22.9021C29.5304 22.9021 34.0839 27.4716 34.0839 33.0889V35.5143H13.7816V33.0889Z" fill="#363636"/>
</g>
<defs>
<clipPath id="clip0_96_445">
<rect width="72" height="72" rx="8" fill="white"/>
</clipPath>
</defs>
</svg>
