<svg width="72" height="72" viewBox="0 0 72 72" fill="none" xmlns="http://www.w3.org/2000/svg">
<rect width="72" height="72" fill="white"/>
<path d="M48.0912 28.8008C50.429 27.2675 51.9813 24.6122 51.9813 21.6016C51.9813 16.852 48.1099 13 43.3781 13H28.6032C23.8527 13 20 16.8707 20 21.6016C20 24.6122 21.5523 27.2675 23.8901 28.8008C21.5523 30.3341 20 32.9894 20 36C20 39.0106 21.5523 41.6659 23.8901 43.1992C21.5523 44.7325 20 47.3878 20 50.3984C20 55.148 23.8901 59 28.6593 59C33.4845 59 37.412 55.0919 37.412 50.3049V42.3577C38.9456 43.7415 40.9842 44.6016 43.2098 44.6016H43.3968C48.1473 44.6016 52 40.7309 52 36C51.9813 32.9894 50.429 30.3341 48.0912 28.8008ZM34.588 50.3049C34.588 53.5398 31.9322 56.1951 28.6593 56.1951C25.4424 56.1951 22.8241 53.5959 22.8241 50.3984C22.8241 47.2008 25.4237 44.6203 28.6032 44.6016H34.588V50.3049ZM34.588 41.7967H28.6032C25.405 41.7967 22.8241 39.1976 22.8241 36C22.8241 32.8024 25.4237 30.2033 28.6219 30.2033H34.6067V41.7967H34.588ZM34.588 27.3984H28.6032C25.405 27.3984 22.8054 24.7992 22.8054 21.6016C22.8054 18.4041 25.405 15.8049 28.6032 15.8049H34.588V27.3984ZM37.3933 15.8049H43.3781C46.5763 15.8049 49.1759 18.4041 49.1759 21.6016C49.1759 24.7992 46.5763 27.3984 43.3781 27.3984H37.3933V15.8049ZM43.3781 41.7967H43.1911C39.993 41.7967 37.3933 39.1976 37.3933 36C37.3933 32.8024 39.993 30.2033 43.1911 30.2033H43.3781C46.5763 30.2033 49.1759 32.8024 49.1759 36C49.1759 39.1976 46.5763 41.7967 43.3781 41.7967Z" fill="#363636"/>
</svg>
