<svg width="72" height="72" viewBox="0 0 72 72" fill="none" xmlns="http://www.w3.org/2000/svg">
<rect width="72" height="72" fill="white"/>
<path d="M58.1135 33.4066L37.5926 12.8867C37.3115 12.6056 36.9779 12.3826 36.6106 12.2305C36.2434 12.0783 35.8498 12 35.4523 12C35.0548 12 34.6612 12.0783 34.294 12.2305C33.9267 12.3826 33.5931 12.6056 33.312 12.8867L29.0509 17.1484L34.4564 22.5535C35.0918 22.3375 35.775 22.3036 36.4286 22.4559C37.0822 22.6082 37.6801 22.9405 38.1546 23.4151C38.6316 23.8928 38.9647 24.495 39.1157 25.1529C39.2667 25.8109 39.2296 26.498 39.0087 27.1359L44.2174 32.3456C45.4778 31.9115 46.9323 32.1926 47.9386 33.2006C48.2732 33.535 48.5386 33.932 48.7196 34.3689C48.9007 34.8059 48.9939 35.2742 48.9939 35.7472C48.9939 36.2202 48.9007 36.6886 48.7196 37.1255C48.5386 37.5625 48.2732 37.9595 47.9386 38.2939C47.35 38.883 46.5754 39.25 45.7467 39.3323C44.9179 39.4146 44.0863 39.2072 43.3933 38.7453C42.7003 38.2835 42.1888 37.5957 41.9458 36.7991C41.7028 36.0025 41.7434 35.1463 42.0606 34.3763L37.2026 29.5182L37.2022 42.3032C37.5543 42.4773 37.876 42.7073 38.1546 42.9843C38.4891 43.3188 38.7545 43.7159 38.9356 44.1529C39.1166 44.5899 39.2098 45.0583 39.2098 45.5314C39.2098 46.0044 39.1166 46.4729 38.9356 46.9099C38.7545 47.3469 38.4891 47.744 38.1546 48.0785C36.7473 49.4858 34.4665 49.4858 33.0614 48.0785C32.6417 47.659 32.332 47.1423 32.1601 46.5743C31.9882 46.0063 31.9592 45.4046 32.0759 44.8228C32.1925 44.2409 32.4512 43.6969 32.8287 43.2391C33.2063 42.7813 33.6912 42.4239 34.2402 42.1986V29.2945C33.7986 29.1142 33.3977 28.8468 33.0614 28.5084C31.9956 27.4439 31.7393 25.8799 32.2854 24.571L26.9571 19.2417L12.8868 33.3113C12.6057 33.5925 12.3826 33.9263 12.2305 34.2936C12.0783 34.661 12 35.0547 12 35.4523C12 35.8499 12.0783 36.2437 12.2305 36.611C12.3826 36.9784 12.6057 37.3121 12.8868 37.5933L33.4078 58.1136C33.9754 58.6812 34.7453 59 35.548 59C36.3508 59 37.1206 58.6812 37.6883 58.1136L58.1135 37.689C58.6811 37.121 59 36.3509 59 35.5478C59 34.7448 58.6811 33.9746 58.1135 33.4066Z" fill="#363636"/>
</svg>
