<svg width="72" height="72" viewBox="0 0 72 72" fill="none" xmlns="http://www.w3.org/2000/svg">
<rect width="72" height="72" rx="8" fill="white"/>
<g clip-path="url(#clip0_96_527)">
<path d="M39.4122 63.6793C38.6877 63.5525 37.9372 63.2085 37.5115 62.828C37.2214 62.5292 37.0598 62.1227 37.0494 61.7057C37.0494 61.2801 37.2665 60.6824 37.6105 60.0865C37.819 59.7512 37.9823 59.3898 38.0987 59.0093C38.1717 58.747 38.3246 58.3214 38.4427 58.0503L38.6512 57.5535L38.7051 54.2334C38.7329 52.397 38.7867 50.6962 38.8319 50.4321C38.95 49.6711 39.1481 48.9293 39.4104 48.2066L39.6102 47.7271L39.3201 47.5551C39.0577 47.3917 38.8406 47.1659 37.9806 46.1426C36.9226 44.8934 35.5292 44.2055 33.5556 43.9709C32.9128 43.9084 32.2613 43.8615 31.6098 43.8354C28.7136 43.6999 27.0579 43.0936 25.5656 41.6272C24.4519 40.5327 23.8734 39.2558 23.6388 37.3742C23.3226 34.8308 22.97 33.5278 22.3185 32.4697C22.1551 32.2074 21.9745 31.9624 21.766 31.7366L21.5036 31.4742L20.9251 31.846C20.6089 32.0545 20.1642 32.3168 19.947 32.435C19.2225 32.8328 18.5345 33.2758 17.8743 33.7553C16.2551 34.9315 14.49 36.4065 13.5223 37.3742C13.088 37.8086 12.8621 37.9979 12.7613 37.9806C12.1012 37.8815 12.6067 35.0219 13.6839 32.8676C15.0598 30.0896 17.3757 27.5287 20.0547 25.8001C22.2542 24.3789 25.8105 22.4244 27.4558 21.7364C30.378 20.5151 34.1602 19.193 36.7488 18.4876C37.2926 18.333 37.6262 18.1975 37.852 18.0446C38.3593 17.6919 38.8562 17.5199 39.4261 17.5112C39.9056 17.5025 39.9507 17.4938 40.4129 17.1846C40.9567 16.8319 41.1182 16.8128 41.662 17.0039L42.0147 17.1307L42.449 16.8319L42.8834 16.5418L43.5071 16.5505C43.9866 16.5591 44.2038 16.5418 44.4122 16.4514C44.6746 16.3333 44.6833 16.3159 44.7562 15.8816C44.9195 14.9399 44.9369 14.4691 44.8379 13.8993C44.7111 13.1487 44.6937 10.2352 44.8205 9.66363C44.956 9.04861 45.0464 8.92179 45.5085 8.69593C46.1965 8.36063 46.7125 8.2616 47.8973 8.2616C49.3445 8.2616 50.0777 8.46139 50.6215 8.98607C51.1097 9.45689 51.1913 10.5601 50.9377 13.1487C50.7831 14.6411 50.7657 15.0581 50.8109 16.0345C50.8282 16.6582 50.8734 17.2471 50.8925 17.3288C50.929 17.4834 50.9655 17.4921 51.4902 17.5008C52.0062 17.5095 52.0965 17.5373 52.5847 17.7909C53.0555 18.0359 53.4082 18.3347 53.4812 18.5519C53.4898 18.597 53.5715 18.597 53.7157 18.5519C53.9954 18.4702 54.2404 18.5606 54.4402 18.8055C54.5583 18.9601 54.6295 18.9862 54.9023 18.9862C55.2741 18.9862 55.4096 19.0765 55.7171 19.53C55.8613 19.7385 56.0611 19.8914 56.287 19.9921C56.7943 20.2458 57.4823 20.9511 57.7446 21.5123C58.1511 22.3445 58.2328 23.3122 57.9791 24.1809C57.8888 24.5075 57.8888 24.5162 58.0782 24.8324C58.476 25.5117 58.622 26.3438 58.4586 27.0492L58.3683 27.4662L58.6393 27.7372C59.9875 29.0854 59.7877 31.2848 58.1424 33.248C57.9704 33.4565 57.762 33.7814 57.6803 33.9812C57.3641 34.8221 57.001 35.411 56.5319 35.8992L56.0524 36.3874H55.5642C55.076 36.3874 54.388 36.2241 53.9711 36.0069C53.7991 35.9166 53.7904 35.9166 53.8269 36.0243C53.9363 36.4222 54.2074 38.0414 54.2977 38.9378C54.4419 40.3138 54.3967 42.3135 54.2074 43.1735C54.0719 43.8076 53.8356 44.4226 53.5194 44.9925C53.3387 45.2826 53.33 45.3452 53.3648 45.6978C53.4186 46.1947 53.3022 47.0286 53.1024 47.5794C52.8575 48.2222 52.7671 48.521 52.7133 48.8459C52.6681 49.1256 52.6681 49.1256 52.8679 49.1256C53.1302 49.1256 53.2744 49.2802 53.2744 49.5877C53.2744 49.7233 53.1563 50.4564 53.0121 51.2069C52.6142 53.3161 52.5864 53.5506 52.5864 55.5955C52.5777 57.7046 52.5777 57.6855 53.0572 58.0017L54.1344 58.6984C55.0569 59.3134 56.0524 59.8207 57.0931 60.2185C58.6046 60.8162 58.8131 60.9691 58.8131 61.4764C58.8131 61.7022 58.7679 61.7839 58.5785 61.9646C58 62.5257 56.8586 62.6526 54.56 62.4076C53.3648 62.2981 52.1625 62.2356 50.9672 62.2356C47.8 62.1904 47.3379 62.081 46.9227 61.294C46.6882 60.8422 46.7333 60.2533 47.0582 59.2856C47.2024 58.8599 47.3292 58.4256 47.4387 57.9826C47.6558 56.9332 47.5117 55.6841 47.0043 54.2734L46.57 53.0694C46.1444 51.848 45.9098 49.6121 46.1635 49.1065C46.2086 49.0075 46.2903 48.9884 46.5075 48.997L46.7785 49.0248L47.0043 48.554C47.1763 48.1822 47.3657 47.939 47.8817 47.423L48.5419 46.7628L48.5054 46.3372C48.4776 45.9306 47.9442 43.957 47.8713 43.9657C47.8435 43.9657 47.6993 44.1655 47.536 44.4174C47.1381 45.0151 46.2608 45.9376 45.7621 46.2729C45.545 46.4171 45.3643 46.5891 45.3643 46.6447C45.3556 46.8897 45.1471 47.3692 44.8935 47.7027C44.6485 48.0293 44.6311 48.0832 44.6676 48.3716C44.7302 48.7973 44.5947 50.1628 44.4331 50.8786C44.2889 51.4033 44.0891 51.9193 43.8354 52.4161C43.2117 53.7105 42.7409 54.8675 42.6228 55.4026C42.5324 55.9186 42.4873 56.4433 42.4595 56.9593C42.4317 57.5743 42.3691 58.1719 42.3239 58.2988C42.2614 58.4708 42.2614 58.6063 42.3153 58.8686C42.3604 59.058 42.3882 59.4836 42.3778 59.8189C42.3691 60.2811 42.4056 60.5799 42.5411 61.122C42.7757 62.0445 42.8208 62.6248 42.7131 62.9688C42.6401 63.1859 42.5689 63.2676 42.3239 63.3857C41.7802 63.6654 40.2426 63.82 39.4104 63.6758L39.4122 63.6793ZM41.6099 62.9375C41.9261 62.8471 42.1989 62.5761 42.1989 62.3311C42.1989 62.2217 42.1085 61.9055 41.9991 61.6258C41.7819 61.0924 41.4101 59.68 41.4101 59.4454C41.4101 59.3273 41.4188 59.3186 41.5995 59.4176L41.7993 59.5271V59.2734C41.7715 59.0389 41.7176 58.8113 41.6446 58.5854C41.4727 58.0694 41.4553 58.0608 40.359 57.9965L39.6172 57.96L39.3461 58.2223C39.2019 58.377 39.0664 58.5385 38.957 58.7296C38.8388 58.9642 38.7937 59.3186 38.8666 59.3985C38.884 59.4263 39.0664 59.3985 39.2645 59.3533C39.3826 59.3169 39.499 59.2995 39.6259 59.2908C39.6259 59.2995 39.4261 59.4628 39.1741 59.6348C38.0883 60.4496 37.7078 60.9465 37.7078 61.5806C37.7078 62.2408 38.3315 62.7568 39.3097 62.9114C39.9785 63.0104 41.2815 63.0382 41.6082 62.9392L41.6099 62.9375ZM56.3321 61.8603C56.6032 61.5337 56.5667 61.2001 56.2227 60.8197C56.0229 60.6199 55.797 60.4479 55.5434 60.3124C55.2897 60.1768 55.0361 60.0222 54.7824 59.8606C54.5826 59.7164 53.9502 59.3447 53.37 59.0285C52.953 58.8026 52.5465 58.5663 52.1486 58.3144L51.9853 58.1876V55.6997C51.9853 53.2483 51.9766 53.2118 51.8498 53.2483C51.2157 53.4203 50.1663 53.502 48.8372 53.4742L47.3987 53.4568L47.6072 53.9641C47.9964 54.9231 48.1962 56.2088 48.1962 57.6838C48.1962 58.2362 48.1597 58.4343 48.0242 58.8235C47.9512 59.0128 47.8887 59.2039 47.8244 59.3933C47.7966 59.475 47.8973 59.5375 48.2674 59.647C48.5384 59.7286 48.9363 59.8103 49.1639 59.8363L49.5808 59.8815L49.5357 60.2985C49.4905 60.7693 49.5443 61.2662 49.6625 61.4208C49.7354 61.5111 50.0065 61.5476 51.2643 61.6015C52.2146 61.6466 53.2466 61.7457 54.0597 61.8638C54.7651 61.9733 55.526 62.0636 55.7519 62.0636C56.1323 62.0723 56.1688 62.0549 56.3304 61.8638L56.3321 61.8603ZM41.8462 57.6264C41.8827 57.5986 41.9365 57.1104 41.9556 56.5319C42.0286 54.9127 42.0911 54.6764 42.906 52.8487C43.5748 51.3564 43.9293 49.963 43.9015 48.9762L43.8841 48.3872L43.6304 48.6322C43.1058 49.1569 43.4671 48.3334 44.0926 47.6002C44.5634 47.0391 44.7267 46.7316 44.7979 46.2347C44.8344 46.0349 44.9074 45.9359 45.2149 45.7013C46.3824 44.8153 47.2233 43.6929 47.7757 42.317C47.9026 41.9903 48.2274 40.8785 48.5002 39.8465C49.0075 37.9371 49.2785 37.1136 49.5235 36.7609C49.6138 36.6254 49.6503 36.5976 49.6329 36.688C49.4887 37.2318 49.4436 37.4576 49.3254 38.163C49.2525 38.606 49.117 39.4747 49.0266 40.081C48.8546 41.3215 48.6739 42.1172 48.429 42.7322L48.2657 43.1492L48.7 44.2715C49.1517 45.4199 49.3602 46.2538 49.3967 47.0582L49.4245 47.5099L49.0718 47.5829C48.601 47.6645 48.1944 47.9268 47.913 48.3073C47.6055 48.7503 47.4335 49.1134 47.5151 49.1934C47.5516 49.2299 47.9946 49.3115 48.5019 49.3741C49.289 49.4644 49.5878 49.4644 50.6284 49.4019C51.0802 49.3845 51.5249 49.3393 51.9679 49.275C52.067 49.2385 52.1677 49.0405 52.3293 48.5245C52.7011 47.3396 52.7723 46.9227 52.7272 46.0905L52.6907 45.3573L52.88 45.1124C53.3231 44.5512 53.6671 43.5383 53.8113 42.3517C53.9833 40.9045 53.6671 37.8728 53.0781 35.2668C52.7984 34.0264 52.6802 33.2845 52.6802 32.7425V32.263L52.2372 32.3081C50.6441 32.4801 48.7174 32.435 47.5412 32.19C46.8984 32.0632 45.2792 31.5837 44.9265 31.429L44.6468 31.3022L44.6103 31.6184C44.5825 31.7904 44.5564 31.9624 44.5199 32.1431C44.4661 32.3325 44.4835 32.3776 44.8188 32.7043C45.2357 33.1299 45.3626 33.3471 45.3626 33.6355C45.3626 33.8162 45.2635 33.9621 44.7562 34.4868C44.3844 34.8759 43.9154 35.2929 43.5522 35.5274L42.9633 35.9253L42.7096 36.8026C41.8045 40.015 41.6325 42.9372 42.2301 45.0272L42.3743 45.5519L42.0842 45.9133C40.9984 47.2788 40.3555 48.3195 40.2565 48.8998C40.2391 49.0179 40.1471 49.3966 40.0567 49.7511C39.8222 50.6475 39.6398 51.9592 39.5598 53.3804C39.506 54.5652 39.4243 55.7605 39.3253 56.9454L39.2801 57.2981L39.7318 57.4336C39.9855 57.5152 40.366 57.6056 40.5831 57.6421C40.9897 57.7046 41.7419 57.6872 41.8583 57.6247L41.8462 57.6264ZM50.6319 52.6489C51.3373 52.6038 51.9801 52.4943 52.1069 52.3866C52.1608 52.3501 52.2251 52.1607 52.2424 51.9696L52.2876 51.6256L51.7264 51.7525C51.2834 51.8428 50.8404 51.8967 50.3956 51.9332C49.3272 51.9783 48.2518 51.9505 47.192 51.8428C46.8393 51.789 46.8393 51.789 46.947 52.2494C47.0374 52.5933 47.0565 52.6107 47.979 52.675C48.594 52.7289 49.454 52.7202 50.6302 52.6472L50.6319 52.6489ZM50.043 51.0749C50.9655 50.9933 52.1156 50.7952 52.3415 50.6771C52.4144 50.6406 52.477 50.5051 52.5048 50.3504L52.5864 49.8709L52.6316 49.6451L52.4057 49.6902C51.4016 49.8987 50.6406 49.9613 49.1204 49.9613C47.6367 49.9613 47.4647 49.9526 47.0756 49.8171C46.9314 49.7545 46.7681 49.718 46.6048 49.7076C46.5422 49.7441 46.5318 50.2601 46.5874 50.6215C46.6239 50.8386 46.6604 50.8751 46.8775 50.9377C47.5655 51.127 48.7243 51.1722 50.0447 51.0645L50.043 51.0749ZM33.2498 42.9129C35.5657 42.244 38.5974 40.2791 41.0765 37.819C41.8827 37.0129 41.9817 36.9051 42.0894 36.5438L42.2336 36.0817C42.251 36.0452 42.1068 35.9826 41.9174 35.9374C41.4205 35.8193 41.0401 35.5309 41.0401 35.2686C41.0401 35.114 40.9497 34.9611 40.6874 34.6796C40.2617 34.2001 40.154 33.9916 40.1088 33.5312L40.0724 33.1594L39.565 32.7981C39.2749 32.5896 38.262 32.0284 37.1849 31.4864C36.3701 31.0885 35.5657 30.6542 34.7787 30.1834C33.8735 29.577 33.2672 28.8526 32.9232 27.9943C32.8606 27.8223 32.779 27.6781 32.7512 27.6781C32.6782 27.6781 30.6421 29.6413 29.7734 30.5639C27.6295 32.8259 26.1545 34.7891 25.2216 36.6081C24.987 37.0598 24.7334 37.5949 24.6604 37.7929L24.5249 38.1543L24.6882 38.7606C24.7872 39.0873 24.9957 39.6206 25.159 39.9368C25.7289 41.0591 26.4082 41.7367 27.5305 42.2892C28.7345 42.8868 29.8012 43.0953 31.5837 43.0675C32.5427 43.0588 32.8242 43.031 33.2481 42.9042L33.2498 42.9129ZM14.9712 34.9767C16.4914 33.6285 18.5901 32.1535 21.1614 30.6247C22.8449 29.6205 29.3512 26.363 32.3464 25.0322C32.8902 24.7872 33.3784 24.5613 33.4322 24.5353C33.4861 24.4988 33.6407 24.1096 33.7849 23.6753C34.419 21.6669 34.7352 21.2691 35.8836 21.0067C36.0278 20.9703 36.0643 20.9251 36.0643 20.7809C36.0643 20.5185 36.245 19.9122 36.3996 19.6412C36.5178 19.4327 36.5178 19.424 36.417 19.4518C36.3544 19.4692 35.974 19.5786 35.5761 19.6968C30.0566 21.2899 25.2337 23.406 21.071 26.0485C16.6287 28.8717 14.0678 32.256 13.326 36.3092L13.2721 36.6081L13.8159 36.0747C14.106 35.7759 14.6307 35.2877 14.9747 34.9889L14.9712 34.9767ZM55.9169 35.7463C56.3599 35.5205 57.0479 34.4798 57.3016 33.6563C57.3745 33.3662 57.5187 33.0952 57.7272 32.8693C58.3961 32.1275 58.9486 30.7793 58.9573 29.8568C58.9573 28.4182 58.1424 27.8658 56.9576 28.4808C56.803 28.5537 56.6779 28.6076 56.6588 28.5902C56.5962 28.5277 56.9298 28.2011 57.3381 27.9474C57.8714 27.5947 57.9722 27.3863 57.9722 26.6357C57.9722 26.0016 57.8176 25.496 57.4562 24.9349C57.2929 24.6899 57.2303 24.5283 57.2564 24.4276L57.4197 23.8212C57.6456 23.0151 57.5639 22.0926 57.2112 21.5054C56.6866 20.6193 56.0437 20.185 55.1473 20.112L54.6226 20.0755L54.9301 20.4195C55.8439 21.4063 56.287 22.645 56.1063 23.7048C56.0159 24.2486 55.9343 24.3563 55.4096 24.5648L55.1021 24.6916L55.1386 25.1086C55.2011 25.7879 55.0847 26.2848 54.6504 27.1986C54.4332 27.6608 54.2699 28.076 54.289 28.1211C54.3429 28.2758 54.9405 28.5642 55.4113 28.6823L55.8735 28.7918L55.5833 28.8908C55.2029 29.0089 55.1212 29.1809 55.1212 29.8046C55.1212 30.3745 55.2029 30.6108 55.6181 31.2345C55.8075 31.5055 55.9343 31.7869 55.9534 31.9485C55.9899 32.2022 55.9812 32.2195 55.7727 32.2925C55.5382 32.3551 55.2932 32.402 55.0482 32.4106C54.1969 32.4645 54.1344 32.4923 53.7539 32.8537C53.4099 33.1803 53.4012 33.1977 53.4012 33.559C53.4012 34.0559 53.5906 35.0618 53.7088 35.1973C53.8634 35.3607 54.7216 35.7863 55.0569 35.8488C55.3471 35.9218 55.6546 35.8853 55.9169 35.7498V35.7463ZM43.3837 35.0688C43.9362 34.6344 44.3705 34.2001 44.6138 33.8283C44.7684 33.6025 44.7771 33.5573 44.7041 33.3662C44.5773 33.076 43.7451 32.3255 43.283 32.0997C42.9755 31.9641 42.6488 31.8651 42.3153 31.82L41.7454 31.747L41.3927 31.304C40.6596 30.3988 40.253 29.6934 39.6728 28.3262C39.1655 27.1673 38.7224 26.4898 38.0171 25.8192C37.7269 25.5481 37.5202 25.3223 37.5376 25.3223C37.5741 25.3223 37.9181 25.4943 38.3159 25.7028C38.9761 26.0555 39.0577 26.0832 39.3566 26.0381C40.4337 25.9113 41.384 24.6725 41.728 22.9352C41.8271 22.447 42.0269 21.9484 42.2353 21.6496C42.244 21.6409 42.661 21.9119 43.1492 22.2646C44.3896 23.1419 44.6607 23.2774 45.366 23.3052C45.8282 23.3226 46.0905 23.2879 46.9227 23.0881C48.6965 22.6537 50.6145 22.4817 51.782 22.6364C52.4422 22.7267 53.3926 23.0168 54.0979 23.3504C54.7946 23.677 54.9301 23.6944 55.156 23.4946C55.3453 23.3313 55.3453 23.3052 55.3453 22.6989C55.3366 21.8024 55.01 20.8347 54.5131 20.2562C54.2595 19.9574 53.5454 19.4692 52.8383 19.0974C52.5847 18.9619 52.331 18.8264 52.0878 18.6909C51.7525 18.4911 51.3738 18.5189 50.3418 18.7899C49.1465 19.0974 48.8303 19.0974 47.4647 18.7447C46.3059 18.4546 46.2347 18.4459 45.0933 18.6266C44.4869 18.7169 42.9668 18.6631 42.4595 18.5275C42.2058 18.4546 41.9522 18.3834 41.7089 18.293C41.2659 18.121 40.4963 18.0932 39.7996 18.22C38.4149 18.465 37.3656 19.2155 36.9851 20.2371C36.7853 20.7531 36.8131 20.998 37.0754 21.1596C37.4924 21.422 38.0431 22.1377 38.0431 22.4175C38.0431 22.4348 37.9076 22.3184 37.753 22.1551C37.3638 21.7486 37.0112 21.5662 36.5942 21.5662C36.0417 21.5835 35.5448 21.9102 35.319 22.407C35.2008 22.7232 35.0931 23.0498 35.0115 23.3852C34.7578 24.3077 34.532 24.7976 34.0525 25.4491C33.6268 26.0381 33.5643 26.3004 33.7172 26.9606C34.0976 28.625 34.7578 29.2956 37.5167 30.8609C38.9639 31.6844 39.7058 32.1466 40.2496 32.5531C40.6665 32.8606 40.6752 32.8797 40.6387 33.1143C40.5571 33.6581 40.9011 34.2453 41.5804 34.7248C41.7524 34.8429 41.8601 34.9698 41.8601 35.0601C41.8601 35.2234 42.3222 35.4493 42.6558 35.4493C42.8451 35.4493 42.9911 35.3676 43.3803 35.0688H43.3837ZM54.5409 32.018C55.5903 32.0545 55.6441 31.9728 55.0847 31.3213C54.4958 30.642 54.3342 30.0913 54.5514 29.485L54.6417 29.2504L54.2699 29.0697C54.1431 29.0072 54.0163 28.9429 53.8894 28.8977C53.8269 29.1427 53.7626 29.3772 53.7088 29.6222C53.5732 30.1747 53.4099 31.6045 53.4012 32.2109C53.4012 32.2647 53.4916 32.2473 53.6462 32.1483C53.8634 32.0215 53.9728 32.0041 54.5427 32.0215L54.5409 32.018ZM51.0211 31.9641C51.6552 31.9277 52.3067 31.8825 52.4787 31.8547L52.7949 31.8095L52.8314 30.7689C52.8852 29.2852 53.1024 28.4078 53.7452 27.004C54.1969 26.0085 54.3967 25.1399 54.2977 24.4884C54.2612 24.2087 54.2438 24.1895 53.8634 24.0262C53.1667 23.7465 52.4422 23.5554 51.7004 23.4373C50.9863 23.3382 48.8859 23.3921 48.0989 23.5467C47.7723 23.6006 47.1763 23.7274 46.7785 23.8264C45.7917 24.0523 45.267 24.0262 44.5165 23.6996C43.7746 23.373 43.3038 23.0759 42.8608 22.6589C42.5081 22.3323 42.4716 22.315 42.3813 22.4244C42.3083 22.5061 42.2718 22.751 42.2458 23.2757C42.218 24.0818 42.0911 24.5057 41.7385 25.0756C41.6568 25.1937 41.5943 25.3206 41.5387 25.4474C41.5387 25.4752 41.8097 25.7914 42.145 26.1354C43.3038 27.3393 43.8737 27.6469 44.7875 27.5826C45.0863 27.5548 45.2948 27.5652 45.2948 27.5999C45.2948 27.6729 44.7058 28.1333 44.4626 28.2601C44.3445 28.3227 44.3184 28.387 44.3358 28.5225L44.48 29.4728C44.5616 30.0166 44.6242 30.2685 44.7058 30.3415C44.923 30.5222 46.0453 31.1024 46.7507 31.3908C47.6732 31.7626 48.1805 31.8981 48.8859 31.9607C49.7546 32.0336 49.7719 32.0336 51.0211 31.9607V31.9641ZM43.5384 30.9687C43.5557 30.9409 43.4932 30.4162 43.375 29.8098C43.2308 28.9863 43.1492 28.6875 43.0588 28.6059C42.9963 28.552 42.661 28.3157 42.3257 28.0725C41.8827 27.7563 41.4657 27.4036 41.0765 27.0318L40.4528 26.4168L40.1175 26.5888L39.7648 26.7782C39.7926 26.9224 39.8465 27.0579 39.909 27.1847C40.0081 27.4019 40.2079 27.9353 40.3521 28.3696C40.7325 29.5006 41.0314 30.0444 41.7819 31.0295L42.0616 31.4013L42.595 31.4829C42.8938 31.5281 43.1926 31.5924 43.2743 31.6184C43.4011 31.6723 43.4185 31.6462 43.455 31.3561C43.4723 31.2293 43.5001 31.0937 43.5366 30.9669L43.5384 30.9687ZM55.0031 19.7124C55.4652 19.6672 55.5469 19.603 55.3471 19.3962C55.2202 19.2694 54.9301 19.2607 54.6956 19.3684C54.5409 19.4414 54.5062 19.4223 54.2612 19.1599C54.0076 18.8802 53.9902 18.8698 53.6723 18.9063C53.3821 18.9428 53.337 18.9341 53.3005 18.8159C53.1823 18.6162 53.0468 18.4442 52.8835 18.2913C52.675 18.0567 52.4214 17.8743 52.133 17.7579C51.5718 17.5407 51.2556 17.5685 50.7205 17.8674C49.1725 18.7082 49.2368 18.6995 47.7427 18.3191C46.3494 17.9664 45.3087 17.605 44.9734 17.3774C44.6937 17.1881 44.096 16.9796 43.5974 16.9153C43.2256 16.8614 42.9911 16.9431 42.6384 17.2315L42.449 17.3861L42.621 17.6849C42.8556 18.1019 42.8295 18.128 42.4768 17.8205C42.0964 17.5043 41.6446 17.2871 41.3545 17.2767C41.146 17.2767 40.531 17.5477 40.458 17.6658C40.4302 17.7023 40.6214 17.7475 40.875 17.7649C41.1373 17.7927 41.4987 17.883 41.7437 17.982C42.3778 18.253 42.7027 18.3434 43.2812 18.399C43.9154 18.4615 45.0637 18.3903 45.1992 18.2808C45.2722 18.2183 45.4703 18.2079 45.8872 18.2444C46.4397 18.2808 46.6656 18.3347 47.9773 18.6874C48.7382 18.8959 49.2716 18.8768 50.1767 18.6335C50.5937 18.5154 51.1184 18.399 51.3355 18.3712C51.7073 18.3347 51.7786 18.3538 52.3588 18.6162C53.2814 19.0331 53.7713 19.2955 54.0423 19.5387C54.3133 19.7732 54.3498 19.7732 55.0013 19.7194L55.0031 19.7124ZM49.8449 18.1297L50.3974 17.8396L50.38 17.2784C50.3713 16.8892 50.3522 16.5088 50.3348 16.13L50.2897 15.5515L49.7372 15.9771C49.4106 16.2308 49.0944 16.4202 48.9589 16.448C48.561 16.5209 46.5978 16.448 46.4154 16.3489C46.1704 16.1682 45.9446 15.9684 45.7361 15.7513L45.2288 15.2353L45.2201 15.5428C45.2201 15.7061 45.2027 15.9858 45.1662 16.1578C45.1211 16.4844 45.1211 16.4931 45.4737 16.9361C45.6631 17.1811 45.8177 17.3983 45.8177 17.4243C45.8177 17.5963 48.4324 18.4111 49.0214 18.4198C49.2108 18.4198 49.447 18.3382 49.8449 18.1297ZM48.7955 16.0744C49.447 15.9476 49.7632 15.4768 50.0082 14.2832C50.2619 12.9976 50.3887 10.9805 50.2706 10.1206C50.1611 9.34222 49.2924 8.99823 47.6367 9.05209C46.6048 9.08857 46.1791 9.1876 45.8264 9.48642C45.6093 9.66711 45.6093 9.68622 45.5102 10.5445C45.3296 12.1915 45.6006 14.5351 46.0714 15.4125C46.2973 15.8381 46.497 15.991 46.9123 16.064C47.3831 16.1457 48.3873 16.1457 48.7938 16.0727L48.7955 16.0744Z" fill="#363636"/>
</g>
<defs>
<clipPath id="clip0_96_527">
<rect width="55.5949" height="55.5949" fill="white" transform="translate(8.20255 8.20251)"/>
</clipPath>
</defs>
</svg>
