<svg width="72" height="72" viewBox="0 0 72 72" fill="none" xmlns="http://www.w3.org/2000/svg">
<g clip-path="url(#clip0_96_411)">
<path d="M0 0H72V72H0V0Z" fill="white"/>
<path d="M66.1072 54.8281C65.5802 51.543 63.438 48.7848 57.0935 46.2114C54.8897 45.1985 52.4327 44.4731 51.7004 42.803C51.4403 41.8312 51.4061 41.2836 51.5703 40.695C52.0426 38.7855 54.3217 38.1901 56.1285 38.7376C57.292 39.1277 58.3939 40.0244 59.0578 41.4547C62.165 39.4426 62.1582 39.4563 64.3278 38.0738C63.5338 36.8419 63.1095 36.2738 62.5893 35.7468C60.7209 33.6594 58.1749 32.5848 54.1027 32.667C53.3977 32.756 52.686 32.8517 51.981 32.9407C49.9484 33.4541 48.0114 34.5217 46.8753 35.9522C43.4669 39.8191 44.4388 46.5878 48.5863 49.3734C52.6722 52.4396 58.6745 53.1377 59.4411 56.0054C60.1871 59.5164 56.8609 60.6525 53.5551 60.2487C51.1186 59.7423 49.7636 58.5035 48.2989 56.2518C45.6023 57.8122 45.6023 57.8122 42.8305 59.4069C43.4875 60.8442 44.1787 61.4943 45.2807 62.74C50.4959 68.0305 63.5475 67.7704 65.8883 59.7628C65.984 59.489 66.6138 57.6547 66.1072 54.8281ZM39.1414 33.0912H32.4068C32.4068 38.9087 32.3795 44.6852 32.3795 50.5027C32.3795 54.2053 32.5712 57.6 31.9689 58.6403C30.9833 60.6866 28.4305 60.4334 27.267 60.0364C26.083 59.4547 25.4807 58.6265 24.7826 57.4563C24.5909 57.1209 24.4472 56.8608 24.3992 56.8403C22.5719 57.9559 20.7513 59.0782 18.924 60.1939C19.8343 62.0623 21.1757 63.6844 22.8935 64.7383C25.4601 66.2782 28.9095 66.7505 32.5164 65.9223C34.8639 65.2379 36.8897 63.8213 37.9506 61.6654C39.4836 58.8388 39.1551 55.4167 39.1414 51.6319C39.1757 45.4585 39.1414 39.2852 39.1414 33.0912Z" fill="#363636"/>
</g>
<defs>
<clipPath id="clip0_96_411">
<rect width="72" height="72" rx="8" fill="white"/>
</clipPath>
</defs>
</svg>
