<svg width="72" height="72" viewBox="0 0 72 72" fill="none" xmlns="http://www.w3.org/2000/svg">
<g clip-path="url(#clip0_96_394)">
<path fill-rule="evenodd" clip-rule="evenodd" d="M0 0H72V72H0V0Z" fill="white"/>
<path fill-rule="evenodd" clip-rule="evenodd" d="M31.8987 30.174L33.1355 30.0546C33.3628 30.0343 33.5903 30.0158 33.8179 29.999L34.3896 29.9615C34.9736 29.9239 34.9891 29.8996 35.6038 29.8906C35.6424 29.7915 35.5469 29.7213 35.5181 29.692C34.8761 29.705 34.8154 29.7326 34.1795 29.7732L33.6097 29.8138C33.4854 29.8217 33.361 29.8331 33.2386 29.842L32.0126 29.9551L31.8987 30.174ZM32.3866 28.7895L32.9852 28.741L33.6097 28.6894C34.0637 28.6548 34.5205 28.6246 34.9774 28.6073L35.8072 28.593H36.0502C35.9535 28.5324 35.8475 28.4899 35.737 28.4672L34.8562 28.4127C34.8266 28.4097 34.7971 28.4063 34.7676 28.4023C34.3965 28.4306 34.0264 28.4602 33.6537 28.4895L33.0254 28.5391L32.3293 28.5946L32.3866 28.7895ZM45.4368 14.8214C44.7904 15.1215 44.5537 15.85 44.1168 16.3599C44.039 16.6892 44.4117 16.51 44.5246 16.6996C44.2874 16.9387 43.8881 16.978 43.6138 17.2185C42.8994 18.5863 41.9225 20.1351 42.5207 21.7714C43.2436 23.5986 44.99 24.9778 45.5696 26.8555C44.363 24.529 41.5722 22.7507 42.0177 19.7167C42.1591 19.066 42.4461 18.4662 42.6536 17.8469L42.5584 17.7484C40.1558 19.2663 37.322 21.654 36.5925 24.5999C36.0603 27.5771 39.9081 27.5042 40.5076 29.8826C40.2599 31.8382 38.4556 33.2064 37.0879 34.4751C36.9174 34.5955 36.7263 34.6554 36.4998 34.6251L36.5472 34.386C37.8194 33.088 39.6344 31.808 40.0514 29.9711C40.0891 28.3039 38.2731 28.0547 37.3635 27.1469C36.708 26.4567 36.1945 25.6969 36.2233 24.6987C36.7311 21.8117 39.9907 18.6924 43.0298 17.1157C43.5239 16.3679 44.0387 15.2216 44.7069 14.5823C44.9812 14.5913 45.1893 14.7423 45.4368 14.8214Z" fill="black"/>
<path fill-rule="evenodd" clip-rule="evenodd" d="M43.1337 9.081C42.7121 8.46588 42.2494 7.73157 41.5673 7.34179C39.8746 6.21803 37.324 6.07996 35.4676 6.9214C29.7168 9.31611 30.1775 15.8962 29.6495 21.2815L29.5146 21.4681C28.3971 21.487 27.4269 21.1457 26.5122 20.6755C25.0121 19.6794 24.724 18.007 24.7144 16.3055C25.0217 13.4702 26.2626 10.4894 29.0529 9.21744C29.7341 8.70066 30.5629 8.52417 31.3604 8.27896C30.611 8.16206 30.042 8.48542 29.4182 8.65996C25.9258 9.2868 23.0121 12.5904 22.175 15.9828C21.4246 19.0135 22.0314 22.4548 24.4834 24.5656C26.0902 26.0329 28.985 26.1696 30.8503 25.1716L31.7257 25.9244C31.6885 26.3549 31.7929 26.833 31.8221 27.2833C31.8807 28.0163 32.4664 28.5243 32.5164 29.2583C32.0624 30.3335 31.4075 31.3059 30.7555 32.3088C30.0743 33.3544 30.453 32.2342 29.8087 33.5439C30.1153 33.514 30.3281 33.259 30.5867 33.1242C31.8859 31.061 31.8993 31.5947 32.9762 29.4439C33.6205 29.903 34.4977 30.509 34.5926 31.3208L34.6804 31.2316C34.5663 30.2954 33.5734 29.8845 33.0258 29.2101L33.2075 28.2719C33.351 27.86 33.8428 27.5874 33.9483 27.1469C33.6612 27.3234 33.582 27.7131 33.2953 27.9007C33.1694 27.1566 32.8531 26.492 32.1883 25.9743L32.2851 25.8769L33.4398 26.2569C33.6029 26.3839 33.9864 26.2957 33.9483 26.6291L33.9864 26.5806L34.0831 26.6766C34.335 28.1251 35.4974 29.24 36.2567 30.4325C35.9482 29.1121 34.6695 28.2035 34.4977 26.8137L34.5926 26.677C35.3247 26.8932 36.0565 27.1075 36.6716 27.6164C37.1429 28.1352 37.1317 28.917 36.9875 29.5914C36.1904 31.4384 34.978 33.1587 33.756 34.7915C33.7374 35.0266 33.4299 35.4163 33.8047 35.5443C33.9774 35.2613 35.3157 33.0353 35.6611 32.9184C36.2493 31.5794 36.2375 32.3482 36.7581 30.9981C37.0253 30.2065 37.3727 29.4556 37.3621 28.5559C37.1894 26.9805 35.4765 26.8137 34.4487 26.1602C34.3814 25.7496 34.5336 25.3588 34.8233 25.1719C34.872 24.9775 34.7178 24.8596 34.7765 24.6639C35.333 23.2663 36.4884 22.0044 37.6812 20.9986C37.8071 20.6752 37.5085 20.6752 37.315 20.6264C36.0356 21.6332 35.0732 22.9726 34.3138 24.2344C33.9008 24.0677 33.4196 23.5401 33.0255 23.8612C33.4004 24.1748 34.0357 24.1549 34.2174 24.6639C34.0066 25.0745 34.1033 25.6805 33.9479 26.0706C33.3507 25.885 32.7464 25.7492 32.2351 25.3673C32.361 24.644 32.4869 23.9309 33.0255 23.3933C33.7752 21.3301 35.9389 19.7266 37.9116 19.1691C38.2377 19.1096 38.5931 19.1096 38.882 18.9839C38.7276 18.681 38.5303 18.7149 38.1932 18.7833C36.4723 19.1454 35.0081 20.2307 33.6817 21.5411L33.3417 20.9497C33.4571 20.6055 33.5058 20.4697 33.7458 20.1392C34.0825 19.8061 34.516 19.0431 35.1424 19.1203C35.3622 19.0816 35.2949 18.8377 35.3708 18.7009C36.0158 18.1333 36.7091 17.7038 37.4117 17.2932C37.8712 16.95 37.8154 17.7129 38.1903 17.5771C38.296 17.215 38.0644 16.833 37.728 16.6377C37.5758 16.6465 37.3912 16.5979 37.2672 16.6872C36.7091 17.1167 36.1321 17.5084 35.564 17.8995C35.44 17.5087 35.5932 17.117 35.6021 16.7259C35.6803 16.2368 36.5069 16.4521 36.3429 15.933C36.1997 15.7972 35.9866 15.6702 35.7953 15.7884C35.5435 15.1417 35.9213 14.1935 35.4673 13.6754C35.4086 14.369 35.4086 15.2101 35.2859 15.9333L35.0546 16.2567C34.1302 16.95 32.8352 17.6911 32.0182 18.6296L32.1412 18.329C32.6506 16.8239 33.1601 15.3182 33.6698 13.8222C33.9861 12.5812 34.4487 10.9772 33.8044 9.73618C34.1597 12.6288 32.7855 15.0144 31.9567 17.5283C31.8336 18.8474 30.727 19.7475 30.1109 20.8615C30.0827 17.5771 30.2458 14.1456 31.4969 11.2904C32.7545 8.3975 35.7665 6.5492 38.7494 6.68629C40.6035 6.84292 42.5673 7.93803 43.2212 9.83387C44.3368 13.295 41.4789 15.8653 39.1131 17.9493C39.1425 18.0841 39.2957 18.0744 39.3947 18.1336C40.4222 17.753 41.2101 16.7647 42.1149 16.0714H41.7493C43.4528 14.2625 44.0199 11.4578 43.1337 9.081ZM25.7717 24.9869C23.1762 23.5981 22.0208 20.8514 22.1272 17.9496C22.4063 14.7721 24.089 11.7991 26.9264 10.0693H27.062C25.147 12.0632 24.2822 14.6344 24.4344 17.3912C24.5126 18.9555 25.3392 20.53 26.7906 21.1835C27.5909 21.615 28.5435 21.6922 29.4669 21.8501C29.5441 22.3959 29.1388 22.9253 29.2346 23.491L29.3711 23.2956C29.8308 23.3252 29.7927 23.9703 30.0622 24.2826C30.2067 24.4881 30.3883 24.6753 30.4867 24.8997C29.0914 25.5057 27.1674 25.7994 25.7717 24.9869ZM31.9403 25.0553C31.717 25.1445 31.5908 24.9869 31.4972 24.8993L32.1198 24.3757L31.9403 25.0553ZM32.651 27.1475C32.8326 27.5979 32.7077 28.1534 32.6013 28.6041C32.2559 28.0274 32.2264 27.2371 32.1883 26.493C32.4401 26.59 32.5436 26.9023 32.651 27.1475ZM32.4812 23.3747C32.4049 23.8726 31.717 24.1862 31.313 24.3816C31.3216 23.0702 32.1415 21.9849 33.064 20.9989C33.2463 20.9693 33.2367 21.1835 33.2953 21.2815C33.4212 22.5743 32.9086 22.6906 32.4812 23.3747ZM33.3039 18.1857L33.5253 17.9972C33.9861 17.6162 34.5073 17.1759 35.0549 16.9219C35.0363 17.5091 34.9485 18.1935 34.5923 18.7015C34.3238 18.6231 34.4196 18.9357 34.2671 19.033C33.2168 19.6797 32.7368 21.36 31.3127 21.1835L31.8221 19.5029C32.4196 19.0627 32.5045 18.4339 33.3039 18.1857ZM31.5321 19.4853L30.9407 21.1975H30.3492L31.5321 19.4853ZM30.0157 21.8006C30.5924 21.8592 31.3899 21.5072 31.9102 21.5655C31.313 22.5049 30.487 23.4711 30.8503 24.7043C30.5155 24.5962 30.3992 24.2249 30.256 23.9612C29.9375 23.3252 29.7081 22.3959 30.0157 21.8006ZM52.8081 31.5898L52.7206 31.2088C52.7588 31.3368 52.9523 31.453 52.8081 31.5898ZM52.4134 31.457L52.3265 31.076C52.3663 31.2026 52.5566 31.3199 52.4134 31.457ZM39.9948 30.5403C39.658 30.6572 39.3059 30.7594 38.9817 30.7415C38.8385 30.7594 38.6594 30.8041 38.5248 30.6771C39.1018 30.6946 39.5325 30.4429 39.9948 30.5403Z" fill="black"/>
<path fill-rule="evenodd" clip-rule="evenodd" d="M38.2585 30.1122C37.5914 30.334 36.8598 30.2743 36.0797 30.3556C36.0989 30.2848 35.321 30.4469 35.2364 30.3957L35.1914 30.3556L35.2843 30.2538C36.2655 30.1739 37.2671 30.0009 38.2585 30.1122ZM44.6582 32.2972C44.187 32.9054 43.2684 32.5305 42.7519 33.1191C41.7308 33.4734 40.3605 33.4734 39.3678 33.3099C39.7313 33.1588 40.2219 33.2195 40.5268 33.0665C40.1942 32.9155 39.8048 33.1885 39.5082 32.9768C40.4713 32.7951 41.7509 32.7634 42.7963 32.4388C43.4172 32.4995 44.1306 32.3886 44.6212 32.0555L44.6582 32.2972ZM24.9648 32.6539L25.1867 32.8447C25.9087 33.0975 26.7903 32.9155 27.4568 33.3314C26.4734 33.351 25.3539 33.3807 24.6125 32.7452C24.556 32.3488 25.0111 32.6114 24.9648 32.6539ZM43.0648 36.1341C42.306 36.6805 41.3436 36.6599 40.4818 36.9114C37.2949 37.2367 33.6448 37.3395 30.4311 37.0034C29.9626 36.9863 29.4996 36.8876 29.0595 36.7112C29.411 36.4176 29.9121 36.3147 30.3925 36.2244C33.8855 36.5999 37.6358 36.4678 40.8795 35.5981C41.0174 35.5067 41.2121 35.3537 41.1936 35.1615C38.082 36.0242 34.7008 36.1445 31.3645 35.981C31.1528 35.9655 31.0658 35.9864 30.8233 35.9534L30.5339 35.9224C30.2734 35.9315 30.2284 35.9072 30.0321 35.8917C29.2724 35.5775 28.3372 35.7707 27.6784 35.1615C28.2338 34.7365 28.8935 34.606 29.5039 34.333L31.3651 34.4337L31.5062 34.333L31.1424 34.2406C30.615 34.2561 30.5163 34.1277 29.9022 34.0896C29.406 33.9787 28.651 34.1391 28.651 34.1391C28.5016 34.1819 28.3134 34.1883 28.2215 34.2386C27.7944 34.3414 27.5117 34.2922 27.1421 34.6781C27.0217 34.818 27.2624 35.0415 27.0585 35.1619C26.7434 35.0108 26.3262 34.6566 25.9831 34.7274C26.1315 34.9401 26.3358 35.0109 26.5209 35.1127C26.8912 35.3035 26.7249 35.6392 26.8366 35.9813C26.9193 36.3663 27.2729 36.4004 27.4429 36.6684L27.7626 36.8133C27.7722 36.903 27.6781 36.9431 27.633 37.0041C27.3359 37.1767 27.1788 37.4201 26.8724 37.5927C26.8724 37.5927 26.7662 37.9621 26.8724 38.218C26.9807 38.4755 27.5389 38.8554 27.9018 39.0988C27.966 39.2192 28.0774 39.1298 28.2073 39.2404C28.0314 39.5148 27.4204 39.6874 27.5867 40.1613C27.7898 40.9812 28.6423 40.9006 29.1894 41.234C29.0691 41.3354 29.4847 41.9021 29.7627 41.8101C30.3928 42.1242 31.1078 42.2163 31.8101 42.2965C32.9212 42.9747 34.4496 42.845 35.7298 42.7829C37.5365 42.58 39.4157 42.5399 40.9724 41.6688C39.3589 42.133 37.5365 42.1765 35.8116 42.2048C37.2387 41.8906 38.6853 41.6591 40.0822 41.2849C40.5185 41.0425 40.9542 40.7772 41.417 40.5955L40.8428 40.8392C38.1832 41.1625 35.4969 42.0039 32.6994 41.8097C32.3769 41.7821 32.1711 41.8906 31.9033 41.7201C31.8551 41.5785 31.9597 41.5067 32.0329 41.4265C35.2281 41.3547 38.4714 41.566 41.1936 40.1104C41.5648 40.0103 41.9999 39.9793 42.2134 39.5849L42.0838 39.4342L41.7682 39.6766C39.6474 39.7669 37.2106 39.9308 34.9689 39.7272C34.4416 39.7272 33.9593 39.7363 33.5051 39.625C36.0347 39.3813 38.5915 39.2188 40.9267 38.4604C41.139 38.2878 41.666 38.2082 41.463 37.7828L41.1936 38.0265C37.8873 38.9569 34.3502 39.2707 30.744 38.999C30.5693 38.8962 30.4583 39.1076 30.3003 38.8962C30.4206 38.7954 30.6792 38.4604 30.569 38.5625C30.1432 38.5426 29.7992 38.7546 29.411 38.8548C29.1703 38.9475 28.8827 38.7843 28.7436 38.5625C29.4381 37.9041 30.2447 37.561 31.1414 37.44C34.3573 37.7831 37.4893 37.469 40.6194 37.1568L40.9261 37.0034C41.4806 37.0034 42.0832 36.8527 42.6195 36.6697C42.7689 36.4873 43.2228 36.4769 43.0648 36.1341ZM27.0939 35.7397C27.4004 35.0597 27.845 35.981 28.2992 35.8917C28.5961 35.9719 28.8639 36.1229 29.1891 36.1341C28.975 36.3967 28.5763 36.3761 28.2992 36.5692C27.891 36.3262 27.2624 36.3262 27.0939 35.7397ZM31.5423 41.6688C31.3278 41.6985 30.9217 41.6371 30.652 41.5272C30.8758 41.3152 31.1417 41.4767 31.4577 41.4265C31.4858 41.507 31.5787 41.5569 31.5423 41.6688ZM34.478 40.2631L39.1012 40.3124C37.2474 40.9215 34.9883 40.9589 32.9216 40.8389C33.4316 40.6265 33.8855 40.252 34.478 40.2631ZM33.2841 40.2631C32.8759 40.3737 32.5686 40.7371 32.1261 40.7489C32.1063 40.6977 32.143 40.6784 32.1711 40.6461L32.081 40.5551C31.6071 40.6781 31.0686 40.9404 30.5693 40.6973C30.4114 40.6882 30.2629 40.8079 30.1238 40.6973C31.0319 39.8984 32.1992 40.192 33.2841 40.2631ZM29.1435 39.533C29.4205 39.6345 29.7263 39.7666 29.947 39.9183C30.0618 39.9992 30.1799 39.8381 30.3006 40.0198C30.0692 40.1923 29.7995 40.2635 29.5412 40.3528C29.5412 40.3528 29.2629 40.5372 29.1435 40.5959C28.7071 40.5045 28.1884 40.4051 27.9478 40.0198C28.2896 39.7056 28.6883 39.4015 29.1435 39.533ZM28.4297 38.612C28.003 38.5429 27.2896 38.6238 27.1421 37.9739C27.4204 37.44 27.9203 37.3082 28.3452 37.054C28.8639 37.1568 29.3829 37.2468 29.9016 37.3476C29.4573 37.7831 28.6152 37.7922 28.4297 38.612Z" fill="black"/>
<path fill-rule="evenodd" clip-rule="evenodd" d="M52.296 43.761C52.3256 44.1844 51.9387 44.4434 51.7121 44.7711C50.7106 45.3766 49.4909 45.5784 48.358 45.6924C46.9004 45.9425 45.3046 45.9825 43.8211 46.0206C41.4223 45.915 38.5656 46.2314 36.1954 45.9236C36.1857 45.8855 36.2159 45.8567 36.2417 45.8368L44.5866 45.7894C44.9445 45.7894 45.2375 45.491 45.5875 45.6082V45.5092C44.2935 45.4823 42.7626 45.4205 41.4396 45.4586L39.3717 45.5611C41.9347 45.2127 46.0701 44.6772 48.5076 43.9279C48.5623 43.8984 48.6224 43.8779 48.7166 43.8472C48.7836 43.7901 49.4358 43.5006 49.4433 43.0683C49.4537 42.7305 49.2639 42.4416 49.0751 42.2315C48.9429 42.1069 48.7351 42.0019 48.5844 42.049C48.7166 42.1748 48.8296 42.3474 48.9907 42.415C49.4358 42.741 48.867 43.0357 48.6687 43.2025C47.3168 44.087 45.6454 44.1652 43.9539 44.2209C43.9539 44.2209 43.3323 44.2177 42.5819 44.186C41.0802 44.2241 39.7853 44.1655 38.4164 44.127C34.7601 44.2122 31.2247 44.3861 27.7193 44.0777C27.5716 44.0627 27.4602 44.0502 27.2877 44.0403C26.2002 44.0134 25.3202 43.867 24.2711 43.7613C24.1005 43.7175 22.996 43.5119 22.9566 42.79C23.6183 42.097 24.5732 41.9436 25.4898 41.771C26.0469 41.7624 26.5188 41.4146 27.0759 41.5408V41.405C26.7929 41.4143 26.5225 41.4114 26.1036 41.3992C25.7901 41.3499 25.6003 41.3403 25.1776 41.405C23.4763 41.4344 22.0504 42.1281 20.641 42.8755C20.358 43.0882 20.3004 43.2957 20.4146 43.7613C20.5295 44.2266 20.9343 44.5888 21.2758 44.8178C20.528 44.8092 19.7625 44.5494 19.1392 44.0777C19.2151 44.2122 19.1861 44.3861 19.3284 44.4931C20.7083 45.6552 22.5799 45.5877 24.3186 45.8765L25.8106 46.6647C30.537 48.394 35.9125 47.2882 40.9118 47.0775C42.7166 46.9048 44.596 46.9343 46.2215 46.3371C47.5444 46.2608 48.8497 45.9832 50.03 45.6927C50.89 45.2719 52.2881 45.3561 52.4411 44.127C52.336 44.0307 52.477 43.7885 52.296 43.761ZM24.2226 45.002L23.5418 44.2615C23.391 44.4053 23.6463 44.723 23.4949 44.8658C22.5503 44.6846 21.0278 44.3836 20.8207 43.8965C20.6136 43.4075 21.8216 42.7606 22.5024 42.6062L22.6356 43.2028C23.07 44.0979 24.0252 44.0979 24.8084 44.3086C27.1615 44.5299 29.5902 44.8297 31.9317 44.7714L39.2363 44.7233H39.7761C34.7397 45.857 29.3249 45.1166 24.2226 45.002ZM32.841 47.1739C30.6012 47.1646 27.9843 46.9519 25.8565 46.1055L25.8096 46.021C27.1426 46.2605 28.5877 45.9428 29.8927 46.1055H30.4404C34.3525 46.3758 39.7163 46.3252 43.5825 46.4501C40.5013 46.8142 36.0147 47.0775 32.841 47.1739ZM52.6668 31.2523C51.5878 29.301 49.6605 28.3012 47.5828 28.2532C46.5425 28.2922 45.6451 28.6765 44.7273 28.9926C44.4919 29.3049 44.2589 29.3049 44.1321 29.5886C43.8296 29.849 43.4059 29.8393 43.0477 29.9546C43.0672 30.0795 43.5136 29.9751 43.6115 29.9995C43.805 29.9684 44.4069 30.108 44.5397 29.4932C45.5699 29.1957 46.5136 28.5516 47.7156 28.8014C47.7336 28.8492 47.6961 28.868 47.6763 28.8969C46.6741 29.2639 45.5589 29.4647 44.6332 29.8688C44.0399 30.2726 43.2722 30.4052 42.5929 30.4638C42.1963 30.6944 41.8369 30.5791 41.4107 30.7431C38.2839 31.0502 35.062 31.2904 31.8382 31.2523C31.886 31.1469 31.9994 31.0902 31.886 30.9743C31.1782 31.0034 30.4967 31.1088 29.7602 31.071L29.6651 31.2055L26.6695 31.2523L26.3951 31.1088C27.4165 30.7722 28.3252 30.6355 29.4215 30.501C29.6994 30.4542 29.7627 30.4581 30.0246 30.4171C30.7504 30.338 31.457 30.2601 32.1599 30.1887L32.2732 29.978C30.2949 30.173 28.3381 30.4581 26.3951 30.7428C25.9893 30.7527 25.6683 31.1088 25.2616 30.974C25.1294 30.8978 25.0067 30.7623 24.9972 30.6079C25.6963 30.1173 26.5477 29.9738 27.3504 29.7241C28.3255 29.3375 29.3554 29.1338 30.3459 28.9923C31.1064 28.9766 31.8725 28.9183 32.6452 28.8559L32.5876 28.6685C31.5839 28.7448 30.5858 28.8216 29.6192 28.8965C29.1725 28.8953 23.8506 30.0552 23.6743 30.8398C23.6312 31.1206 23.6378 31.2055 23.7221 31.34C24.2141 32.0218 25.0265 32.1086 25.8096 32.1742L25.99 32.3097C26.2257 32.9351 26.8597 33.2717 27.3985 33.6464C29.6195 34.2632 32.0557 34.0307 34.4771 34.0211L34.829 34.024C35.3147 34.0771 35.8047 34.0762 36.2902 34.0211L36.2417 33.8398H32.4347C32.3321 33.7726 31.6733 33.796 31.4086 33.7579C31.2273 33.7082 31.1237 33.746 30.954 33.6935C29.763 33.664 29.0601 33.4738 27.9843 33.1471C27.9179 32.9268 28.1731 32.9268 28.2575 32.8195C28.0312 32.8977 27.7473 32.8391 27.5776 33.0517C27.4165 33.0908 27.283 33.0789 27.2065 33.0011C27.074 32.9406 27.0491 32.9367 26.9217 32.8567C26.7117 32.7718 26.424 32.6479 26.3117 32.408L26.4423 32.2626C27.3406 32.416 28.3151 31.9555 29.1168 32.3103C30.9223 32.368 32.9446 32.416 34.6071 32.2626C36.5917 32.3398 38.6228 32.0023 40.552 31.6667C41.7034 31.7038 42.4122 30.4939 43.5938 30.7437V30.8782C43.1592 31.2443 42.3826 31.61 42.4122 32.2626L42.5438 32.2245L42.6404 32.4557C42.6502 32.3398 42.8095 32.2918 42.8198 32.1749C43.9536 30.9663 45.4752 30.4843 46.9479 30.003C47.4292 29.9844 48.0927 29.8208 48.488 30.1484C48.432 30.7261 48.2998 31.3202 47.9029 31.7153C47.6476 31.3202 47.7043 30.7536 47.1752 30.5135C47.0373 30.4248 46.58 30.4648 46.58 30.4648C46.2961 30.6582 45.8809 30.6473 45.6344 30.8404C46.1639 30.7437 46.9482 30.5801 47.4024 30.9749C47.5431 31.446 47.347 31.8969 47.2243 32.3103C47.0889 32.7436 46.7496 33.0911 46.7207 33.5612C46.1368 34.5895 45.1532 35.4266 44.5007 36.3778H44.6329C46.5337 34.8207 47.8837 33.1087 48.8956 30.9749C49.2066 30.9925 49.4251 30.4939 49.7181 30.7437C49.6536 31.3797 49.7864 31.9379 49.7238 32.1867L49.7181 32.2248C49.7266 32.6581 49.557 33.1283 49.3007 33.5145C48.4119 35.1749 47.0342 36.5212 45.5869 37.7154C45.7392 37.6655 45.9353 37.546 46.059 37.5015C48.0584 36.641 50.3882 33.5145 50.5765 30.7927C50.5972 30.4747 50.9636 30.4942 51.1622 30.5625C51.5698 30.6092 51.6079 31.0601 51.7596 31.341C51.872 31.7919 51.7118 32.416 51.8918 32.7721C52.1745 32.6287 52.0886 32.1576 52.2957 31.8972L52.3442 31.9459C52.3816 33.052 51.907 34.0192 51.0845 34.8268L50.9362 34.9937C48.9986 36.9257 46.7115 38.59 44.0852 39.1466C43.7827 39.2725 43.2995 39.0614 43.0924 39.3291C43.5935 39.6174 44.2089 39.3573 44.7641 39.3759C47.421 38.656 49.9164 37.0509 51.7115 34.7144C52.161 33.9538 53.3171 32.579 52.6668 31.2523ZM24.0904 31.34C23.9676 31.0797 24.0806 30.9263 24.3177 30.7918C24.544 30.705 24.4968 30.9829 24.628 31.071C24.9972 31.4543 25.7722 31.2327 25.9044 31.7996C25.3003 31.7909 24.6101 31.7032 24.0904 31.34ZM26.4426 31.945L26.312 31.8495L26.5383 31.6183C31.1121 31.8396 35.7522 31.6474 40.1919 31.2523C35.8464 32.2415 30.9685 32.262 26.4426 31.945ZM23.3139 52.8694C23.3139 50.7295 23.1316 50.4989 22.0586 50.4032L21.6041 50.3644C21.4936 50.2882 21.5314 49.9411 21.6397 49.8822C22.6963 49.9222 23.3139 49.9411 24.0772 49.9411C24.8049 49.9411 25.4231 49.9222 26.1511 49.8822C26.2607 49.9411 26.2959 50.2882 26.1876 50.3644L25.9141 50.4032C24.8411 50.5569 24.8049 50.8266 24.8049 52.8694V60.0185C24.8049 61.5416 24.7319 62.87 24.3866 63.7571C23.7863 65.2965 22.4949 66.5317 20.8034 66.5317C20.5846 66.5317 20.0209 66.5112 20.0209 66.1275C20.0209 65.7999 20.2953 65.2404 20.6768 65.2404C20.8956 65.2404 21.1131 65.2785 21.3492 65.3567C21.6041 65.4335 21.8581 65.4912 22.1125 65.4912C22.4949 65.4912 22.7136 65.2577 22.8411 64.989C23.2582 64.0847 23.3139 61.1929 23.3139 60.154V52.8694ZM32.5168 59.0796C32.4123 58.7424 32.3491 58.6962 31.8974 58.6962H29.6075C29.2288 58.6962 29.1385 58.7427 29.0321 59.0652L28.5008 60.684C28.2745 61.3776 28.1681 61.7962 28.1681 61.9656C28.1681 62.1488 28.2437 62.2407 28.6081 62.2734L29.1067 62.3192C29.2141 62.396 29.2141 62.642 29.0778 62.7031C28.6827 62.6718 28.2128 62.6718 27.5005 62.6593C27.001 62.6593 26.4561 62.6887 26.0476 62.7031C25.9557 62.642 25.9258 62.396 26.017 62.3192L26.5156 62.2734C26.8792 62.2407 27.2119 62.0713 27.4246 61.5153C27.6988 60.8086 28.1228 59.8059 28.7592 58.0791L30.306 53.9172C30.5159 53.3613 30.6081 53.0686 30.5619 52.8207C30.9241 52.7144 31.1832 52.4367 31.35 52.2353C31.4419 52.2353 31.5474 52.2667 31.5773 52.3749C31.7737 53.0542 32.017 53.7622 32.2446 54.4415L34.3185 60.6395C34.7595 61.9663 34.9543 62.1962 35.6075 62.274L36.0179 62.3198C36.1224 62.3967 36.0934 62.6426 36.0179 62.7038C35.4069 62.6727 34.7952 62.6581 34.1835 62.6599C33.4558 62.6599 32.8804 62.6894 32.44 62.7038C32.3201 62.6426 32.305 62.3967 32.4114 62.3198L32.8486 62.274C33.1681 62.2413 33.3808 62.1494 33.3808 61.9957C33.3808 61.8263 33.3031 61.548 33.1822 61.1788L32.5168 59.0796ZM29.5178 57.7105C29.396 58.0644 29.4102 58.0788 29.8351 58.0788H31.6991C32.1388 58.0788 32.1696 58.0176 32.0327 57.6023L31.2131 55.0877C31.0944 54.7188 30.9572 54.3015 30.8659 54.1158H30.836C30.7901 54.1939 30.6377 54.5635 30.4728 55.0266L29.5178 57.7105ZM35.6632 54.1158C35.315 53.2527 35.0878 52.9306 34.4347 52.8537L34.1627 52.8204C34.0579 52.7285 34.0705 52.512 34.1932 52.4364C34.6333 52.4684 35.1167 52.4829 35.7696 52.4829C36.4372 52.4829 36.9663 52.4684 37.6021 52.4364C37.7085 52.4976 37.7399 52.7285 37.6336 52.8204L37.4054 52.8537C36.83 52.9306 36.7075 53.0231 36.6927 53.1477C36.7248 53.2998 36.9804 54.1315 37.4526 55.3042C38.1472 57.0925 38.8444 58.8663 39.6043 60.6219C40.0726 59.6067 40.7232 58.0173 41.0569 57.2004C41.5111 56.1529 42.2102 54.4107 42.4661 53.7472C42.5891 53.4218 42.6027 53.2524 42.6027 53.1474C42.6027 53.0366 42.4519 52.9129 41.9228 52.8534L41.6493 52.8201C41.5429 52.7282 41.5731 52.4973 41.6782 52.4361C42.1025 52.4681 42.6798 52.4825 43.2552 52.4825C43.7556 52.4825 44.2246 52.4681 44.7251 52.4361C44.8315 52.4973 44.8315 52.7439 44.7547 52.8201L44.2992 52.8534C43.9372 52.8835 43.7097 53.0679 43.5142 53.3933C43.088 54.1158 42.4985 55.3654 41.8151 56.9371L40.9968 58.8362C40.3899 60.2536 39.6792 62.0418 39.4204 62.8581C39.3703 62.8892 39.3126 62.9054 39.2539 62.9049C39.179 62.9049 39.1038 62.8873 39.0283 62.8581C38.8424 62.1594 38.6093 61.4745 38.3304 60.8086L35.6632 54.1158ZM48.8639 59.0796C48.7575 58.7424 48.6974 58.6962 48.2422 58.6962H45.9552C45.5759 58.6962 45.4849 58.7427 45.3773 59.0652L44.8478 60.684C44.6203 61.3776 44.5139 61.7962 44.5139 61.9656C44.5139 62.1488 44.5913 62.2407 44.9539 62.2734L45.4544 62.3192C45.5589 62.396 45.5589 62.642 45.4229 62.7031C45.0313 62.6718 44.5598 62.6718 43.8466 62.6593C43.3486 62.6593 42.8022 62.6887 42.3933 62.7031C42.3018 62.642 42.2715 62.396 42.3619 62.3192L42.8623 62.2734C43.2268 62.2407 43.5608 62.0713 43.7717 61.5153C44.0446 60.8086 44.4708 59.8059 45.1063 58.0791L46.6511 53.9172C46.8632 53.3613 46.953 53.0686 46.9098 52.8207C47.2724 52.7144 47.5283 52.4367 47.6974 52.2353C47.7871 52.2353 47.8935 52.2667 47.9256 52.3749C48.121 53.0542 48.3647 53.7622 48.59 54.4415L50.6668 60.6395C51.1068 61.9663 51.3026 62.1962 51.9529 62.274L52.3643 62.3198C52.4707 62.3967 52.4392 62.6426 52.3643 62.7038C51.7533 62.6727 51.1416 62.6581 50.5299 62.6599C49.8037 62.6599 49.2283 62.6894 48.7883 62.7038C48.6659 62.6426 48.653 62.3967 48.7568 62.3198L49.1969 62.274C49.516 62.2413 49.7282 62.1494 49.7282 61.9957C49.7282 61.8263 49.6514 61.548 49.5308 61.1788L48.8639 59.0796ZM45.8639 57.7105C45.7427 58.0644 45.7594 58.0788 46.1831 58.0788H48.0471C48.4861 58.0788 48.516 58.0176 48.3779 57.6023L47.5608 55.0877C47.4402 54.7188 47.3052 54.3015 47.2129 54.1158H47.1821C47.1383 54.1939 46.9854 54.5635 46.8189 55.0266L45.8639 57.7105ZM49.4374 52.2107H50.3234V52.3426H49.9551V53.3203H49.8075V52.3426H49.4374V52.2107ZM50.6092 53.3203V52.2107H50.8201L51.1323 53.1502L51.4439 52.2107H51.6542V53.3203H51.5135V52.6648C51.5135 52.6411 51.5135 52.6058 51.5141 52.5533C51.516 52.5002 51.516 52.4451 51.516 52.3833L51.2057 53.3203H51.0587L50.7452 52.3833V52.4182C50.7452 52.4451 50.7452 52.4857 50.7483 52.5415V53.3203H50.6092Z" fill="black"/>
</g>
<defs>
<clipPath id="clip0_96_394">
<rect width="72" height="72" rx="8" fill="white"/>
</clipPath>
</defs>
</svg>
