<svg width="72" height="72" viewBox="0 0 72 72" fill="none" xmlns="http://www.w3.org/2000/svg">
<rect width="72" height="72" fill="white"/>
<path d="M36.3116 14.1506L37.5035 16.3894C37.7715 16.8025 38.0618 17.1682 38.4038 17.5087C39.4063 18.4988 40.3408 19.5554 41.2008 20.6714C43.2204 23.3233 44.5826 26.2683 45.5554 29.4533C46.1388 31.3989 46.4557 33.3948 46.4794 35.413C46.5771 41.4467 44.5086 46.6276 40.3382 50.9334C39.6599 51.6162 38.927 52.2427 38.1469 52.8065C37.7338 52.8065 37.5384 52.4897 37.3681 52.198C37.058 51.657 36.8517 51.063 36.7596 50.4463C36.6131 49.7164 36.5167 48.9864 36.5642 48.2327V47.8922C36.5307 47.8196 36.1664 14.3223 36.3116 14.1506Z" fill="#323232" fill-opacity="0.9"/>
<path d="M36.3116 14.0766C36.2627 13.9789 36.2139 14.0529 36.165 14.1003C36.1887 14.5888 36.0185 15.0243 35.7519 15.4402C35.4588 15.8533 35.0708 16.1702 34.6814 16.5107C32.518 18.3838 30.8152 20.6462 29.4516 23.1767C27.6372 26.5822 26.702 30.232 26.4368 34.0745C26.3154 35.4604 26.8751 40.351 27.312 41.7621C28.5039 45.5082 30.6449 48.6472 33.4182 51.3716C34.0993 52.0276 34.8279 52.6361 35.5816 53.2209C35.8007 53.2209 35.8244 53.0255 35.8747 52.8804C35.9708 52.5698 36.044 52.2526 36.0938 51.9313L36.5823 48.2829L36.3116 14.0766Z" fill="#363636"/>
<path d="M37.5035 54.2888C37.5524 53.7305 37.8203 53.2671 38.112 52.8051C37.8189 52.6837 37.6012 52.4422 37.4309 52.1728C37.2841 51.9178 37.1626 51.649 37.068 51.3703C36.7275 50.3486 36.6549 49.2767 36.5572 48.2327V47.6005C36.4358 47.6982 36.4107 48.5244 36.4107 48.6473C36.3396 49.7507 36.1932 50.8479 35.9724 51.9314C35.8998 52.3696 35.851 52.8065 35.5816 53.1959C35.5816 53.2448 35.5816 53.2936 35.6053 53.3662C36.0436 54.6558 36.1636 55.9692 36.2376 57.3077V57.7962C36.2376 58.3796 36.2139 58.2568 36.6982 58.4522C36.8936 58.5248 37.1113 58.5499 37.3067 58.695C37.4533 58.695 37.477 58.5736 37.477 58.4759L37.4044 57.6734V55.4346C37.3807 55.0438 37.4533 54.6558 37.5021 54.2901L37.5035 54.2888Z" fill="#C2BFBF"/>
</svg>
