<svg width="72" height="72" viewBox="0 0 72 72" fill="none" xmlns="http://www.w3.org/2000/svg">
<g clip-path="url(#clip0_96_433)">
<path d="M0 36V0H72V72H0" fill="white"/>
<path d="M34.3551 10.9503C34.2473 10.9601 33.9043 10.9943 33.5957 11.0188C26.4771 11.6606 19.8092 15.5017 15.5861 21.4052C13.2344 24.6877 11.7304 28.4111 11.1621 32.355C10.9612 33.7317 10.9367 34.1384 10.9367 36.005C10.9367 37.8716 10.9612 38.2782 11.1621 39.6549C12.5241 49.0663 19.2213 56.9737 28.3045 59.9035C29.9311 60.4277 31.6458 60.7853 33.5957 61.0009C34.3551 61.0842 37.6376 61.0842 38.3969 61.0009C41.7627 60.6285 44.6141 59.7957 47.4262 58.3602C47.8574 58.1397 47.9407 58.0809 47.8819 58.0319C47.8427 58.0025 46.0055 55.5382 43.8008 52.5595L39.7932 47.1458L34.7715 39.7137C32.0083 35.6277 29.7351 32.2864 29.7155 32.2864C29.6959 32.2815 29.6763 35.5836 29.6665 39.6157C29.6518 46.6755 29.6469 46.9597 29.5587 47.1262C29.4313 47.3663 29.3333 47.4643 29.1276 47.5721C28.9708 47.6505 28.8336 47.6652 28.0938 47.6652H27.2463L27.0209 47.5231C26.8739 47.43 26.7661 47.3075 26.6927 47.1654L26.5898 46.945L26.5996 37.122L26.6143 27.2941L26.7661 27.103C26.8445 27.0002 27.0111 26.8679 27.1287 26.8042C27.3296 26.7062 27.4079 26.6964 28.2555 26.6964C29.255 26.6964 29.4215 26.7356 29.6812 27.0198C29.7547 27.0981 32.4738 31.1939 35.7269 36.1274C38.98 41.061 43.4285 47.7974 45.6135 51.1044L49.5819 57.1158L49.7828 56.9835C51.5612 55.8273 53.4425 54.1811 54.9319 52.4664C58.1017 48.8263 60.1447 44.3876 60.8306 39.6549C61.0314 38.2782 61.0559 37.8716 61.0559 36.005C61.0559 34.1384 61.0314 33.7317 60.8306 32.355C59.4686 22.9436 52.7713 15.0362 43.6881 12.1065C42.0861 11.5872 40.3811 11.2295 38.4704 11.0139C38.0001 10.965 34.7617 10.9111 34.3551 10.9503ZM44.6141 26.1085C44.8492 26.2261 45.0403 26.4514 45.1089 26.6866C45.1481 26.814 45.1579 29.538 45.1481 35.6767L45.1334 44.4855L43.5803 42.1045L42.0224 39.7235V33.3202C42.0224 29.1803 42.042 26.8532 42.0714 26.7405C42.1498 26.4661 42.3212 26.2506 42.5564 26.1232C42.7573 26.0203 42.8308 26.0105 43.5999 26.0105C44.325 26.0105 44.4524 26.0203 44.6141 26.1085Z" fill="#363636"/>
</g>
<defs>
<clipPath id="clip0_96_433">
<rect width="72" height="72" rx="8" fill="white"/>
</clipPath>
</defs>
</svg>
