<svg width="72" height="72" viewBox="0 0 72 72" fill="none" xmlns="http://www.w3.org/2000/svg">
<rect width="72" height="72" rx="8" fill="white"/>
<path d="M36.8084 60.1518C36.1321 60.1521 35.4677 59.9743 34.882 59.6363L28.7522 56.0074C27.8374 55.4954 28.2831 55.3146 28.5857 55.2089C29.5587 54.9084 30.4903 54.4874 31.3588 53.9558C31.4315 53.9221 31.5116 53.9076 31.5915 53.9135C31.6714 53.9195 31.7484 53.9457 31.8153 53.9898L36.5255 56.7879C36.6132 56.8344 36.7109 56.8586 36.8102 56.8586C36.9094 56.8586 37.0071 56.8344 37.0948 56.7879L55.4629 46.186C55.5488 46.1345 55.6199 46.0616 55.6692 45.9743C55.7185 45.8871 55.7442 45.7885 55.7439 45.6883V24.4809C55.744 24.3791 55.7178 24.279 55.668 24.1903C55.6181 24.1016 55.5463 24.0272 55.4593 23.9743L37.0912 13.3813C37.0046 13.3325 36.9069 13.3069 36.8075 13.3069C36.7081 13.3069 36.6103 13.3325 36.5237 13.3813L18.1664 23.9779C18.0788 24.0296 18.0061 24.1032 17.9553 24.1913C17.9045 24.2794 17.8773 24.3792 17.8764 24.4809V45.6794C17.8766 45.7794 17.9034 45.8775 17.9541 45.9637C18.0047 46.0499 18.0774 46.121 18.1646 46.1699L23.2024 49.0773C25.9325 50.4415 27.6046 48.8338 27.6046 47.219V26.2891C27.6046 26.2186 27.6185 26.1487 27.6455 26.0836C27.6725 26.0184 27.7121 25.9592 27.7619 25.9093C27.8118 25.8594 27.871 25.8199 27.9362 25.7929C28.0013 25.7659 28.0712 25.752 28.1417 25.752H30.4691C30.6115 25.752 30.7481 25.8086 30.8488 25.9093C30.9495 26.01 31.0061 26.1466 31.0061 26.2891V47.2208C31.0061 50.864 29.0225 52.9496 25.5673 52.9496C24.0767 52.9756 22.6095 52.577 21.3369 51.8003L16.5086 49.0308C15.9225 48.6894 15.4361 48.2003 15.0981 47.6122C14.7601 47.0241 14.5822 46.3577 14.5823 45.6794V24.4809C14.5805 23.8016 14.7576 23.1337 15.0958 22.5445C15.4339 21.9553 15.9212 21.4654 16.5086 21.1242L34.8785 10.5187C35.4702 10.1949 36.1339 10.0253 36.8084 10.0253C37.4829 10.0253 38.1465 10.1949 38.7383 10.5187L57.1063 21.1242C57.6924 21.4649 58.1789 21.9533 58.5172 22.5407C58.8555 23.1282 59.0339 23.7941 59.0344 24.472V45.6794C59.0334 46.3577 58.8549 47.0239 58.5167 47.6118C58.1784 48.1998 57.6922 48.689 57.1063 49.0308L38.7383 59.6363C38.1515 59.9748 37.4858 60.1526 36.8084 60.1518Z" fill="#363636"/>
<path d="M33.3245 38.5847C33.3245 38.4423 33.3811 38.3056 33.4818 38.2049C33.5826 38.1042 33.7192 38.0476 33.8616 38.0476H36.2373C36.3642 38.048 36.4869 38.0934 36.5836 38.1756C36.6803 38.2579 36.7447 38.3717 36.7654 38.497C37.1235 40.9156 38.1976 42.1348 43.0546 42.1348C46.9233 42.1348 48.5722 41.2593 48.5722 39.2059C48.5722 38.0226 48.1049 37.1435 42.0914 36.5545C37.0644 36.0568 33.9565 34.9433 33.9565 30.926C33.9565 27.2201 37.0805 25.0092 42.317 25.0092C48.2016 25.0092 51.1143 27.0518 51.4831 31.4344C51.4888 31.5076 51.4793 31.5811 51.4554 31.6505C51.4316 31.7199 51.3937 31.7836 51.3442 31.8378C51.2947 31.892 51.2347 31.9355 51.1677 31.9655C51.1008 31.9956 51.0284 32.0116 50.955 32.0127H48.5632C48.4432 32.011 48.3273 31.9692 48.2338 31.8939C48.1404 31.8186 48.0748 31.7142 48.0476 31.5973C47.4765 29.0534 46.0783 28.2406 42.3188 28.2406C38.0938 28.2406 37.6032 29.7122 37.6032 30.815C37.6032 32.1505 38.1833 32.5408 43.8871 33.2945C49.5317 34.041 52.2136 35.0973 52.2136 39.0645C52.2136 43.0675 48.8765 45.359 43.0564 45.359C35.0092 45.3698 33.3245 41.6801 33.3245 38.5847Z" fill="#363636"/>
</svg>
