<svg width="72" height="72" viewBox="0 0 72 72" fill="none" xmlns="http://www.w3.org/2000/svg">
<rect width="72" height="72" rx="8" fill="white"/>
<g clip-path="url(#clip0_96_426)">
<path d="M45.5696 20.0506C45.5696 17.5339 41.4892 15.4937 36.4557 15.4937C31.4222 15.4937 27.3418 17.5339 27.3418 20.0506V47.3924C27.3418 49.9091 31.4222 51.9493 36.4557 51.9493C41.4892 51.9493 45.5696 49.9091 45.5696 47.3924V20.0506Z" fill="black"/>
<path d="M50.1266 24.6075H22.7848C20.2681 24.6075 18.2278 28.688 18.2278 33.7215C18.2278 38.7549 20.2681 42.8354 22.7848 42.8354H50.1266C52.6433 42.8354 54.6835 38.7549 54.6835 33.7215C54.6835 28.688 52.6433 24.6075 50.1266 24.6075Z" fill="black"/>
<path d="M31.443 21.7367C32.3742 21.7367 33.1291 20.9818 33.1291 20.0506C33.1291 19.1194 32.3742 18.3646 31.443 18.3646C30.5118 18.3646 29.757 19.1194 29.757 20.0506C29.757 20.9818 30.5118 21.7367 31.443 21.7367Z" fill="white"/>
<path d="M41.4684 49.0784C42.3996 49.0784 43.1544 48.3236 43.1544 47.3924C43.1544 46.4612 42.3996 45.7063 41.4684 45.7063C40.5372 45.7063 39.7823 46.4612 39.7823 47.3924C39.7823 48.3236 40.5372 49.0784 41.4684 49.0784Z" fill="white"/>
<path d="M27.3418 24.1519H36.4557" stroke="white"/>
<path d="M36.4557 43.2911H45.5696" stroke="white"/>
<path d="M26.8861 42.8354C26.8861 33.7215 29.1646 33.7215 36 33.7215C43.7468 33.7215 46.0253 33.7215 46.0253 24.6075" stroke="white"/>
</g>
<defs>
<clipPath id="clip0_96_426">
<rect width="36.4557" height="36.4557" fill="white" transform="translate(18.2278 15.4937)"/>
</clipPath>
</defs>
</svg>
