<svg width="72" height="72" viewBox="0 0 72 72" fill="none" xmlns="http://www.w3.org/2000/svg">
<g clip-path="url(#clip0_96_430)">
<path d="M0 0H72V72H0V0Z" fill="white"/>
<path d="M62.8861 36.2027C62.8861 32.5802 58.3496 29.1471 51.3943 27.0182C52.9993 19.9292 52.286 14.2892 49.1427 12.4835C48.4182 12.0599 47.5711 11.8593 46.646 11.8593V14.3449C47.1587 14.3449 47.5711 14.4452 47.9167 14.6347C49.4325 15.5041 50.0902 18.8146 49.5774 23.0724C49.4548 24.1202 49.2542 25.2237 49.009 26.3494C46.8243 25.8144 44.439 25.402 41.9311 25.1345C40.4264 23.0724 38.8659 21.1999 37.2943 19.5614C40.9279 16.184 44.3387 14.3338 46.6571 14.3338V11.8481C43.5919 11.8481 39.5792 14.0328 35.522 17.8225C31.4648 14.0551 27.4521 11.8927 24.3869 11.8927V14.3783C26.6942 14.3783 30.1161 16.2175 33.7498 19.5725C32.1893 21.211 30.6288 23.0724 29.1464 25.1345C26.6273 25.402 24.242 25.8144 22.0573 26.3606C21.801 25.2459 21.6115 24.1648 21.4777 23.1282C20.9538 18.8703 21.6003 15.5598 23.1051 14.6793C23.4395 14.4787 23.8742 14.3895 24.3869 14.3895V11.9039C23.4506 11.9039 22.6035 12.1045 21.8678 12.5281C18.7357 14.3338 18.0335 19.9626 19.6497 27.0293C12.7168 29.1694 8.20253 32.5913 8.20253 36.2027C8.20253 39.8253 12.7391 43.2583 19.6943 45.3872C18.0893 52.4763 18.8026 58.1163 21.9459 59.922C22.6704 60.3455 23.5175 60.5462 24.4538 60.5462C27.519 60.5462 31.5317 58.3615 35.5889 54.5718C39.6461 58.3392 43.6588 60.5016 46.724 60.5016C47.6603 60.5016 48.5074 60.3009 49.2431 59.8774C52.3752 58.0717 53.0774 52.4428 51.4612 45.3761C58.3718 43.2472 62.8861 39.8141 62.8861 36.2027ZM48.3736 28.7682C47.9612 30.206 47.4485 31.6885 46.8689 33.1709C46.4119 32.2792 45.9326 31.3875 45.4087 30.4958C44.896 29.6041 44.3499 28.7347 43.8037 27.8876C45.3865 28.1217 46.9135 28.4115 48.3736 28.7682ZM43.2687 40.6389C42.3993 42.1437 41.5076 43.5704 40.5824 44.8968C38.9216 45.0417 37.2385 45.1197 35.5443 45.1197C33.8612 45.1197 32.1781 45.0417 30.5285 44.9079C29.6033 43.5815 28.7005 42.166 27.8311 40.6724C26.984 39.2122 26.2149 37.7298 25.5127 36.2362C26.2037 34.7426 26.984 33.249 27.8199 31.7888C28.6894 30.2841 29.5811 28.8573 30.5062 27.5309C32.167 27.386 33.8501 27.308 35.5443 27.308C37.2274 27.308 38.9105 27.386 40.5601 27.5198C41.4853 28.8462 42.3881 30.2618 43.2575 31.7554C44.1046 33.2155 44.8737 34.698 45.5759 36.1916C44.8737 37.6852 44.1046 39.1788 43.2687 40.6389ZM46.8689 39.1899C47.4708 40.6835 47.9835 42.1771 48.4071 43.6261C46.9469 43.9828 45.4087 44.2838 43.8148 44.5178C44.361 43.6596 44.9072 42.779 45.4199 41.8762C45.9326 40.9845 46.4119 40.0816 46.8689 39.1899ZM35.5666 51.083C34.53 50.0129 33.4934 48.8203 32.4679 47.5162C33.4711 47.5608 34.4966 47.5942 35.5332 47.5942C36.5809 47.5942 37.6175 47.5719 38.6318 47.5162C37.6287 48.8203 36.5921 50.0129 35.5666 51.083ZM27.2738 44.5178C25.691 44.2838 24.164 43.994 22.7038 43.6373C23.1162 42.1994 23.629 40.717 24.2086 39.2345C24.6656 40.1262 25.1448 41.0179 25.6687 41.9096C26.1926 42.8013 26.7276 43.6707 27.2738 44.5178ZM35.5109 21.3225C36.5475 22.3925 37.5841 23.5852 38.6095 24.8893C37.6064 24.8447 36.5809 24.8112 35.5443 24.8112C34.4966 24.8112 33.46 24.8335 32.4456 24.8893C33.4488 23.5852 34.4854 22.3925 35.5109 21.3225ZM27.2626 27.8876C26.7165 28.7459 26.1703 29.6264 25.6576 30.5293C25.1448 31.421 24.6656 32.3127 24.2086 33.2044C23.6067 31.7108 23.0939 30.2172 22.6704 28.7682C24.1305 28.4226 25.6687 28.1217 27.2626 27.8876ZM17.1753 41.8427C13.2295 40.1596 10.677 37.9527 10.677 36.2027C10.677 34.4528 13.2295 32.2347 17.1753 30.5627C18.1338 30.1503 19.1816 29.7825 20.2628 29.4369C20.8981 31.6216 21.7341 33.8954 22.7707 36.225C21.7452 38.5434 20.9204 40.8061 20.2962 42.9796C19.1927 42.6341 18.145 42.2551 17.1753 41.8427ZM23.172 57.7707C21.6561 56.9013 20.9984 53.5909 21.5112 49.333C21.6338 48.2853 21.8344 47.1818 22.0796 46.056C24.2643 46.591 26.6496 47.0034 29.1575 47.271C30.6622 49.333 32.2227 51.2056 33.7943 52.8441C30.1607 56.2214 26.7499 58.0717 24.4315 58.0717C23.9299 58.0605 23.5063 57.9602 23.172 57.7707ZM49.6109 49.2773C50.1348 53.5352 49.4883 56.8456 47.9835 57.7261C47.6491 57.9268 47.2144 58.0159 46.7017 58.0159C44.3944 58.0159 40.9725 56.1768 37.3389 52.8218C38.8993 51.1833 40.4598 49.3219 41.9423 47.2598C44.4613 46.9923 46.8466 46.5799 49.0313 46.0337C49.2876 47.1595 49.4883 48.2407 49.6109 49.2773ZM53.9022 41.8427C52.9436 42.2551 51.8959 42.623 50.8147 42.9685C50.1793 40.7838 49.3434 38.51 48.3068 36.1804C49.3322 33.862 50.157 31.5993 50.7812 29.4258C51.8847 29.7713 52.9325 30.1503 53.9133 30.5627C57.8591 32.2458 60.4116 34.4528 60.4116 36.2027C60.4005 37.9527 57.848 40.1708 53.9022 41.8427Z" fill="#363636"/>
<path d="M35.5332 41.2966C38.3464 41.2966 40.627 39.016 40.627 36.2027C40.627 33.3895 38.3464 31.1089 35.5332 31.1089C32.7199 31.1089 30.4393 33.3895 30.4393 36.2027C30.4393 39.016 32.7199 41.2966 35.5332 41.2966Z" fill="#363636"/>
</g>
<defs>
<clipPath id="clip0_96_430">
<rect width="72" height="72" rx="8" fill="white"/>
</clipPath>
</defs>
</svg>
