<svg width="72" height="72" viewBox="0 0 72 72" fill="none" xmlns="http://www.w3.org/2000/svg">
<rect width="72" height="72" rx="8" fill="white"/>
<g clip-path="url(#clip0_96_452)">
<path d="M36.4557 20.0507C29.1672 20.0507 24.6122 23.6963 22.7899 30.9869C25.5233 27.3413 28.712 25.9747 32.3559 26.8857C34.4352 27.4056 35.9212 28.9151 37.5664 30.5854C40.2459 33.3063 43.3471 36.4554 50.1215 36.4554C57.4093 36.4554 61.965 32.8097 63.7867 25.5184C61.0539 29.1641 57.8652 30.5314 54.2207 29.6203C52.142 29.1005 50.656 27.5909 49.0108 25.9206C46.3313 23.1997 43.2295 20.0507 36.4557 20.0507ZM22.7899 36.4554C15.5021 36.4554 10.9464 40.101 9.12476 47.3923C11.8575 43.7467 15.0462 42.3794 18.6908 43.2911C20.7694 43.8116 22.2554 45.3205 23.9006 46.9901C26.5801 49.711 29.6819 52.8608 36.4557 52.8608C43.7442 52.8608 48.2992 49.2151 50.1215 41.9238C47.3881 45.5695 44.1994 46.9368 40.5555 46.025C38.4762 45.5059 36.9902 43.9956 35.345 42.326C32.6655 39.6051 29.5644 36.4554 22.7899 36.4554Z" fill="#363636"/>
</g>
<defs>
<clipPath id="clip0_96_452">
<rect width="54.6835" height="32.8101" fill="white" transform="translate(9.11392 20.0507)"/>
</clipPath>
</defs>
</svg>
