<svg width="72" height="72" viewBox="0 0 72 72" fill="none" xmlns="http://www.w3.org/2000/svg">
<g clip-path="url(#clip0_96_408)">
<path d="M0 36V0H72V72H0" fill="white"/>
<path d="M15.786 36.126V39.06H25.146V65.7H31.788V39.06H41.148V36.18C41.148 34.56 41.148 33.246 41.076 33.21C41.076 33.156 35.37 33.138 28.44 33.138L15.84 33.192V36.144L15.786 36.126ZM57.852 33.12C59.688 33.552 61.092 34.38 62.352 35.694C63.018 36.414 64.008 37.674 64.08 37.998C64.08 38.106 60.966 40.212 59.076 41.382C59.004 41.436 58.716 41.13 58.428 40.662C57.492 39.33 56.538 38.754 55.044 38.646C52.884 38.502 51.444 39.636 51.444 41.526C51.444 42.102 51.552 42.426 51.768 42.894C52.254 43.884 53.154 44.478 55.944 45.702C61.092 47.916 63.324 49.374 64.674 51.462C66.204 53.802 66.546 57.474 65.52 60.228C64.368 63.234 61.56 65.268 57.546 65.934C56.286 66.15 53.406 66.114 52.056 65.88C49.176 65.34 46.422 63.9 44.73 62.046C44.064 61.326 42.786 59.4 42.858 59.274L43.542 58.842L46.242 57.276L48.276 56.088L48.744 56.718C49.338 57.654 50.67 58.914 51.444 59.346C53.784 60.552 56.916 60.39 58.464 58.986C59.13 58.374 59.418 57.726 59.418 56.826C59.418 55.998 59.292 55.62 58.878 54.99C58.302 54.198 57.15 53.55 53.91 52.11C50.184 50.526 48.6 49.518 47.124 47.97C46.278 47.034 45.504 45.576 45.144 44.37C44.874 43.326 44.784 40.77 45.036 39.744C45.81 36.144 48.528 33.624 52.416 32.904C53.676 32.652 56.646 32.76 57.888 33.084L57.852 33.12Z" fill="#363636"/>
</g>
<defs>
<clipPath id="clip0_96_408">
<rect width="72" height="72" rx="8" fill="white"/>
</clipPath>
</defs>
</svg>
